<ttFont>
    <TTGlyph name="A" xMin="-23" yMin="-2" xMax="565" yMax="702">
      <contour>
        <pt x="23" y="-2" on="1"/>
        <pt x="18" y="-2" on="1"/>
        <pt x="-23" y="-2" on="0"/>
        <pt x="-23" y="14" on="1"/>
        <pt x="-23" y="19" on="0"/>
        <pt x="-18" y="29" on="1"/>
        <pt x="287" y="686" on="1"/>
        <pt x="294" y="702" on="0"/>
        <pt x="328" y="702" on="1"/>
        <pt x="357" y="702" on="1"/>
        <pt x="392" y="702" on="0"/>
        <pt x="396" y="686" on="1"/>
        <pt x="564" y="28" on="1"/>
        <pt x="565" y="24" on="0"/>
        <pt x="565" y="18" on="1"/>
        <pt x="565" y="-2" on="0"/>
        <pt x="521" y="-2" on="1"/>
        <pt x="513" y="-2" on="1"/>
        <pt x="478" y="-2" on="0"/>
        <pt x="474" y="14" on="1"/>
        <pt x="432" y="178" on="1"/>
        <pt x="138" y="178" on="1"/>
        <pt x="64" y="14" on="1"/>
        <pt x="57" y="-2" on="0"/>
      </contour>
      <contour>
        <pt x="174" y="254" on="1"/>
        <pt x="413" y="254" on="1"/>
        <pt x="340" y="552" on="1"/>
        <pt x="333" y="610" on="1"/>
        <pt x="311" y="552" on="1"/>
      </contour>
    </TTGlyph>
    <TTGlyph name="AE" xMin="-47" yMin="-2" xMax="859" yMax="700">
      <contour>
        <pt x="770" y="0" on="1"/>
        <pt x="478" y="0" on="1"/>
        <pt x="448" y="0" on="0"/>
        <pt x="445" y="29" on="1"/>
        <pt x="429" y="178" on="1"/>
        <pt x="134" y="178" on="1"/>
        <pt x="37" y="14" on="1"/>
        <pt x="27" y="-2" on="0"/>
        <pt x="-4" y="-2" on="1"/>
        <pt x="-9" y="-2" on="1"/>
        <pt x="-47" y="-2" on="0"/>
        <pt x="-47" y="13" on="1"/>
        <pt x="-47" y="20" on="0"/>
        <pt x="-41" y="31" on="1"/>
        <pt x="347" y="673" on="1"/>
        <pt x="363" y="700" on="0"/>
        <pt x="392" y="700" on="1"/>
        <pt x="842" y="700" on="1"/>
        <pt x="859" y="700" on="0"/>
        <pt x="859" y="678" on="1"/>
        <pt x="859" y="624" on="0"/>
        <pt x="834" y="624" on="1"/>
        <pt x="468" y="624" on="1"/>
        <pt x="494" y="396" on="1"/>
        <pt x="779" y="396" on="1"/>
        <pt x="796" y="396" on="0"/>
        <pt x="796" y="374" on="1"/>
        <pt x="796" y="320" on="0"/>
        <pt x="771" y="320" on="1"/>
        <pt x="502" y="320" on="1"/>
        <pt x="530" y="76" on="1"/>
        <pt x="778" y="76" on="1"/>
        <pt x="795" y="76" on="0"/>
        <pt x="795" y="54" on="1"/>
        <pt x="795" y="0" on="0"/>
      </contour>
      <contour>
        <pt x="180" y="253" on="1"/>
        <pt x="419" y="253" on="1"/>
        <pt x="389" y="552" on="1"/>
        <pt x="389" y="610" on="1"/>
        <pt x="360" y="552" on="1"/>
      </contour>
    </TTGlyph>
    <TTGlyph name="Aacute" xMin="-23" yMin="-2" xMax="565" yMax="932">
      <contour>
        <pt x="23" y="-2" on="1"/>
        <pt x="18" y="-2" on="1"/>
        <pt x="-23" y="-2" on="0"/>
        <pt x="-23" y="14" on="1"/>
        <pt x="-23" y="19" on="0"/>
        <pt x="-18" y="29" on="1"/>
        <pt x="287" y="686" on="1"/>
        <pt x="294" y="702" on="0"/>
        <pt x="328" y="702" on="1"/>
        <pt x="357" y="702" on="1"/>
        <pt x="392" y="702" on="0"/>
        <pt x="396" y="686" on="1"/>
        <pt x="564" y="28" on="1"/>
        <pt x="565" y="24" on="0"/>
        <pt x="565" y="18" on="1"/>
        <pt x="565" y="-2" on="0"/>
        <pt x="521" y="-2" on="1"/>
        <pt x="513" y="-2" on="1"/>
        <pt x="478" y="-2" on="0"/>
        <pt x="474" y="14" on="1"/>
        <pt x="432" y="178" on="1"/>
        <pt x="138" y="178" on="1"/>
        <pt x="64" y="14" on="1"/>
        <pt x="57" y="-2" on="0"/>
      </contour>
      <contour>
        <pt x="174" y="254" on="1"/>
        <pt x="413" y="254" on="1"/>
        <pt x="340" y="552" on="1"/>
        <pt x="333" y="610" on="1"/>
        <pt x="311" y="552" on="1"/>
      </contour>
      <contour>
        <pt x="381" y="932" on="0"/>
        <pt x="475" y="932" on="0"/>
        <pt x="475" y="909" on="0"/>
        <pt x="368" y="802" on="1"/>
        <pt x="351" y="785" on="0"/>
        <pt x="294" y="785" on="0"/>
        <pt x="294" y="794" on="1"/>
        <pt x="294" y="806" on="0"/>
        <pt x="363" y="906" on="1"/>
      </contour>
    </TTGlyph>
    <TTGlyph name="Acircumflex" xMin="-23" yMin="-2" xMax="565" yMax="906">
      <contour>
        <pt x="23" y="-2" on="1"/>
        <pt x="18" y="-2" on="1"/>
        <pt x="-23" y="-2" on="0"/>
        <pt x="-23" y="14" on="1"/>
        <pt x="-23" y="19" on="0"/>
        <pt x="-18" y="29" on="1"/>
        <pt x="287" y="686" on="1"/>
        <pt x="294" y="702" on="0"/>
        <pt x="328" y="702" on="1"/>
        <pt x="357" y="702" on="1"/>
        <pt x="392" y="702" on="0"/>
        <pt x="396" y="686" on="1"/>
        <pt x="564" y="28" on="1"/>
        <pt x="565" y="24" on="0"/>
        <pt x="565" y="18" on="1"/>
        <pt x="565" y="-2" on="0"/>
        <pt x="521" y="-2" on="1"/>
        <pt x="513" y="-2" on="1"/>
        <pt x="478" y="-2" on="0"/>
        <pt x="474" y="14" on="1"/>
        <pt x="432" y="178" on="1"/>
        <pt x="138" y="178" on="1"/>
        <pt x="64" y="14" on="1"/>
        <pt x="57" y="-2" on="0"/>
      </contour>
      <contour>
        <pt x="174" y="254" on="1"/>
        <pt x="413" y="254" on="1"/>
        <pt x="340" y="552" on="1"/>
        <pt x="333" y="610" on="1"/>
        <pt x="311" y="552" on="1"/>
      </contour>
      <contour>
        <pt x="351" y="906" on="1"/>
        <pt x="376" y="906" on="1"/>
        <pt x="408" y="906" on="0"/>
        <pt x="420" y="884" on="1"/>
        <pt x="467" y="796" on="1"/>
        <pt x="472" y="788" on="0"/>
        <pt x="470" y="764" on="0"/>
        <pt x="425" y="764" on="0"/>
        <pt x="412" y="777" on="1"/>
        <pt x="357" y="851" on="1"/>
        <pt x="288" y="777" on="1"/>
        <pt x="272" y="764" on="0"/>
        <pt x="230" y="764" on="0"/>
        <pt x="230" y="776" on="1"/>
        <pt x="230" y="785" on="0"/>
        <pt x="237" y="796" on="1"/>
        <pt x="303" y="884" on="1"/>
        <pt x="319" y="906" on="0"/>
      </contour>
    </TTGlyph>
    <TTGlyph name="Adieresis" xMin="-23" yMin="-2" xMax="565" yMax="882">
      <contour>
        <pt x="23" y="-2" on="1"/>
        <pt x="18" y="-2" on="1"/>
        <pt x="-23" y="-2" on="0"/>
        <pt x="-23" y="14" on="1"/>
        <pt x="-23" y="19" on="0"/>
        <pt x="-18" y="29" on="1"/>
        <pt x="287" y="686" on="1"/>
        <pt x="294" y="702" on="0"/>
        <pt x="328" y="702" on="1"/>
        <pt x="357" y="702" on="1"/>
        <pt x="392" y="702" on="0"/>
        <pt x="396" y="686" on="1"/>
        <pt x="564" y="28" on="1"/>
        <pt x="565" y="24" on="0"/>
        <pt x="565" y="18" on="1"/>
        <pt x="565" y="-2" on="0"/>
        <pt x="521" y="-2" on="1"/>
        <pt x="513" y="-2" on="1"/>
        <pt x="478" y="-2" on="0"/>
        <pt x="474" y="14" on="1"/>
        <pt x="432" y="178" on="1"/>
        <pt x="138" y="178" on="1"/>
        <pt x="64" y="14" on="1"/>
        <pt x="57" y="-2" on="0"/>
      </contour>
      <contour>
        <pt x="174" y="254" on="1"/>
        <pt x="413" y="254" on="1"/>
        <pt x="340" y="552" on="1"/>
        <pt x="333" y="610" on="1"/>
        <pt x="311" y="552" on="1"/>
      </contour>
      <contour>
        <pt x="431" y="882" on="1"/>
        <pt x="435" y="882" on="1"/>
        <pt x="473" y="882" on="0"/>
        <pt x="473" y="860" on="1"/>
        <pt x="468" y="809" on="1"/>
        <pt x="465" y="787" on="0"/>
        <pt x="426" y="787" on="1"/>
        <pt x="422" y="787" on="1"/>
        <pt x="384" y="787" on="0"/>
        <pt x="384" y="809" on="1"/>
        <pt x="389" y="860" on="1"/>
        <pt x="391" y="882" on="0"/>
      </contour>
      <contour>
        <pt x="287" y="882" on="1"/>
        <pt x="291" y="882" on="1"/>
        <pt x="329" y="882" on="0"/>
        <pt x="329" y="860" on="1"/>
        <pt x="324" y="809" on="1"/>
        <pt x="321" y="787" on="0"/>
        <pt x="282" y="787" on="1"/>
        <pt x="278" y="787" on="1"/>
        <pt x="240" y="787" on="0"/>
        <pt x="240" y="809" on="1"/>
        <pt x="245" y="860" on="1"/>
        <pt x="248" y="882" on="0"/>
      </contour>
    </TTGlyph>
    <TTGlyph name="Agrave" xMin="-23" yMin="-2" xMax="565" yMax="932">
      <contour>
        <pt x="23" y="-2" on="1"/>
        <pt x="18" y="-2" on="1"/>
        <pt x="-23" y="-2" on="0"/>
        <pt x="-23" y="14" on="1"/>
        <pt x="-23" y="19" on="0"/>
        <pt x="-18" y="29" on="1"/>
        <pt x="287" y="686" on="1"/>
        <pt x="294" y="702" on="0"/>
        <pt x="328" y="702" on="1"/>
        <pt x="357" y="702" on="1"/>
        <pt x="392" y="702" on="0"/>
        <pt x="396" y="686" on="1"/>
        <pt x="564" y="28" on="1"/>
        <pt x="565" y="24" on="0"/>
        <pt x="565" y="18" on="1"/>
        <pt x="565" y="-2" on="0"/>
        <pt x="521" y="-2" on="1"/>
        <pt x="513" y="-2" on="1"/>
        <pt x="478" y="-2" on="0"/>
        <pt x="474" y="14" on="1"/>
        <pt x="432" y="178" on="1"/>
        <pt x="138" y="178" on="1"/>
        <pt x="64" y="14" on="1"/>
        <pt x="57" y="-2" on="0"/>
      </contour>
      <contour>
        <pt x="174" y="254" on="1"/>
        <pt x="413" y="254" on="1"/>
        <pt x="340" y="552" on="1"/>
        <pt x="333" y="610" on="1"/>
        <pt x="311" y="552" on="1"/>
      </contour>
      <contour>
        <pt x="423" y="794" on="1"/>
        <pt x="423" y="785" on="0"/>
        <pt x="364" y="785" on="0"/>
        <pt x="349" y="803" on="1"/>
        <pt x="261" y="903" on="0"/>
        <pt x="255" y="916" on="0"/>
        <pt x="255" y="920" on="1"/>
        <pt x="256" y="932" on="0"/>
        <pt x="350" y="932" on="0"/>
        <pt x="365" y="906" on="1"/>
        <pt x="423" y="807" on="0"/>
      </contour>
    </TTGlyph>
    <TTGlyph name="Aring" xMin="-23" yMin="-2" xMax="565" yMax="913">
      <contour>
        <pt x="23" y="-2" on="1"/>
        <pt x="18" y="-2" on="1"/>
        <pt x="-23" y="-2" on="0"/>
        <pt x="-23" y="14" on="1"/>
        <pt x="-23" y="19" on="0"/>
        <pt x="-18" y="29" on="1"/>
        <pt x="287" y="686" on="1"/>
        <pt x="294" y="702" on="0"/>
        <pt x="328" y="702" on="1"/>
        <pt x="357" y="702" on="1"/>
        <pt x="392" y="702" on="0"/>
        <pt x="396" y="686" on="1"/>
        <pt x="564" y="28" on="1"/>
        <pt x="565" y="24" on="0"/>
        <pt x="565" y="18" on="1"/>
        <pt x="565" y="-2" on="0"/>
        <pt x="521" y="-2" on="1"/>
        <pt x="513" y="-2" on="1"/>
        <pt x="478" y="-2" on="0"/>
        <pt x="474" y="14" on="1"/>
        <pt x="432" y="178" on="1"/>
        <pt x="138" y="178" on="1"/>
        <pt x="64" y="14" on="1"/>
        <pt x="57" y="-2" on="0"/>
      </contour>
      <contour>
        <pt x="174" y="254" on="1"/>
        <pt x="413" y="254" on="1"/>
        <pt x="340" y="552" on="1"/>
        <pt x="333" y="610" on="1"/>
        <pt x="311" y="552" on="1"/>
      </contour>
      <contour>
        <pt x="441" y="799" on="0"/>
        <pt x="386" y="744" on="0"/>
        <pt x="315" y="744" on="0"/>
        <pt x="272" y="787" on="0"/>
        <pt x="272" y="858" on="0"/>
        <pt x="328" y="913" on="0"/>
        <pt x="398" y="913" on="0"/>
        <pt x="441" y="869" on="0"/>
      </contour>
      <contour>
        <pt x="307" y="804" on="0"/>
        <pt x="331" y="779" on="0"/>
        <pt x="374" y="779" on="0"/>
        <pt x="406" y="811" on="0"/>
        <pt x="406" y="853" on="0"/>
        <pt x="381" y="878" on="0"/>
        <pt x="340" y="878" on="0"/>
        <pt x="307" y="846" on="0"/>
      </contour>
    </TTGlyph>
    <TTGlyph name="Atilde" xMin="-23" yMin="-2" xMax="565" yMax="888">
      <contour>
        <pt x="23" y="-2" on="1"/>
        <pt x="18" y="-2" on="1"/>
        <pt x="-23" y="-2" on="0"/>
        <pt x="-23" y="14" on="1"/>
        <pt x="-23" y="19" on="0"/>
        <pt x="-18" y="29" on="1"/>
        <pt x="287" y="686" on="1"/>
        <pt x="294" y="702" on="0"/>
        <pt x="328" y="702" on="1"/>
        <pt x="357" y="702" on="1"/>
        <pt x="392" y="702" on="0"/>
        <pt x="396" y="686" on="1"/>
        <pt x="564" y="28" on="1"/>
        <pt x="565" y="24" on="0"/>
        <pt x="565" y="18" on="1"/>
        <pt x="565" y="-2" on="0"/>
        <pt x="521" y="-2" on="1"/>
        <pt x="513" y="-2" on="1"/>
        <pt x="478" y="-2" on="0"/>
        <pt x="474" y="14" on="1"/>
        <pt x="432" y="178" on="1"/>
        <pt x="138" y="178" on="1"/>
        <pt x="64" y="14" on="1"/>
        <pt x="57" y="-2" on="0"/>
      </contour>
      <contour>
        <pt x="174" y="254" on="1"/>
        <pt x="413" y="254" on="1"/>
        <pt x="340" y="552" on="1"/>
        <pt x="333" y="610" on="1"/>
        <pt x="311" y="552" on="1"/>
      </contour>
      <contour>
        <pt x="516" y="833" on="0"/>
        <pt x="453" y="795" on="0"/>
        <pt x="382" y="795" on="0"/>
        <pt x="297" y="815" on="0"/>
        <pt x="267" y="815" on="0"/>
        <pt x="236" y="802" on="0"/>
        <pt x="216" y="802" on="0"/>
        <pt x="198" y="823" on="0"/>
        <pt x="198" y="832" on="1"/>
        <pt x="198" y="851" on="0"/>
        <pt x="266" y="888" on="0"/>
        <pt x="334" y="888" on="0"/>
        <pt x="415" y="868" on="0"/>
        <pt x="447" y="868" on="0"/>
        <pt x="478" y="881" on="0"/>
        <pt x="497" y="881" on="0"/>
        <pt x="516" y="859" on="0"/>
        <pt x="516" y="851" on="1"/>
      </contour>
    </TTGlyph>
    <TTGlyph name="B" xMin="51" yMin="0" xMax="545" yMax="700">
      <contour>
        <pt x="255" y="0" on="1"/>
        <pt x="78" y="0" on="1"/>
        <pt x="51" y="0" on="0"/>
        <pt x="51" y="24" on="1"/>
        <pt x="51" y="28" on="0"/>
        <pt x="118" y="670" on="1"/>
        <pt x="121" y="700" on="0"/>
        <pt x="151" y="700" on="1"/>
        <pt x="335" y="700" on="1"/>
        <pt x="437" y="700" on="0"/>
        <pt x="545" y="616" on="0"/>
        <pt x="545" y="544" on="1"/>
        <pt x="545" y="488" on="0"/>
        <pt x="466" y="385" on="0"/>
        <pt x="415" y="371" on="1"/>
        <pt x="414" y="367" on="1"/>
        <pt x="428" y="364" on="0"/>
        <pt x="480" y="337" on="0"/>
        <pt x="514" y="307" on="0"/>
        <pt x="541" y="252" on="0"/>
        <pt x="541" y="219" on="1"/>
        <pt x="541" y="109" on="0"/>
        <pt x="387" y="0" on="0"/>
      </contour>
      <contour>
        <pt x="299" y="398" on="1"/>
        <pt x="365" y="398" on="0"/>
        <pt x="453" y="476" on="0"/>
        <pt x="453" y="532" on="1"/>
        <pt x="453" y="624" on="0"/>
        <pt x="318" y="624" on="1"/>
        <pt x="201" y="624" on="1"/>
        <pt x="178" y="398" on="1"/>
      </contour>
      <contour>
        <pt x="295" y="76" on="1"/>
        <pt x="365" y="76" on="0"/>
        <pt x="450" y="154" on="0"/>
        <pt x="450" y="220" on="1"/>
        <pt x="450" y="269" on="0"/>
        <pt x="375" y="322" on="0"/>
        <pt x="304" y="322" on="1"/>
        <pt x="170" y="322" on="1"/>
        <pt x="144" y="76" on="1"/>
      </contour>
    </TTGlyph>
    <TTGlyph name="C" xMin="38" yMin="-6" xMax="590" yMax="706">
      <contour>
        <pt x="392" y="630" on="1"/>
        <pt x="299" y="630" on="0"/>
        <pt x="178" y="537" on="0"/>
        <pt x="128" y="388" on="0"/>
        <pt x="128" y="175" on="0"/>
        <pt x="229" y="70" on="0"/>
        <pt x="334" y="70" on="1"/>
        <pt x="382" y="70" on="0"/>
        <pt x="470" y="94" on="0"/>
        <pt x="518" y="118" on="0"/>
        <pt x="519" y="118" on="1"/>
        <pt x="526" y="118" on="0"/>
        <pt x="526" y="84" on="0"/>
        <pt x="519" y="52" on="1"/>
        <pt x="513" y="25" on="0"/>
        <pt x="394" y="-6" on="0"/>
        <pt x="326" y="-6" on="1"/>
        <pt x="179" y="-6" on="0"/>
        <pt x="38" y="131" on="0"/>
        <pt x="38" y="274" on="1"/>
        <pt x="38" y="456" on="0"/>
        <pt x="116" y="574" on="1"/>
        <pt x="157" y="636" on="0"/>
        <pt x="305" y="706" on="0"/>
        <pt x="477" y="706" on="0"/>
        <pt x="590" y="666" on="0"/>
        <pt x="590" y="645" on="1"/>
        <pt x="590" y="633" on="0"/>
        <pt x="559" y="586" on="0"/>
        <pt x="550" y="586" on="1"/>
        <pt x="548" y="586" on="0"/>
        <pt x="508" y="608" on="0"/>
        <pt x="434" y="630" on="0"/>
      </contour>
    </TTGlyph>
    <TTGlyph name="Ccedilla" xMin="38" yMin="-210" xMax="590" yMax="706">
      <contour>
        <pt x="304" y="-210" on="1"/>
        <pt x="245" y="-210" on="0"/>
        <pt x="218" y="-190" on="1"/>
        <pt x="207" y="-182" on="0"/>
        <pt x="207" y="-169" on="1"/>
        <pt x="207" y="-136" on="0"/>
        <pt x="219" y="-136" on="1"/>
        <pt x="229" y="-142" on="1"/>
        <pt x="261" y="-161" on="0"/>
        <pt x="297" y="-161" on="1"/>
        <pt x="357" y="-161" on="0"/>
        <pt x="357" y="-121" on="1"/>
        <pt x="357" y="-108" on="0"/>
        <pt x="338" y="-93" on="0"/>
        <pt x="327" y="-90" on="1"/>
        <pt x="297" y="-84" on="0"/>
        <pt x="297" y="-69" on="1"/>
        <pt x="297" y="-68" on="0"/>
        <pt x="301" y="-56" on="1"/>
        <pt x="321" y="-6" on="1"/>
        <pt x="177" y="-4" on="0"/>
        <pt x="38" y="132" on="0"/>
        <pt x="38" y="274" on="1"/>
        <pt x="38" y="456" on="0"/>
        <pt x="116" y="574" on="1"/>
        <pt x="157" y="636" on="0"/>
        <pt x="305" y="706" on="0"/>
        <pt x="477" y="706" on="0"/>
        <pt x="590" y="666" on="0"/>
        <pt x="590" y="645" on="1"/>
        <pt x="590" y="633" on="0"/>
        <pt x="559" y="586" on="0"/>
        <pt x="550" y="586" on="1"/>
        <pt x="548" y="586" on="0"/>
        <pt x="508" y="608" on="0"/>
        <pt x="434" y="630" on="0"/>
        <pt x="392" y="630" on="1"/>
        <pt x="299" y="630" on="0"/>
        <pt x="178" y="537" on="0"/>
        <pt x="128" y="388" on="0"/>
        <pt x="128" y="175" on="0"/>
        <pt x="229" y="70" on="0"/>
        <pt x="334" y="70" on="1"/>
        <pt x="382" y="70" on="0"/>
        <pt x="470" y="94" on="0"/>
        <pt x="518" y="118" on="0"/>
        <pt x="519" y="118" on="1"/>
        <pt x="526" y="118" on="0"/>
        <pt x="526" y="84" on="0"/>
        <pt x="519" y="52" on="1"/>
        <pt x="514" y="29" on="0"/>
        <pt x="423" y="-1" on="0"/>
        <pt x="365" y="-4" on="1"/>
        <pt x="347" y="-49" on="1"/>
        <pt x="351" y="-49" on="1"/>
        <pt x="366" y="-49" on="0"/>
        <pt x="396" y="-55" on="0"/>
        <pt x="429" y="-86" on="0"/>
        <pt x="429" y="-111" on="1"/>
        <pt x="429" y="-210" on="0"/>
      </contour>
    </TTGlyph>
    <TTGlyph name="D" xMin="50" yMin="0" xMax="643" yMax="700">
      <contour>
        <pt x="150" y="700" on="1"/>
        <pt x="365" y="700" on="1"/>
        <pt x="492" y="700" on="0"/>
        <pt x="643" y="563" on="0"/>
        <pt x="643" y="415" on="1"/>
        <pt x="643" y="303" on="0"/>
        <pt x="585" y="137" on="0"/>
        <pt x="534" y="90" on="1"/>
        <pt x="435" y="0" on="0"/>
        <pt x="292" y="0" on="1"/>
        <pt x="77" y="0" on="1"/>
        <pt x="50" y="0" on="0"/>
        <pt x="50" y="24" on="1"/>
        <pt x="50" y="28" on="0"/>
        <pt x="117" y="670" on="1"/>
        <pt x="120" y="700" on="0"/>
      </contour>
      <contour>
        <pt x="293" y="76" on="1"/>
        <pt x="402" y="76" on="0"/>
        <pt x="552" y="235" on="0"/>
        <pt x="552" y="401" on="1"/>
        <pt x="552" y="519" on="0"/>
        <pt x="443" y="624" on="0"/>
        <pt x="350" y="624" on="1"/>
        <pt x="200" y="624" on="1"/>
        <pt x="143" y="76" on="1"/>
      </contour>
    </TTGlyph>
    <TTGlyph name="Delta" xMin="0" yMin="0" xMax="639" yMax="710">
      <contour>
        <pt x="605" y="0" on="1"/>
        <pt x="26" y="0" on="1"/>
        <pt x="0" y="0" on="0"/>
        <pt x="0" y="25" on="1"/>
        <pt x="0" y="46" on="0"/>
        <pt x="11" y="67" on="1"/>
        <pt x="340" y="687" on="1"/>
        <pt x="352" y="710" on="0"/>
        <pt x="378" y="710" on="1"/>
        <pt x="404" y="710" on="1"/>
        <pt x="429" y="710" on="0"/>
        <pt x="436" y="687" on="1"/>
        <pt x="634" y="67" on="1"/>
        <pt x="639" y="50" on="0"/>
        <pt x="639" y="40" on="1"/>
        <pt x="639" y="0" on="0"/>
      </contour>
      <contour>
        <pt x="85" y="68" on="1"/>
        <pt x="556" y="68" on="1"/>
        <pt x="382" y="619" on="1"/>
        <pt x="377" y="619" on="1"/>
      </contour>
    </TTGlyph>
    <TTGlyph name="E" xMin="45" yMin="0" xMax="515" yMax="700">
      <contour>
        <pt x="145" y="700" on="1"/>
        <pt x="498" y="700" on="1"/>
        <pt x="515" y="700" on="0"/>
        <pt x="515" y="678" on="1"/>
        <pt x="515" y="624" on="0"/>
        <pt x="490" y="624" on="1"/>
        <pt x="195" y="624" on="1"/>
        <pt x="171" y="396" on="1"/>
        <pt x="435" y="396" on="1"/>
        <pt x="452" y="396" on="0"/>
        <pt x="452" y="374" on="1"/>
        <pt x="452" y="320" on="0"/>
        <pt x="427" y="320" on="1"/>
        <pt x="163" y="320" on="1"/>
        <pt x="138" y="76" on="1"/>
        <pt x="434" y="76" on="1"/>
        <pt x="451" y="76" on="0"/>
        <pt x="451" y="54" on="1"/>
        <pt x="451" y="0" on="0"/>
        <pt x="426" y="0" on="1"/>
        <pt x="72" y="0" on="1"/>
        <pt x="45" y="0" on="0"/>
        <pt x="45" y="24" on="1"/>
        <pt x="45" y="28" on="0"/>
        <pt x="112" y="670" on="1"/>
        <pt x="115" y="700" on="0"/>
      </contour>
    </TTGlyph>
    <TTGlyph name="Eacute" xMin="45" yMin="0" xMax="515" yMax="932">
      <contour>
        <pt x="145" y="700" on="1"/>
        <pt x="498" y="700" on="1"/>
        <pt x="515" y="700" on="0"/>
        <pt x="515" y="678" on="1"/>
        <pt x="515" y="624" on="0"/>
        <pt x="490" y="624" on="1"/>
        <pt x="195" y="624" on="1"/>
        <pt x="171" y="396" on="1"/>
        <pt x="435" y="396" on="1"/>
        <pt x="452" y="396" on="0"/>
        <pt x="452" y="374" on="1"/>
        <pt x="452" y="320" on="0"/>
        <pt x="427" y="320" on="1"/>
        <pt x="163" y="320" on="1"/>
        <pt x="138" y="76" on="1"/>
        <pt x="434" y="76" on="1"/>
        <pt x="451" y="76" on="0"/>
        <pt x="451" y="54" on="1"/>
        <pt x="451" y="0" on="0"/>
        <pt x="426" y="0" on="1"/>
        <pt x="72" y="0" on="1"/>
        <pt x="45" y="0" on="0"/>
        <pt x="45" y="24" on="1"/>
        <pt x="45" y="28" on="0"/>
        <pt x="112" y="670" on="1"/>
        <pt x="115" y="700" on="0"/>
      </contour>
      <contour>
        <pt x="359" y="932" on="0"/>
        <pt x="453" y="932" on="0"/>
        <pt x="453" y="909" on="0"/>
        <pt x="346" y="802" on="1"/>
        <pt x="329" y="785" on="0"/>
        <pt x="272" y="785" on="0"/>
        <pt x="272" y="794" on="1"/>
        <pt x="272" y="806" on="0"/>
        <pt x="341" y="906" on="1"/>
      </contour>
    </TTGlyph>
    <TTGlyph name="Ecircumflex" xMin="45" yMin="0" xMax="515" yMax="906">
      <contour>
        <pt x="145" y="700" on="1"/>
        <pt x="498" y="700" on="1"/>
        <pt x="515" y="700" on="0"/>
        <pt x="515" y="678" on="1"/>
        <pt x="515" y="624" on="0"/>
        <pt x="490" y="624" on="1"/>
        <pt x="195" y="624" on="1"/>
        <pt x="171" y="396" on="1"/>
        <pt x="435" y="396" on="1"/>
        <pt x="452" y="396" on="0"/>
        <pt x="452" y="374" on="1"/>
        <pt x="452" y="320" on="0"/>
        <pt x="427" y="320" on="1"/>
        <pt x="163" y="320" on="1"/>
        <pt x="138" y="76" on="1"/>
        <pt x="434" y="76" on="1"/>
        <pt x="451" y="76" on="0"/>
        <pt x="451" y="54" on="1"/>
        <pt x="451" y="0" on="0"/>
        <pt x="426" y="0" on="1"/>
        <pt x="72" y="0" on="1"/>
        <pt x="45" y="0" on="0"/>
        <pt x="45" y="24" on="1"/>
        <pt x="45" y="28" on="0"/>
        <pt x="112" y="670" on="1"/>
        <pt x="115" y="700" on="0"/>
      </contour>
      <contour>
        <pt x="329" y="906" on="1"/>
        <pt x="354" y="906" on="1"/>
        <pt x="386" y="906" on="0"/>
        <pt x="398" y="884" on="1"/>
        <pt x="445" y="796" on="1"/>
        <pt x="450" y="788" on="0"/>
        <pt x="448" y="764" on="0"/>
        <pt x="403" y="764" on="0"/>
        <pt x="390" y="777" on="1"/>
        <pt x="335" y="851" on="1"/>
        <pt x="266" y="777" on="1"/>
        <pt x="250" y="764" on="0"/>
        <pt x="208" y="764" on="0"/>
        <pt x="208" y="776" on="1"/>
        <pt x="208" y="785" on="0"/>
        <pt x="215" y="796" on="1"/>
        <pt x="281" y="884" on="1"/>
        <pt x="297" y="906" on="0"/>
      </contour>
    </TTGlyph>
    <TTGlyph name="Edieresis" xMin="45" yMin="0" xMax="515" yMax="882">
      <contour>
        <pt x="145" y="700" on="1"/>
        <pt x="498" y="700" on="1"/>
        <pt x="515" y="700" on="0"/>
        <pt x="515" y="678" on="1"/>
        <pt x="515" y="624" on="0"/>
        <pt x="490" y="624" on="1"/>
        <pt x="195" y="624" on="1"/>
        <pt x="171" y="396" on="1"/>
        <pt x="435" y="396" on="1"/>
        <pt x="452" y="396" on="0"/>
        <pt x="452" y="374" on="1"/>
        <pt x="452" y="320" on="0"/>
        <pt x="427" y="320" on="1"/>
        <pt x="163" y="320" on="1"/>
        <pt x="138" y="76" on="1"/>
        <pt x="434" y="76" on="1"/>
        <pt x="451" y="76" on="0"/>
        <pt x="451" y="54" on="1"/>
        <pt x="451" y="0" on="0"/>
        <pt x="426" y="0" on="1"/>
        <pt x="72" y="0" on="1"/>
        <pt x="45" y="0" on="0"/>
        <pt x="45" y="24" on="1"/>
        <pt x="45" y="28" on="0"/>
        <pt x="112" y="670" on="1"/>
        <pt x="115" y="700" on="0"/>
      </contour>
      <contour>
        <pt x="409" y="882" on="1"/>
        <pt x="413" y="882" on="1"/>
        <pt x="451" y="882" on="0"/>
        <pt x="451" y="860" on="1"/>
        <pt x="446" y="809" on="1"/>
        <pt x="443" y="787" on="0"/>
        <pt x="404" y="787" on="1"/>
        <pt x="400" y="787" on="1"/>
        <pt x="362" y="787" on="0"/>
        <pt x="362" y="809" on="1"/>
        <pt x="367" y="860" on="1"/>
        <pt x="369" y="882" on="0"/>
      </contour>
      <contour>
        <pt x="265" y="882" on="1"/>
        <pt x="269" y="882" on="1"/>
        <pt x="307" y="882" on="0"/>
        <pt x="307" y="860" on="1"/>
        <pt x="302" y="809" on="1"/>
        <pt x="299" y="787" on="0"/>
        <pt x="260" y="787" on="1"/>
        <pt x="256" y="787" on="1"/>
        <pt x="218" y="787" on="0"/>
        <pt x="218" y="809" on="1"/>
        <pt x="223" y="860" on="1"/>
        <pt x="226" y="882" on="0"/>
      </contour>
    </TTGlyph>
    <TTGlyph name="Egrave" xMin="45" yMin="0" xMax="515" yMax="932">
      <contour>
        <pt x="145" y="700" on="1"/>
        <pt x="498" y="700" on="1"/>
        <pt x="515" y="700" on="0"/>
        <pt x="515" y="678" on="1"/>
        <pt x="515" y="624" on="0"/>
        <pt x="490" y="624" on="1"/>
        <pt x="195" y="624" on="1"/>
        <pt x="171" y="396" on="1"/>
        <pt x="435" y="396" on="1"/>
        <pt x="452" y="396" on="0"/>
        <pt x="452" y="374" on="1"/>
        <pt x="452" y="320" on="0"/>
        <pt x="427" y="320" on="1"/>
        <pt x="163" y="320" on="1"/>
        <pt x="138" y="76" on="1"/>
        <pt x="434" y="76" on="1"/>
        <pt x="451" y="76" on="0"/>
        <pt x="451" y="54" on="1"/>
        <pt x="451" y="0" on="0"/>
        <pt x="426" y="0" on="1"/>
        <pt x="72" y="0" on="1"/>
        <pt x="45" y="0" on="0"/>
        <pt x="45" y="24" on="1"/>
        <pt x="45" y="28" on="0"/>
        <pt x="112" y="670" on="1"/>
        <pt x="115" y="700" on="0"/>
      </contour>
      <contour>
        <pt x="401" y="794" on="1"/>
        <pt x="401" y="785" on="0"/>
        <pt x="342" y="785" on="0"/>
        <pt x="327" y="803" on="1"/>
        <pt x="239" y="903" on="0"/>
        <pt x="233" y="916" on="0"/>
        <pt x="233" y="920" on="1"/>
        <pt x="234" y="932" on="0"/>
        <pt x="328" y="932" on="0"/>
        <pt x="343" y="906" on="1"/>
        <pt x="401" y="807" on="0"/>
      </contour>
    </TTGlyph>
    <TTGlyph name="Eth" xMin="-1" yMin="0" xMax="644" yMax="700">
      <contour>
        <pt x="24" y="396" on="1"/>
        <pt x="89" y="396" on="1"/>
        <pt x="118" y="670" on="1"/>
        <pt x="121" y="700" on="0"/>
        <pt x="151" y="700" on="1"/>
        <pt x="366" y="700" on="1"/>
        <pt x="493" y="700" on="0"/>
        <pt x="644" y="563" on="0"/>
        <pt x="644" y="415" on="1"/>
        <pt x="644" y="303" on="0"/>
        <pt x="586" y="137" on="0"/>
        <pt x="535" y="90" on="1"/>
        <pt x="436" y="0" on="0"/>
        <pt x="293" y="0" on="1"/>
        <pt x="78" y="0" on="1"/>
        <pt x="51" y="0" on="0"/>
        <pt x="51" y="24" on="1"/>
        <pt x="81" y="320" on="1"/>
        <pt x="16" y="320" on="1"/>
        <pt x="-1" y="320" on="0"/>
        <pt x="-1" y="342" on="1"/>
        <pt x="-1" y="396" on="0"/>
      </contour>
      <contour>
        <pt x="294" y="76" on="1"/>
        <pt x="403" y="76" on="0"/>
        <pt x="553" y="235" on="0"/>
        <pt x="553" y="401" on="1"/>
        <pt x="553" y="519" on="0"/>
        <pt x="444" y="624" on="0"/>
        <pt x="351" y="624" on="1"/>
        <pt x="201" y="624" on="1"/>
        <pt x="177" y="396" on="1"/>
        <pt x="288" y="396" on="1"/>
        <pt x="305" y="396" on="0"/>
        <pt x="305" y="374" on="1"/>
        <pt x="305" y="320" on="0"/>
        <pt x="280" y="320" on="1"/>
        <pt x="169" y="320" on="1"/>
        <pt x="144" y="76" on="1"/>
      </contour>
    </TTGlyph>
    <TTGlyph name="Euro" xMin="-9" yMin="-6" xMax="566" yMax="706">
      <contour>
        <pt x="325" y="66" on="1"/>
        <pt x="369" y="66" on="0"/>
        <pt x="446" y="92" on="0"/>
        <pt x="488" y="118" on="0"/>
        <pt x="489" y="118" on="1"/>
        <pt x="495" y="118" on="0"/>
        <pt x="495" y="88" on="0"/>
        <pt x="489" y="52" on="1"/>
        <pt x="483" y="26" on="0"/>
        <pt x="380" y="-6" on="0"/>
        <pt x="325" y="-6" on="1"/>
        <pt x="73" y="-6" on="0"/>
        <pt x="63" y="236" on="1"/>
        <pt x="8" y="236" on="1"/>
        <pt x="-9" y="236" on="0"/>
        <pt x="-9" y="256" on="1"/>
        <pt x="-9" y="303" on="0"/>
        <pt x="15" y="303" on="1"/>
        <pt x="64" y="303" on="1"/>
        <pt x="71" y="381" on="0"/>
        <pt x="73" y="396" on="1"/>
        <pt x="24" y="396" on="1"/>
        <pt x="7" y="396" on="0"/>
        <pt x="7" y="416" on="1"/>
        <pt x="7" y="463" on="0"/>
        <pt x="31" y="463" on="1"/>
        <pt x="88" y="463" on="1"/>
        <pt x="121" y="583" on="0"/>
        <pt x="285" y="706" on="0"/>
        <pt x="402" y="706" on="1"/>
        <pt x="465" y="706" on="0"/>
        <pt x="566" y="666" on="0"/>
        <pt x="566" y="645" on="1"/>
        <pt x="566" y="633" on="0"/>
        <pt x="537" y="590" on="0"/>
        <pt x="527" y="590" on="1"/>
        <pt x="525" y="590" on="0"/>
        <pt x="493" y="612" on="0"/>
        <pt x="430" y="634" on="0"/>
        <pt x="392" y="634" on="1"/>
        <pt x="310" y="634" on="0"/>
        <pt x="203" y="553" on="0"/>
        <pt x="177" y="463" on="1"/>
        <pt x="455" y="463" on="1"/>
        <pt x="471" y="463" on="0"/>
        <pt x="471" y="445" on="1"/>
        <pt x="471" y="428" on="0"/>
        <pt x="443" y="396" on="0"/>
        <pt x="426" y="396" on="1"/>
        <pt x="162" y="396" on="1"/>
        <pt x="153" y="331" on="0"/>
        <pt x="153" y="303" on="1"/>
        <pt x="438" y="303" on="1"/>
        <pt x="454" y="303" on="0"/>
        <pt x="454" y="285" on="1"/>
        <pt x="454" y="268" on="0"/>
        <pt x="426" y="236" on="0"/>
        <pt x="409" y="236" on="1"/>
        <pt x="154" y="236" on="1"/>
        <pt x="161" y="149" on="0"/>
        <pt x="253" y="66" on="0"/>
      </contour>
    </TTGlyph>
    <TTGlyph name="F" xMin="49" yMin="-2" xMax="484" yMax="700">
      <contour>
        <pt x="150" y="700" on="1"/>
        <pt x="467" y="700" on="1"/>
        <pt x="484" y="700" on="0"/>
        <pt x="484" y="678" on="1"/>
        <pt x="484" y="624" on="0"/>
        <pt x="459" y="624" on="1"/>
        <pt x="200" y="624" on="1"/>
        <pt x="176" y="396" on="1"/>
        <pt x="427" y="396" on="1"/>
        <pt x="444" y="396" on="0"/>
        <pt x="444" y="374" on="1"/>
        <pt x="444" y="320" on="0"/>
        <pt x="419" y="320" on="1"/>
        <pt x="168" y="320" on="1"/>
        <pt x="137" y="20" on="1"/>
        <pt x="134" y="-2" on="0"/>
        <pt x="95" y="-2" on="1"/>
        <pt x="87" y="-2" on="1"/>
        <pt x="49" y="-2" on="0"/>
        <pt x="49" y="20" on="1"/>
        <pt x="117" y="670" on="1"/>
        <pt x="120" y="700" on="0"/>
      </contour>
    </TTGlyph>
    <TTGlyph name="G" xMin="52" yMin="-6" xMax="602" yMax="706">
      <contour>
        <pt x="376" y="285" on="1"/>
        <pt x="359" y="285" on="0"/>
        <pt x="359" y="307" on="1"/>
        <pt x="359" y="361" on="0"/>
        <pt x="384" y="361" on="1"/>
        <pt x="560" y="361" on="1"/>
        <pt x="587" y="361" on="0"/>
        <pt x="587" y="337" on="1"/>
        <pt x="587" y="333" on="0"/>
        <pt x="559" y="66" on="1"/>
        <pt x="551" y="-6" on="0"/>
        <pt x="328" y="-6" on="1"/>
        <pt x="52" y="-6" on="0"/>
        <pt x="52" y="275" on="1"/>
        <pt x="52" y="491" on="0"/>
        <pt x="246" y="706" on="0"/>
        <pt x="418" y="706" on="1"/>
        <pt x="488" y="706" on="0"/>
        <pt x="602" y="666" on="0"/>
        <pt x="602" y="645" on="1"/>
        <pt x="602" y="633" on="0"/>
        <pt x="571" y="586" on="0"/>
        <pt x="562" y="586" on="1"/>
        <pt x="560" y="586" on="0"/>
        <pt x="522" y="608" on="0"/>
        <pt x="449" y="630" on="0"/>
        <pt x="404" y="630" on="1"/>
        <pt x="275" y="630" on="0"/>
        <pt x="144" y="451" on="0"/>
        <pt x="144" y="288" on="1"/>
        <pt x="144" y="70" on="0"/>
        <pt x="342" y="70" on="1"/>
        <pt x="422" y="70" on="0"/>
        <pt x="472" y="83" on="1"/>
        <pt x="494" y="285" on="1"/>
      </contour>
    </TTGlyph>
    <TTGlyph name="H" xMin="62" yMin="-2" xMax="669" yMax="702">
      <contour>
        <pt x="173" y="702" on="1"/>
        <pt x="181" y="702" on="1"/>
        <pt x="219" y="702" on="0"/>
        <pt x="219" y="680" on="1"/>
        <pt x="189" y="397" on="1"/>
        <pt x="551" y="397" on="1"/>
        <pt x="581" y="680" on="1"/>
        <pt x="583" y="702" on="0"/>
        <pt x="623" y="702" on="1"/>
        <pt x="631" y="702" on="1"/>
        <pt x="669" y="702" on="0"/>
        <pt x="669" y="680" on="1"/>
        <pt x="600" y="20" on="1"/>
        <pt x="597" y="-2" on="0"/>
        <pt x="558" y="-2" on="1"/>
        <pt x="550" y="-2" on="1"/>
        <pt x="512" y="-2" on="0"/>
        <pt x="512" y="20" on="1"/>
        <pt x="543" y="321" on="1"/>
        <pt x="181" y="321" on="1"/>
        <pt x="150" y="20" on="1"/>
        <pt x="147" y="-2" on="0"/>
        <pt x="108" y="-2" on="1"/>
        <pt x="100" y="-2" on="1"/>
        <pt x="62" y="-2" on="0"/>
        <pt x="62" y="20" on="1"/>
        <pt x="131" y="680" on="1"/>
        <pt x="133" y="702" on="0"/>
      </contour>
    </TTGlyph>
    <TTGlyph name="I" xMin="62" yMin="-2" xMax="219" yMax="702">
      <contour>
        <pt x="173" y="702" on="1"/>
        <pt x="181" y="702" on="1"/>
        <pt x="219" y="702" on="0"/>
        <pt x="219" y="680" on="1"/>
        <pt x="150" y="20" on="1"/>
        <pt x="147" y="-2" on="0"/>
        <pt x="108" y="-2" on="1"/>
        <pt x="100" y="-2" on="1"/>
        <pt x="62" y="-2" on="0"/>
        <pt x="62" y="20" on="1"/>
        <pt x="131" y="680" on="1"/>
        <pt x="133" y="702" on="0"/>
      </contour>
    </TTGlyph>
    <TTGlyph name="Iacute" xMin="62" yMin="-2" xMax="309" yMax="932">
      <contour>
        <pt x="173" y="702" on="1"/>
        <pt x="181" y="702" on="1"/>
        <pt x="219" y="702" on="0"/>
        <pt x="219" y="680" on="1"/>
        <pt x="150" y="20" on="1"/>
        <pt x="147" y="-2" on="0"/>
        <pt x="108" y="-2" on="1"/>
        <pt x="100" y="-2" on="1"/>
        <pt x="62" y="-2" on="0"/>
        <pt x="62" y="20" on="1"/>
        <pt x="131" y="680" on="1"/>
        <pt x="133" y="702" on="0"/>
      </contour>
      <contour>
        <pt x="215" y="932" on="0"/>
        <pt x="309" y="932" on="0"/>
        <pt x="309" y="909" on="0"/>
        <pt x="202" y="802" on="1"/>
        <pt x="185" y="785" on="0"/>
        <pt x="128" y="785" on="0"/>
        <pt x="128" y="794" on="1"/>
        <pt x="128" y="806" on="0"/>
        <pt x="197" y="906" on="1"/>
      </contour>
    </TTGlyph>
    <TTGlyph name="Icircumflex" xMin="62" yMin="-2" xMax="306" yMax="906">
      <contour>
        <pt x="173" y="702" on="1"/>
        <pt x="181" y="702" on="1"/>
        <pt x="219" y="702" on="0"/>
        <pt x="219" y="680" on="1"/>
        <pt x="150" y="20" on="1"/>
        <pt x="147" y="-2" on="0"/>
        <pt x="108" y="-2" on="1"/>
        <pt x="100" y="-2" on="1"/>
        <pt x="62" y="-2" on="0"/>
        <pt x="62" y="20" on="1"/>
        <pt x="131" y="680" on="1"/>
        <pt x="133" y="702" on="0"/>
      </contour>
      <contour>
        <pt x="185" y="906" on="1"/>
        <pt x="210" y="906" on="1"/>
        <pt x="242" y="906" on="0"/>
        <pt x="254" y="884" on="1"/>
        <pt x="301" y="796" on="1"/>
        <pt x="306" y="788" on="0"/>
        <pt x="304" y="764" on="0"/>
        <pt x="259" y="764" on="0"/>
        <pt x="246" y="777" on="1"/>
        <pt x="191" y="851" on="1"/>
        <pt x="122" y="777" on="1"/>
        <pt x="106" y="764" on="0"/>
        <pt x="64" y="764" on="0"/>
        <pt x="64" y="776" on="1"/>
        <pt x="64" y="785" on="0"/>
        <pt x="71" y="796" on="1"/>
        <pt x="137" y="884" on="1"/>
        <pt x="153" y="906" on="0"/>
      </contour>
    </TTGlyph>
    <TTGlyph name="Idieresis" xMin="62" yMin="-2" xMax="307" yMax="882">
      <contour>
        <pt x="173" y="702" on="1"/>
        <pt x="181" y="702" on="1"/>
        <pt x="219" y="702" on="0"/>
        <pt x="219" y="680" on="1"/>
        <pt x="150" y="20" on="1"/>
        <pt x="147" y="-2" on="0"/>
        <pt x="108" y="-2" on="1"/>
        <pt x="100" y="-2" on="1"/>
        <pt x="62" y="-2" on="0"/>
        <pt x="62" y="20" on="1"/>
        <pt x="131" y="680" on="1"/>
        <pt x="133" y="702" on="0"/>
      </contour>
      <contour>
        <pt x="265" y="882" on="1"/>
        <pt x="269" y="882" on="1"/>
        <pt x="307" y="882" on="0"/>
        <pt x="307" y="860" on="1"/>
        <pt x="302" y="809" on="1"/>
        <pt x="299" y="787" on="0"/>
        <pt x="260" y="787" on="1"/>
        <pt x="256" y="787" on="1"/>
        <pt x="218" y="787" on="0"/>
        <pt x="218" y="809" on="1"/>
        <pt x="223" y="860" on="1"/>
        <pt x="225" y="882" on="0"/>
      </contour>
      <contour>
        <pt x="121" y="882" on="1"/>
        <pt x="125" y="882" on="1"/>
        <pt x="163" y="882" on="0"/>
        <pt x="163" y="860" on="1"/>
        <pt x="158" y="809" on="1"/>
        <pt x="155" y="787" on="0"/>
        <pt x="116" y="787" on="1"/>
        <pt x="112" y="787" on="1"/>
        <pt x="74" y="787" on="0"/>
        <pt x="74" y="809" on="1"/>
        <pt x="79" y="860" on="1"/>
        <pt x="82" y="882" on="0"/>
      </contour>
    </TTGlyph>
    <TTGlyph name="Igrave" xMin="62" yMin="-2" xMax="257" yMax="932">
      <contour>
        <pt x="173" y="702" on="1"/>
        <pt x="181" y="702" on="1"/>
        <pt x="219" y="702" on="0"/>
        <pt x="219" y="680" on="1"/>
        <pt x="150" y="20" on="1"/>
        <pt x="147" y="-2" on="0"/>
        <pt x="108" y="-2" on="1"/>
        <pt x="100" y="-2" on="1"/>
        <pt x="62" y="-2" on="0"/>
        <pt x="62" y="20" on="1"/>
        <pt x="131" y="680" on="1"/>
        <pt x="133" y="702" on="0"/>
      </contour>
      <contour>
        <pt x="257" y="794" on="1"/>
        <pt x="257" y="785" on="0"/>
        <pt x="198" y="785" on="0"/>
        <pt x="183" y="803" on="1"/>
        <pt x="95" y="903" on="0"/>
        <pt x="89" y="916" on="0"/>
        <pt x="89" y="920" on="1"/>
        <pt x="90" y="932" on="0"/>
        <pt x="184" y="932" on="0"/>
        <pt x="199" y="906" on="1"/>
        <pt x="257" y="807" on="0"/>
      </contour>
    </TTGlyph>
    <TTGlyph name="J" xMin="-11" yMin="-6" xMax="354" yMax="702">
      <contour>
        <pt x="308" y="702" on="1"/>
        <pt x="316" y="702" on="1"/>
        <pt x="354" y="702" on="0"/>
        <pt x="354" y="680" on="1"/>
        <pt x="304" y="205" on="1"/>
        <pt x="282" y="-6" on="0"/>
        <pt x="77" y="-6" on="1"/>
        <pt x="-11" y="-6" on="0"/>
        <pt x="-11" y="26" on="1"/>
        <pt x="-11" y="85" on="0"/>
        <pt x="4" y="85" on="1"/>
        <pt x="5" y="85" on="0"/>
        <pt x="46" y="76" on="0"/>
        <pt x="70" y="76" on="1"/>
        <pt x="139" y="76" on="0"/>
        <pt x="208" y="136" on="0"/>
        <pt x="215" y="201" on="1"/>
        <pt x="266" y="680" on="1"/>
        <pt x="268" y="702" on="0"/>
      </contour>
    </TTGlyph>
    <TTGlyph name="K" xMin="44" yMin="-2" xMax="549" yMax="702">
      <contour>
        <pt x="155" y="702" on="1"/>
        <pt x="163" y="702" on="1"/>
        <pt x="201" y="702" on="0"/>
        <pt x="201" y="680" on="1"/>
        <pt x="169" y="374" on="1"/>
        <pt x="173" y="374" on="1"/>
        <pt x="450" y="688" on="1"/>
        <pt x="463" y="702" on="0"/>
        <pt x="505" y="702" on="1"/>
        <pt x="515" y="702" on="1"/>
        <pt x="549" y="702" on="0"/>
        <pt x="549" y="690" on="1"/>
        <pt x="549" y="681" on="0"/>
        <pt x="537" y="669" on="1"/>
        <pt x="259" y="360" on="1"/>
        <pt x="520" y="28" on="1"/>
        <pt x="527" y="19" on="0"/>
        <pt x="527" y="12" on="1"/>
        <pt x="526" y="-2" on="0"/>
        <pt x="482" y="-2" on="1"/>
        <pt x="475" y="-2" on="1"/>
        <pt x="432" y="-2" on="0"/>
        <pt x="421" y="11" on="1"/>
        <pt x="169" y="333" on="1"/>
        <pt x="165" y="333" on="1"/>
        <pt x="132" y="20" on="1"/>
        <pt x="129" y="-2" on="0"/>
        <pt x="90" y="-2" on="1"/>
        <pt x="82" y="-2" on="1"/>
        <pt x="44" y="-2" on="0"/>
        <pt x="44" y="20" on="1"/>
        <pt x="113" y="680" on="1"/>
        <pt x="115" y="702" on="0"/>
      </contour>
    </TTGlyph>
    <TTGlyph name="L" xMin="50" yMin="0" xMax="451" yMax="702">
      <contour>
        <pt x="426" y="0" on="1"/>
        <pt x="77" y="0" on="1"/>
        <pt x="61" y="0" on="0"/>
        <pt x="50" y="14" on="0"/>
        <pt x="50" y="30" on="1"/>
        <pt x="118" y="680" on="1"/>
        <pt x="120" y="702" on="0"/>
        <pt x="160" y="702" on="1"/>
        <pt x="168" y="702" on="1"/>
        <pt x="206" y="702" on="0"/>
        <pt x="206" y="680" on="1"/>
        <pt x="143" y="76" on="1"/>
        <pt x="434" y="76" on="1"/>
        <pt x="451" y="76" on="0"/>
        <pt x="451" y="54" on="1"/>
        <pt x="451" y="0" on="0"/>
      </contour>
    </TTGlyph>
    <TTGlyph name="Lslash" xMin="-5" yMin="0" xMax="452" yMax="702">
      <contour>
        <pt x="427" y="0" on="1"/>
        <pt x="78" y="0" on="1"/>
        <pt x="62" y="0" on="0"/>
        <pt x="51" y="14" on="0"/>
        <pt x="51" y="30" on="1"/>
        <pt x="84" y="348" on="1"/>
        <pt x="12" y="308" on="1"/>
        <pt x="4" y="304" on="0"/>
        <pt x="2" y="304" on="1"/>
        <pt x="-5" y="304" on="0"/>
        <pt x="-5" y="341" on="0"/>
        <pt x="17" y="354" on="1"/>
        <pt x="89" y="394" on="1"/>
        <pt x="119" y="680" on="1"/>
        <pt x="121" y="702" on="0"/>
        <pt x="161" y="702" on="1"/>
        <pt x="169" y="702" on="1"/>
        <pt x="207" y="702" on="0"/>
        <pt x="207" y="680" on="1"/>
        <pt x="183" y="447" on="1"/>
        <pt x="297" y="511" on="1"/>
        <pt x="305" y="515" on="0"/>
        <pt x="308" y="515" on="1"/>
        <pt x="315" y="515" on="0"/>
        <pt x="315" y="477" on="0"/>
        <pt x="292" y="465" on="1"/>
        <pt x="178" y="401" on="1"/>
        <pt x="144" y="76" on="1"/>
        <pt x="435" y="76" on="1"/>
        <pt x="452" y="76" on="0"/>
        <pt x="452" y="54" on="1"/>
        <pt x="452" y="0" on="0"/>
      </contour>
    </TTGlyph>
    <TTGlyph name="M" xMin="54" yMin="-2" xMax="786" yMax="702">
      <contour>
        <pt x="715" y="702" on="1"/>
        <pt x="748" y="702" on="1"/>
        <pt x="786" y="702" on="0"/>
        <pt x="786" y="680" on="1"/>
        <pt x="717" y="20" on="1"/>
        <pt x="714" y="-2" on="0"/>
        <pt x="675" y="-2" on="1"/>
        <pt x="668" y="-2" on="1"/>
        <pt x="630" y="-2" on="0"/>
        <pt x="630" y="20" on="1"/>
        <pt x="686" y="558" on="1"/>
        <pt x="449" y="208" on="1"/>
        <pt x="440" y="195" on="0"/>
        <pt x="425" y="195" on="1"/>
        <pt x="385" y="195" on="1"/>
        <pt x="371" y="195" on="0"/>
        <pt x="365" y="208" on="1"/>
        <pt x="198" y="564" on="1"/>
        <pt x="141" y="20" on="1"/>
        <pt x="138" y="-2" on="0"/>
        <pt x="99" y="-2" on="1"/>
        <pt x="92" y="-2" on="1"/>
        <pt x="54" y="-2" on="0"/>
        <pt x="54" y="20" on="1"/>
        <pt x="123" y="680" on="1"/>
        <pt x="125" y="702" on="0"/>
        <pt x="165" y="702" on="1"/>
        <pt x="201" y="702" on="1"/>
        <pt x="234" y="702" on="0"/>
        <pt x="242" y="684" on="1"/>
        <pt x="396" y="356" on="1"/>
        <pt x="416" y="293" on="1"/>
        <pt x="448" y="350" on="1"/>
        <pt x="672" y="684" on="1"/>
        <pt x="683" y="702" on="0"/>
      </contour>
    </TTGlyph>
    <TTGlyph name="N" xMin="52" yMin="-2" xMax="666" yMax="702">
      <contour>
        <pt x="163" y="702" on="1"/>
        <pt x="184" y="702" on="1"/>
        <pt x="213" y="702" on="0"/>
        <pt x="224" y="683" on="1"/>
        <pt x="499" y="201" on="1"/>
        <pt x="523" y="145" on="1"/>
        <pt x="579" y="680" on="1"/>
        <pt x="581" y="702" on="0"/>
        <pt x="621" y="702" on="1"/>
        <pt x="628" y="702" on="1"/>
        <pt x="666" y="702" on="0"/>
        <pt x="666" y="680" on="1"/>
        <pt x="597" y="20" on="1"/>
        <pt x="594" y="-2" on="0"/>
        <pt x="555" y="-2" on="1"/>
        <pt x="535" y="-2" on="1"/>
        <pt x="509" y="-2" on="0"/>
        <pt x="501" y="12" on="1"/>
        <pt x="217" y="510" on="1"/>
        <pt x="196" y="561" on="1"/>
        <pt x="139" y="20" on="1"/>
        <pt x="136" y="-2" on="0"/>
        <pt x="97" y="-2" on="1"/>
        <pt x="90" y="-2" on="1"/>
        <pt x="52" y="-2" on="0"/>
        <pt x="52" y="20" on="1"/>
        <pt x="121" y="680" on="1"/>
        <pt x="123" y="702" on="0"/>
      </contour>
    </TTGlyph>
    <TTGlyph name="Ntilde" xMin="52" yMin="-2" xMax="666" yMax="888">
      <contour>
        <pt x="163" y="702" on="1"/>
        <pt x="184" y="702" on="1"/>
        <pt x="213" y="702" on="0"/>
        <pt x="224" y="683" on="1"/>
        <pt x="499" y="201" on="1"/>
        <pt x="523" y="145" on="1"/>
        <pt x="579" y="680" on="1"/>
        <pt x="581" y="702" on="0"/>
        <pt x="621" y="702" on="1"/>
        <pt x="628" y="702" on="1"/>
        <pt x="666" y="702" on="0"/>
        <pt x="666" y="680" on="1"/>
        <pt x="597" y="20" on="1"/>
        <pt x="594" y="-2" on="0"/>
        <pt x="555" y="-2" on="1"/>
        <pt x="535" y="-2" on="1"/>
        <pt x="509" y="-2" on="0"/>
        <pt x="501" y="12" on="1"/>
        <pt x="217" y="510" on="1"/>
        <pt x="196" y="561" on="1"/>
        <pt x="139" y="20" on="1"/>
        <pt x="136" y="-2" on="0"/>
        <pt x="97" y="-2" on="1"/>
        <pt x="90" y="-2" on="1"/>
        <pt x="52" y="-2" on="0"/>
        <pt x="52" y="20" on="1"/>
        <pt x="121" y="680" on="1"/>
        <pt x="123" y="702" on="0"/>
      </contour>
      <contour>
        <pt x="573" y="833" on="0"/>
        <pt x="510" y="795" on="0"/>
        <pt x="439" y="795" on="0"/>
        <pt x="354" y="815" on="0"/>
        <pt x="324" y="815" on="0"/>
        <pt x="293" y="802" on="0"/>
        <pt x="273" y="802" on="0"/>
        <pt x="255" y="823" on="0"/>
        <pt x="255" y="832" on="1"/>
        <pt x="255" y="851" on="0"/>
        <pt x="323" y="888" on="0"/>
        <pt x="391" y="888" on="0"/>
        <pt x="472" y="868" on="0"/>
        <pt x="504" y="868" on="0"/>
        <pt x="535" y="881" on="0"/>
        <pt x="554" y="881" on="0"/>
        <pt x="573" y="859" on="0"/>
        <pt x="573" y="851" on="1"/>
      </contour>
    </TTGlyph>
    <TTGlyph name="O" xMin="53" yMin="-6" xMax="678" yMax="706">
      <contour>
        <pt x="100" y="522" on="1"/>
        <pt x="126" y="577" on="0"/>
        <pt x="204" y="658" on="0"/>
        <pt x="326" y="706" on="0"/>
        <pt x="402" y="706" on="1"/>
        <pt x="537" y="706" on="0"/>
        <pt x="678" y="561" on="0"/>
        <pt x="678" y="420" on="1"/>
        <pt x="678" y="215" on="0"/>
        <pt x="490" y="-6" on="0"/>
        <pt x="327" y="-6" on="1"/>
        <pt x="193" y="-6" on="0"/>
        <pt x="53" y="140" on="0"/>
        <pt x="53" y="418" on="0"/>
      </contour>
      <contour>
        <pt x="335" y="70" on="1"/>
        <pt x="450" y="70" on="0"/>
        <pt x="586" y="247" on="0"/>
        <pt x="586" y="410" on="1"/>
        <pt x="586" y="519" on="0"/>
        <pt x="488" y="630" on="0"/>
        <pt x="394" y="630" on="1"/>
        <pt x="278" y="630" on="0"/>
        <pt x="144" y="456" on="0"/>
        <pt x="144" y="291" on="1"/>
        <pt x="144" y="182" on="0"/>
        <pt x="241" y="70" on="0"/>
      </contour>
    </TTGlyph>
    <TTGlyph name="OE" xMin="53" yMin="-6" xMax="1021" yMax="706">
      <contour>
        <pt x="651" y="700" on="1"/>
        <pt x="1004" y="700" on="1"/>
        <pt x="1021" y="700" on="0"/>
        <pt x="1021" y="678" on="1"/>
        <pt x="1021" y="624" on="0"/>
        <pt x="996" y="624" on="1"/>
        <pt x="701" y="624" on="1"/>
        <pt x="677" y="396" on="1"/>
        <pt x="941" y="396" on="1"/>
        <pt x="958" y="396" on="0"/>
        <pt x="958" y="374" on="1"/>
        <pt x="958" y="320" on="0"/>
        <pt x="933" y="320" on="1"/>
        <pt x="669" y="320" on="1"/>
        <pt x="644" y="76" on="1"/>
        <pt x="940" y="76" on="1"/>
        <pt x="957" y="76" on="0"/>
        <pt x="957" y="54" on="1"/>
        <pt x="957" y="0" on="0"/>
        <pt x="932" y="0" on="1"/>
        <pt x="578" y="0" on="1"/>
        <pt x="551" y="0" on="0"/>
        <pt x="551" y="24" on="1"/>
        <pt x="551" y="30" on="0"/>
        <pt x="556" y="73" on="1"/>
        <pt x="468" y="-6" on="0"/>
        <pt x="193" y="-6" on="0"/>
        <pt x="53" y="140" on="0"/>
        <pt x="53" y="282" on="1"/>
        <pt x="53" y="489" on="0"/>
        <pt x="238" y="706" on="0"/>
        <pt x="402" y="706" on="1"/>
        <pt x="539" y="706" on="0"/>
        <pt x="613" y="629" on="1"/>
        <pt x="618" y="670" on="1"/>
        <pt x="621" y="700" on="0"/>
      </contour>
      <contour>
        <pt x="335" y="70" on="1"/>
        <pt x="450" y="70" on="0"/>
        <pt x="586" y="247" on="0"/>
        <pt x="586" y="410" on="1"/>
        <pt x="586" y="519" on="0"/>
        <pt x="488" y="630" on="0"/>
        <pt x="394" y="630" on="1"/>
        <pt x="278" y="630" on="0"/>
        <pt x="144" y="456" on="0"/>
        <pt x="144" y="291" on="1"/>
        <pt x="144" y="182" on="0"/>
        <pt x="241" y="70" on="0"/>
      </contour>
    </TTGlyph>
    <TTGlyph name="Oacute" xMin="53" yMin="-6" xMax="678" yMax="932">
      <contour>
        <pt x="100" y="522" on="1"/>
        <pt x="126" y="577" on="0"/>
        <pt x="204" y="658" on="0"/>
        <pt x="326" y="706" on="0"/>
        <pt x="402" y="706" on="1"/>
        <pt x="537" y="706" on="0"/>
        <pt x="678" y="561" on="0"/>
        <pt x="678" y="420" on="1"/>
        <pt x="678" y="215" on="0"/>
        <pt x="490" y="-6" on="0"/>
        <pt x="327" y="-6" on="1"/>
        <pt x="193" y="-6" on="0"/>
        <pt x="53" y="140" on="0"/>
        <pt x="53" y="418" on="0"/>
      </contour>
      <contour>
        <pt x="335" y="70" on="1"/>
        <pt x="450" y="70" on="0"/>
        <pt x="586" y="247" on="0"/>
        <pt x="586" y="410" on="1"/>
        <pt x="586" y="519" on="0"/>
        <pt x="488" y="630" on="0"/>
        <pt x="394" y="630" on="1"/>
        <pt x="278" y="630" on="0"/>
        <pt x="144" y="456" on="0"/>
        <pt x="144" y="291" on="1"/>
        <pt x="144" y="182" on="0"/>
        <pt x="241" y="70" on="0"/>
      </contour>
      <contour>
        <pt x="444" y="932" on="0"/>
        <pt x="538" y="932" on="0"/>
        <pt x="538" y="909" on="0"/>
        <pt x="431" y="802" on="1"/>
        <pt x="414" y="785" on="0"/>
        <pt x="357" y="785" on="0"/>
        <pt x="357" y="794" on="1"/>
        <pt x="357" y="806" on="0"/>
        <pt x="426" y="906" on="1"/>
      </contour>
    </TTGlyph>
    <TTGlyph name="Ocircumflex" xMin="53" yMin="-6" xMax="678" yMax="906">
      <contour>
        <pt x="100" y="522" on="1"/>
        <pt x="126" y="577" on="0"/>
        <pt x="204" y="658" on="0"/>
        <pt x="326" y="706" on="0"/>
        <pt x="402" y="706" on="1"/>
        <pt x="537" y="706" on="0"/>
        <pt x="678" y="561" on="0"/>
        <pt x="678" y="420" on="1"/>
        <pt x="678" y="215" on="0"/>
        <pt x="490" y="-6" on="0"/>
        <pt x="327" y="-6" on="1"/>
        <pt x="193" y="-6" on="0"/>
        <pt x="53" y="140" on="0"/>
        <pt x="53" y="418" on="0"/>
      </contour>
      <contour>
        <pt x="335" y="70" on="1"/>
        <pt x="450" y="70" on="0"/>
        <pt x="586" y="247" on="0"/>
        <pt x="586" y="410" on="1"/>
        <pt x="586" y="519" on="0"/>
        <pt x="488" y="630" on="0"/>
        <pt x="394" y="630" on="1"/>
        <pt x="278" y="630" on="0"/>
        <pt x="144" y="456" on="0"/>
        <pt x="144" y="291" on="1"/>
        <pt x="144" y="182" on="0"/>
        <pt x="241" y="70" on="0"/>
      </contour>
      <contour>
        <pt x="414" y="906" on="1"/>
        <pt x="439" y="906" on="1"/>
        <pt x="471" y="906" on="0"/>
        <pt x="483" y="884" on="1"/>
        <pt x="530" y="796" on="1"/>
        <pt x="535" y="788" on="0"/>
        <pt x="533" y="764" on="0"/>
        <pt x="488" y="764" on="0"/>
        <pt x="475" y="777" on="1"/>
        <pt x="420" y="851" on="1"/>
        <pt x="351" y="777" on="1"/>
        <pt x="335" y="764" on="0"/>
        <pt x="293" y="764" on="0"/>
        <pt x="293" y="776" on="1"/>
        <pt x="293" y="785" on="0"/>
        <pt x="300" y="796" on="1"/>
        <pt x="366" y="884" on="1"/>
        <pt x="382" y="906" on="0"/>
      </contour>
    </TTGlyph>
    <TTGlyph name="Odieresis" xMin="53" yMin="-6" xMax="678" yMax="882">
      <contour>
        <pt x="100" y="522" on="1"/>
        <pt x="126" y="577" on="0"/>
        <pt x="204" y="658" on="0"/>
        <pt x="326" y="706" on="0"/>
        <pt x="402" y="706" on="1"/>
        <pt x="537" y="706" on="0"/>
        <pt x="678" y="561" on="0"/>
        <pt x="678" y="420" on="1"/>
        <pt x="678" y="215" on="0"/>
        <pt x="490" y="-6" on="0"/>
        <pt x="327" y="-6" on="1"/>
        <pt x="193" y="-6" on="0"/>
        <pt x="53" y="140" on="0"/>
        <pt x="53" y="418" on="0"/>
      </contour>
      <contour>
        <pt x="335" y="70" on="1"/>
        <pt x="450" y="70" on="0"/>
        <pt x="586" y="247" on="0"/>
        <pt x="586" y="410" on="1"/>
        <pt x="586" y="519" on="0"/>
        <pt x="488" y="630" on="0"/>
        <pt x="394" y="630" on="1"/>
        <pt x="278" y="630" on="0"/>
        <pt x="144" y="456" on="0"/>
        <pt x="144" y="291" on="1"/>
        <pt x="144" y="182" on="0"/>
        <pt x="241" y="70" on="0"/>
      </contour>
      <contour>
        <pt x="494" y="882" on="1"/>
        <pt x="498" y="882" on="1"/>
        <pt x="536" y="882" on="0"/>
        <pt x="536" y="860" on="1"/>
        <pt x="531" y="809" on="1"/>
        <pt x="528" y="787" on="0"/>
        <pt x="489" y="787" on="1"/>
        <pt x="485" y="787" on="1"/>
        <pt x="447" y="787" on="0"/>
        <pt x="447" y="809" on="1"/>
        <pt x="452" y="860" on="1"/>
        <pt x="454" y="882" on="0"/>
      </contour>
      <contour>
        <pt x="350" y="882" on="1"/>
        <pt x="354" y="882" on="1"/>
        <pt x="392" y="882" on="0"/>
        <pt x="392" y="860" on="1"/>
        <pt x="387" y="809" on="1"/>
        <pt x="384" y="787" on="0"/>
        <pt x="345" y="787" on="1"/>
        <pt x="341" y="787" on="1"/>
        <pt x="303" y="787" on="0"/>
        <pt x="303" y="809" on="1"/>
        <pt x="308" y="860" on="1"/>
        <pt x="311" y="882" on="0"/>
      </contour>
    </TTGlyph>
    <TTGlyph name="Ograve" xMin="53" yMin="-6" xMax="678" yMax="932">
      <contour>
        <pt x="100" y="522" on="1"/>
        <pt x="126" y="577" on="0"/>
        <pt x="204" y="658" on="0"/>
        <pt x="326" y="706" on="0"/>
        <pt x="402" y="706" on="1"/>
        <pt x="537" y="706" on="0"/>
        <pt x="678" y="561" on="0"/>
        <pt x="678" y="420" on="1"/>
        <pt x="678" y="215" on="0"/>
        <pt x="490" y="-6" on="0"/>
        <pt x="327" y="-6" on="1"/>
        <pt x="193" y="-6" on="0"/>
        <pt x="53" y="140" on="0"/>
        <pt x="53" y="418" on="0"/>
      </contour>
      <contour>
        <pt x="335" y="70" on="1"/>
        <pt x="450" y="70" on="0"/>
        <pt x="586" y="247" on="0"/>
        <pt x="586" y="410" on="1"/>
        <pt x="586" y="519" on="0"/>
        <pt x="488" y="630" on="0"/>
        <pt x="394" y="630" on="1"/>
        <pt x="278" y="630" on="0"/>
        <pt x="144" y="456" on="0"/>
        <pt x="144" y="291" on="1"/>
        <pt x="144" y="182" on="0"/>
        <pt x="241" y="70" on="0"/>
      </contour>
      <contour>
        <pt x="486" y="794" on="1"/>
        <pt x="486" y="785" on="0"/>
        <pt x="427" y="785" on="0"/>
        <pt x="412" y="803" on="1"/>
        <pt x="324" y="903" on="0"/>
        <pt x="318" y="916" on="0"/>
        <pt x="318" y="920" on="1"/>
        <pt x="319" y="932" on="0"/>
        <pt x="413" y="932" on="0"/>
        <pt x="428" y="906" on="1"/>
        <pt x="486" y="807" on="0"/>
      </contour>
    </TTGlyph>
    <TTGlyph name="Omega" xMin="6" yMin="0" xMax="677" yMax="706">
      <contour>
        <pt x="285" y="43" on="1"/>
        <pt x="285" y="0" on="0"/>
        <pt x="264" y="0" on="1"/>
        <pt x="23" y="0" on="1"/>
        <pt x="6" y="0" on="0"/>
        <pt x="6" y="19" on="1"/>
        <pt x="6" y="68" on="0"/>
        <pt x="31" y="68" on="1"/>
        <pt x="69" y="68" on="1"/>
        <pt x="127" y="64" on="1"/>
        <pt x="52" y="140" on="0"/>
        <pt x="52" y="286" on="1"/>
        <pt x="52" y="490" on="0"/>
        <pt x="239" y="706" on="0"/>
        <pt x="402" y="706" on="1"/>
        <pt x="537" y="706" on="0"/>
        <pt x="677" y="563" on="0"/>
        <pt x="677" y="422" on="1"/>
        <pt x="677" y="176" on="0"/>
        <pt x="541" y="64" on="1"/>
        <pt x="601" y="68" on="1"/>
        <pt x="639" y="68" on="1"/>
        <pt x="656" y="68" on="0"/>
        <pt x="656" y="48" on="1"/>
        <pt x="656" y="0" on="0"/>
        <pt x="631" y="0" on="1"/>
        <pt x="394" y="0" on="1"/>
        <pt x="377" y="0" on="0"/>
        <pt x="377" y="19" on="1"/>
        <pt x="377" y="49" on="0"/>
        <pt x="388" y="52" on="1"/>
        <pt x="480" y="74" on="0"/>
        <pt x="585" y="256" on="0"/>
        <pt x="585" y="412" on="1"/>
        <pt x="585" y="520" on="0"/>
        <pt x="488" y="630" on="0"/>
        <pt x="394" y="630" on="1"/>
        <pt x="275" y="630" on="0"/>
        <pt x="143" y="450" on="0"/>
        <pt x="143" y="279" on="1"/>
        <pt x="143" y="88" on="0"/>
        <pt x="279" y="52" on="1"/>
        <pt x="285" y="50" on="0"/>
      </contour>
    </TTGlyph>
    <TTGlyph name="Oslash" xMin="-1" yMin="-6" xMax="703" yMax="706">
      <contour>
        <pt x="53" y="282" on="1"/>
        <pt x="53" y="418" on="0"/>
        <pt x="100" y="522" on="1"/>
        <pt x="126" y="577" on="0"/>
        <pt x="204" y="658" on="0"/>
        <pt x="326" y="706" on="0"/>
        <pt x="402" y="706" on="1"/>
        <pt x="538" y="706" on="0"/>
        <pt x="607" y="634" on="1"/>
        <pt x="669" y="695" on="1"/>
        <pt x="676" y="702" on="0"/>
        <pt x="690" y="702" on="0"/>
        <pt x="703" y="689" on="0"/>
        <pt x="703" y="676" on="0"/>
        <pt x="696" y="669" on="1"/>
        <pt x="631" y="604" on="1"/>
        <pt x="678" y="534" on="0"/>
        <pt x="678" y="420" on="1"/>
        <pt x="678" y="215" on="0"/>
        <pt x="490" y="-6" on="0"/>
        <pt x="177" y="-6" on="0"/>
        <pt x="108" y="84" on="1"/>
        <pt x="33" y="9" on="1"/>
        <pt x="25" y="1" on="0"/>
        <pt x="13" y="1" on="0"/>
        <pt x="-1" y="15" on="0"/>
        <pt x="-1" y="27" on="0"/>
        <pt x="7" y="35" on="1"/>
        <pt x="88" y="116" on="1"/>
        <pt x="53" y="183" on="0"/>
      </contour>
      <contour>
        <pt x="144" y="291" on="1"/>
        <pt x="144" y="231" on="0"/>
        <pt x="159" y="187" on="1"/>
        <pt x="542" y="568" on="1"/>
        <pt x="492" y="630" on="0"/>
        <pt x="394" y="630" on="1"/>
        <pt x="278" y="630" on="0"/>
        <pt x="144" y="456" on="0"/>
      </contour>
      <contour>
        <pt x="175" y="150" on="1"/>
        <pt x="222" y="70" on="0"/>
        <pt x="450" y="70" on="0"/>
        <pt x="586" y="247" on="0"/>
        <pt x="586" y="410" on="1"/>
        <pt x="586" y="486" on="0"/>
        <pt x="562" y="536" on="1"/>
      </contour>
    </TTGlyph>
    <TTGlyph name="Otilde" xMin="53" yMin="-6" xMax="678" yMax="888">
      <contour>
        <pt x="100" y="522" on="1"/>
        <pt x="126" y="577" on="0"/>
        <pt x="204" y="658" on="0"/>
        <pt x="326" y="706" on="0"/>
        <pt x="402" y="706" on="1"/>
        <pt x="537" y="706" on="0"/>
        <pt x="678" y="561" on="0"/>
        <pt x="678" y="420" on="1"/>
        <pt x="678" y="215" on="0"/>
        <pt x="490" y="-6" on="0"/>
        <pt x="327" y="-6" on="1"/>
        <pt x="193" y="-6" on="0"/>
        <pt x="53" y="140" on="0"/>
        <pt x="53" y="418" on="0"/>
      </contour>
      <contour>
        <pt x="335" y="70" on="1"/>
        <pt x="450" y="70" on="0"/>
        <pt x="586" y="247" on="0"/>
        <pt x="586" y="410" on="1"/>
        <pt x="586" y="519" on="0"/>
        <pt x="488" y="630" on="0"/>
        <pt x="394" y="630" on="1"/>
        <pt x="278" y="630" on="0"/>
        <pt x="144" y="456" on="0"/>
        <pt x="144" y="291" on="1"/>
        <pt x="144" y="182" on="0"/>
        <pt x="241" y="70" on="0"/>
      </contour>
      <contour>
        <pt x="579" y="833" on="0"/>
        <pt x="516" y="795" on="0"/>
        <pt x="445" y="795" on="0"/>
        <pt x="360" y="815" on="0"/>
        <pt x="330" y="815" on="0"/>
        <pt x="299" y="802" on="0"/>
        <pt x="279" y="802" on="0"/>
        <pt x="261" y="823" on="0"/>
        <pt x="261" y="832" on="1"/>
        <pt x="261" y="851" on="0"/>
        <pt x="329" y="888" on="0"/>
        <pt x="397" y="888" on="0"/>
        <pt x="478" y="868" on="0"/>
        <pt x="510" y="868" on="0"/>
        <pt x="541" y="881" on="0"/>
        <pt x="560" y="881" on="0"/>
        <pt x="579" y="859" on="0"/>
        <pt x="579" y="851" on="1"/>
      </contour>
    </TTGlyph>
    <TTGlyph name="P" xMin="50" yMin="-2" xMax="559" yMax="700">
      <contour>
        <pt x="151" y="700" on="1"/>
        <pt x="354" y="700" on="1"/>
        <pt x="427" y="700" on="0"/>
        <pt x="486" y="670" on="1"/>
        <pt x="519" y="654" on="0"/>
        <pt x="559" y="584" on="0"/>
        <pt x="559" y="474" on="0"/>
        <pt x="519" y="383" on="0"/>
        <pt x="463" y="335" on="0"/>
        <pt x="428" y="320" on="1"/>
        <pt x="372" y="298" on="0"/>
        <pt x="322" y="298" on="1"/>
        <pt x="167" y="298" on="1"/>
        <pt x="138" y="20" on="1"/>
        <pt x="135" y="-2" on="0"/>
        <pt x="96" y="-2" on="1"/>
        <pt x="88" y="-2" on="1"/>
        <pt x="50" y="-2" on="0"/>
        <pt x="50" y="20" on="1"/>
        <pt x="118" y="670" on="1"/>
        <pt x="121" y="700" on="0"/>
      </contour>
      <contour>
        <pt x="331" y="374" on="1"/>
        <pt x="371" y="374" on="0"/>
        <pt x="414" y="400" on="1"/>
        <pt x="437" y="415" on="0"/>
        <pt x="467" y="478" on="0"/>
        <pt x="467" y="578" on="0"/>
        <pt x="394" y="624" on="0"/>
        <pt x="343" y="624" on="1"/>
        <pt x="201" y="624" on="1"/>
        <pt x="175" y="374" on="1"/>
      </contour>
    </TTGlyph>
    <TTGlyph name="Q" xMin="60" yMin="-157" xMax="685" yMax="706">
      <contour>
        <pt x="217" y="6" on="1"/>
        <pt x="60" y="67" on="0"/>
        <pt x="60" y="484" on="0"/>
        <pt x="247" y="706" on="0"/>
        <pt x="410" y="706" on="1"/>
        <pt x="545" y="706" on="0"/>
        <pt x="685" y="559" on="0"/>
        <pt x="685" y="417" on="1"/>
        <pt x="685" y="248" on="0"/>
        <pt x="556" y="34" on="0"/>
        <pt x="444" y="5" on="1"/>
        <pt x="444" y="1" on="1"/>
        <pt x="638" y="-62" on="1"/>
        <pt x="650" y="-67" on="0"/>
        <pt x="650" y="-82" on="1"/>
        <pt x="650" y="-157" on="0"/>
        <pt x="629" y="-157" on="1"/>
        <pt x="614" y="-157" on="0"/>
        <pt x="222" y="4" on="0"/>
      </contour>
      <contour>
        <pt x="343" y="67" on="1"/>
        <pt x="457" y="67" on="0"/>
        <pt x="593" y="244" on="0"/>
        <pt x="593" y="404" on="1"/>
        <pt x="593" y="514" on="0"/>
        <pt x="495" y="630" on="0"/>
        <pt x="402" y="630" on="1"/>
        <pt x="289" y="630" on="0"/>
        <pt x="152" y="451" on="0"/>
        <pt x="152" y="290" on="1"/>
        <pt x="152" y="182" on="0"/>
        <pt x="251" y="67" on="0"/>
      </contour>
    </TTGlyph>
    <TTGlyph name="R" xMin="50" yMin="-2" xMax="545" yMax="700">
      <contour>
        <pt x="151" y="700" on="1"/>
        <pt x="319" y="700" on="1"/>
        <pt x="430" y="700" on="0"/>
        <pt x="543" y="627" on="0"/>
        <pt x="543" y="476" on="0"/>
        <pt x="471" y="378" on="0"/>
        <pt x="409" y="354" on="1"/>
        <pt x="409" y="350" on="1"/>
        <pt x="435" y="340" on="0"/>
        <pt x="468" y="281" on="0"/>
        <pt x="485" y="225" on="1"/>
        <pt x="543" y="28" on="1"/>
        <pt x="545" y="20" on="0"/>
        <pt x="545" y="17" on="1"/>
        <pt x="545" y="-2" on="0"/>
        <pt x="501" y="-2" on="1"/>
        <pt x="491" y="-2" on="1"/>
        <pt x="456" y="-2" on="0"/>
        <pt x="452" y="14" on="1"/>
        <pt x="397" y="210" on="1"/>
        <pt x="381" y="267" on="0"/>
        <pt x="319" y="308" on="0"/>
        <pt x="258" y="308" on="1"/>
        <pt x="168" y="308" on="1"/>
        <pt x="138" y="20" on="1"/>
        <pt x="135" y="-2" on="0"/>
        <pt x="96" y="-2" on="1"/>
        <pt x="88" y="-2" on="1"/>
        <pt x="50" y="-2" on="0"/>
        <pt x="50" y="20" on="1"/>
        <pt x="118" y="670" on="1"/>
        <pt x="121" y="700" on="0"/>
      </contour>
      <contour>
        <pt x="308" y="384" on="1"/>
        <pt x="367" y="384" on="0"/>
        <pt x="450" y="469" on="0"/>
        <pt x="450" y="522" on="1"/>
        <pt x="450" y="624" on="0"/>
        <pt x="326" y="624" on="1"/>
        <pt x="201" y="624" on="1"/>
        <pt x="176" y="384" on="1"/>
      </contour>
    </TTGlyph>
    <TTGlyph name="S" xMin="36" yMin="-6" xMax="464" yMax="706">
      <contour>
        <pt x="239" y="630" on="0"/>
        <pt x="157" y="567" on="0"/>
        <pt x="157" y="508" on="1"/>
        <pt x="157" y="478" on="0"/>
        <pt x="200" y="435" on="0"/>
        <pt x="266" y="411" on="0"/>
        <pt x="341" y="377" on="0"/>
        <pt x="407" y="340" on="0"/>
        <pt x="450" y="267" on="0"/>
        <pt x="450" y="218" on="1"/>
        <pt x="450" y="115" on="0"/>
        <pt x="315" y="-6" on="0"/>
        <pt x="206" y="-6" on="1"/>
        <pt x="154" y="-6" on="0"/>
        <pt x="36" y="25" on="0"/>
        <pt x="36" y="56" on="1"/>
        <pt x="36" y="121" on="0"/>
        <pt x="52" y="121" on="1"/>
        <pt x="54" y="121" on="0"/>
        <pt x="94" y="96" on="0"/>
        <pt x="169" y="70" on="0"/>
        <pt x="275" y="70" on="0"/>
        <pt x="359" y="145" on="0"/>
        <pt x="359" y="204" on="1"/>
        <pt x="359" y="245" on="0"/>
        <pt x="299" y="299" on="0"/>
        <pt x="213" y="332" on="0"/>
        <pt x="127" y="369" on="0"/>
        <pt x="67" y="443" on="0"/>
        <pt x="67" y="498" on="1"/>
        <pt x="67" y="591" on="0"/>
        <pt x="201" y="706" on="0"/>
        <pt x="309" y="706" on="1"/>
        <pt x="358" y="706" on="0"/>
        <pt x="464" y="671" on="0"/>
        <pt x="464" y="646" on="1"/>
        <pt x="464" y="636" on="0"/>
        <pt x="433" y="592" on="0"/>
        <pt x="426" y="592" on="1"/>
        <pt x="422" y="592" on="0"/>
        <pt x="406" y="602" on="1"/>
        <pt x="358" y="630" on="0"/>
      </contour>
    </TTGlyph>
    <TTGlyph name="Scaron" xMin="36" yMin="-6" xMax="464" yMax="904">
      <contour>
        <pt x="239" y="630" on="0"/>
        <pt x="157" y="567" on="0"/>
        <pt x="157" y="508" on="1"/>
        <pt x="157" y="478" on="0"/>
        <pt x="200" y="435" on="0"/>
        <pt x="266" y="411" on="0"/>
        <pt x="341" y="377" on="0"/>
        <pt x="407" y="340" on="0"/>
        <pt x="450" y="267" on="0"/>
        <pt x="450" y="218" on="1"/>
        <pt x="450" y="115" on="0"/>
        <pt x="315" y="-6" on="0"/>
        <pt x="206" y="-6" on="1"/>
        <pt x="154" y="-6" on="0"/>
        <pt x="36" y="25" on="0"/>
        <pt x="36" y="56" on="1"/>
        <pt x="36" y="121" on="0"/>
        <pt x="52" y="121" on="1"/>
        <pt x="54" y="121" on="0"/>
        <pt x="94" y="96" on="0"/>
        <pt x="169" y="70" on="0"/>
        <pt x="275" y="70" on="0"/>
        <pt x="359" y="145" on="0"/>
        <pt x="359" y="204" on="1"/>
        <pt x="359" y="245" on="0"/>
        <pt x="299" y="299" on="0"/>
        <pt x="213" y="332" on="0"/>
        <pt x="127" y="369" on="0"/>
        <pt x="67" y="443" on="0"/>
        <pt x="67" y="498" on="1"/>
        <pt x="67" y="591" on="0"/>
        <pt x="201" y="706" on="0"/>
        <pt x="309" y="706" on="1"/>
        <pt x="358" y="706" on="0"/>
        <pt x="464" y="671" on="0"/>
        <pt x="464" y="646" on="1"/>
        <pt x="464" y="636" on="0"/>
        <pt x="433" y="592" on="0"/>
        <pt x="426" y="592" on="1"/>
        <pt x="422" y="592" on="0"/>
        <pt x="406" y="602" on="1"/>
        <pt x="358" y="630" on="0"/>
      </contour>
      <contour>
        <pt x="202" y="872" on="1"/>
        <pt x="197" y="881" on="0"/>
        <pt x="199" y="904" on="0"/>
        <pt x="244" y="904" on="0"/>
        <pt x="257" y="891" on="1"/>
        <pt x="310" y="817" on="1"/>
        <pt x="381" y="891" on="1"/>
        <pt x="397" y="904" on="0"/>
        <pt x="439" y="904" on="0"/>
        <pt x="439" y="890" on="1"/>
        <pt x="439" y="882" on="0"/>
        <pt x="432" y="872" on="1"/>
        <pt x="365" y="784" on="1"/>
        <pt x="349" y="762" on="0"/>
        <pt x="317" y="762" on="1"/>
        <pt x="292" y="762" on="1"/>
        <pt x="260" y="762" on="0"/>
        <pt x="248" y="784" on="1"/>
      </contour>
    </TTGlyph>
    <TTGlyph name="T" xMin="48" yMin="-2" xMax="562" yMax="700">
      <contour>
        <pt x="65" y="624" on="1"/>
        <pt x="48" y="624" on="0"/>
        <pt x="48" y="646" on="1"/>
        <pt x="48" y="700" on="0"/>
        <pt x="73" y="700" on="1"/>
        <pt x="545" y="700" on="1"/>
        <pt x="562" y="700" on="0"/>
        <pt x="562" y="678" on="1"/>
        <pt x="562" y="624" on="0"/>
        <pt x="537" y="624" on="1"/>
        <pt x="347" y="624" on="1"/>
        <pt x="284" y="20" on="1"/>
        <pt x="281" y="-2" on="0"/>
        <pt x="242" y="-2" on="1"/>
        <pt x="234" y="-2" on="1"/>
        <pt x="196" y="-2" on="0"/>
        <pt x="196" y="20" on="1"/>
        <pt x="259" y="624" on="1"/>
      </contour>
    </TTGlyph>
    <TTGlyph name="Thorn" xMin="50" yMin="-2" xMax="546" yMax="702">
      <contour>
        <pt x="161" y="702" on="1"/>
        <pt x="169" y="702" on="1"/>
        <pt x="207" y="702" on="0"/>
        <pt x="207" y="680" on="1"/>
        <pt x="196" y="578" on="1"/>
        <pt x="341" y="578" on="1"/>
        <pt x="414" y="578" on="0"/>
        <pt x="473" y="548" on="1"/>
        <pt x="506" y="532" on="0"/>
        <pt x="546" y="462" on="0"/>
        <pt x="546" y="351" on="0"/>
        <pt x="509" y="261" on="0"/>
        <pt x="456" y="213" on="0"/>
        <pt x="421" y="198" on="1"/>
        <pt x="367" y="176" on="0"/>
        <pt x="309" y="176" on="1"/>
        <pt x="154" y="176" on="1"/>
        <pt x="138" y="20" on="1"/>
        <pt x="135" y="-2" on="0"/>
        <pt x="96" y="-2" on="1"/>
        <pt x="88" y="-2" on="1"/>
        <pt x="50" y="-2" on="0"/>
        <pt x="50" y="20" on="1"/>
        <pt x="119" y="680" on="1"/>
        <pt x="122" y="702" on="0"/>
      </contour>
      <contour>
        <pt x="318" y="252" on="1"/>
        <pt x="358" y="252" on="0"/>
        <pt x="400" y="278" on="1"/>
        <pt x="424" y="293" on="0"/>
        <pt x="454" y="356" on="0"/>
        <pt x="454" y="456" on="0"/>
        <pt x="381" y="502" on="0"/>
        <pt x="330" y="502" on="1"/>
        <pt x="188" y="502" on="1"/>
        <pt x="162" y="252" on="1"/>
      </contour>
    </TTGlyph>
    <TTGlyph name="U" xMin="64" yMin="-6" xMax="660" yMax="702">
      <contour>
        <pt x="157" y="702" on="1"/>
        <pt x="165" y="702" on="1"/>
        <pt x="202" y="702" on="0"/>
        <pt x="202" y="680" on="1"/>
        <pt x="153" y="216" on="0"/>
        <pt x="153" y="206" on="1"/>
        <pt x="153" y="144" on="0"/>
        <pt x="241" y="70" on="0"/>
        <pt x="403" y="70" on="0"/>
        <pt x="517" y="155" on="0"/>
        <pt x="524" y="221" on="1"/>
        <pt x="572" y="680" on="1"/>
        <pt x="574" y="702" on="0"/>
        <pt x="615" y="702" on="1"/>
        <pt x="623" y="702" on="1"/>
        <pt x="660" y="702" on="0"/>
        <pt x="660" y="680" on="1"/>
        <pt x="612" y="224" on="1"/>
        <pt x="601" y="115" on="0"/>
        <pt x="446" y="-6" on="0"/>
        <pt x="193" y="-6" on="0"/>
        <pt x="64" y="98" on="0"/>
        <pt x="64" y="193" on="1"/>
        <pt x="64" y="203" on="0"/>
        <pt x="114" y="680" on="1"/>
        <pt x="116" y="702" on="0"/>
      </contour>
    </TTGlyph>
    <TTGlyph name="Uacute" xMin="64" yMin="-6" xMax="660" yMax="932">
      <contour>
        <pt x="157" y="702" on="1"/>
        <pt x="165" y="702" on="1"/>
        <pt x="202" y="702" on="0"/>
        <pt x="202" y="680" on="1"/>
        <pt x="153" y="216" on="0"/>
        <pt x="153" y="206" on="1"/>
        <pt x="153" y="144" on="0"/>
        <pt x="241" y="70" on="0"/>
        <pt x="403" y="70" on="0"/>
        <pt x="517" y="155" on="0"/>
        <pt x="524" y="221" on="1"/>
        <pt x="572" y="680" on="1"/>
        <pt x="574" y="702" on="0"/>
        <pt x="615" y="702" on="1"/>
        <pt x="623" y="702" on="1"/>
        <pt x="660" y="702" on="0"/>
        <pt x="660" y="680" on="1"/>
        <pt x="612" y="224" on="1"/>
        <pt x="601" y="115" on="0"/>
        <pt x="446" y="-6" on="0"/>
        <pt x="193" y="-6" on="0"/>
        <pt x="64" y="98" on="0"/>
        <pt x="64" y="193" on="1"/>
        <pt x="64" y="203" on="0"/>
        <pt x="114" y="680" on="1"/>
        <pt x="116" y="702" on="0"/>
      </contour>
      <contour>
        <pt x="432" y="932" on="0"/>
        <pt x="526" y="932" on="0"/>
        <pt x="526" y="909" on="0"/>
        <pt x="419" y="802" on="1"/>
        <pt x="402" y="785" on="0"/>
        <pt x="345" y="785" on="0"/>
        <pt x="345" y="794" on="1"/>
        <pt x="345" y="806" on="0"/>
        <pt x="414" y="906" on="1"/>
      </contour>
    </TTGlyph>
    <TTGlyph name="Ucircumflex" xMin="64" yMin="-6" xMax="660" yMax="906">
      <contour>
        <pt x="157" y="702" on="1"/>
        <pt x="165" y="702" on="1"/>
        <pt x="202" y="702" on="0"/>
        <pt x="202" y="680" on="1"/>
        <pt x="153" y="216" on="0"/>
        <pt x="153" y="206" on="1"/>
        <pt x="153" y="144" on="0"/>
        <pt x="241" y="70" on="0"/>
        <pt x="403" y="70" on="0"/>
        <pt x="517" y="155" on="0"/>
        <pt x="524" y="221" on="1"/>
        <pt x="572" y="680" on="1"/>
        <pt x="574" y="702" on="0"/>
        <pt x="615" y="702" on="1"/>
        <pt x="623" y="702" on="1"/>
        <pt x="660" y="702" on="0"/>
        <pt x="660" y="680" on="1"/>
        <pt x="612" y="224" on="1"/>
        <pt x="601" y="115" on="0"/>
        <pt x="446" y="-6" on="0"/>
        <pt x="193" y="-6" on="0"/>
        <pt x="64" y="98" on="0"/>
        <pt x="64" y="193" on="1"/>
        <pt x="64" y="203" on="0"/>
        <pt x="114" y="680" on="1"/>
        <pt x="116" y="702" on="0"/>
      </contour>
      <contour>
        <pt x="402" y="906" on="1"/>
        <pt x="427" y="906" on="1"/>
        <pt x="459" y="906" on="0"/>
        <pt x="471" y="884" on="1"/>
        <pt x="518" y="796" on="1"/>
        <pt x="523" y="788" on="0"/>
        <pt x="521" y="764" on="0"/>
        <pt x="476" y="764" on="0"/>
        <pt x="463" y="777" on="1"/>
        <pt x="408" y="851" on="1"/>
        <pt x="339" y="777" on="1"/>
        <pt x="323" y="764" on="0"/>
        <pt x="281" y="764" on="0"/>
        <pt x="281" y="776" on="1"/>
        <pt x="281" y="785" on="0"/>
        <pt x="288" y="796" on="1"/>
        <pt x="354" y="884" on="1"/>
        <pt x="370" y="906" on="0"/>
      </contour>
    </TTGlyph>
    <TTGlyph name="Udieresis" xMin="64" yMin="-6" xMax="660" yMax="882">
      <contour>
        <pt x="157" y="702" on="1"/>
        <pt x="165" y="702" on="1"/>
        <pt x="202" y="702" on="0"/>
        <pt x="202" y="680" on="1"/>
        <pt x="153" y="216" on="0"/>
        <pt x="153" y="206" on="1"/>
        <pt x="153" y="144" on="0"/>
        <pt x="241" y="70" on="0"/>
        <pt x="403" y="70" on="0"/>
        <pt x="517" y="155" on="0"/>
        <pt x="524" y="221" on="1"/>
        <pt x="572" y="680" on="1"/>
        <pt x="574" y="702" on="0"/>
        <pt x="615" y="702" on="1"/>
        <pt x="623" y="702" on="1"/>
        <pt x="660" y="702" on="0"/>
        <pt x="660" y="680" on="1"/>
        <pt x="612" y="224" on="1"/>
        <pt x="601" y="115" on="0"/>
        <pt x="446" y="-6" on="0"/>
        <pt x="193" y="-6" on="0"/>
        <pt x="64" y="98" on="0"/>
        <pt x="64" y="193" on="1"/>
        <pt x="64" y="203" on="0"/>
        <pt x="114" y="680" on="1"/>
        <pt x="116" y="702" on="0"/>
      </contour>
      <contour>
        <pt x="482" y="882" on="1"/>
        <pt x="486" y="882" on="1"/>
        <pt x="524" y="882" on="0"/>
        <pt x="524" y="860" on="1"/>
        <pt x="519" y="809" on="1"/>
        <pt x="516" y="787" on="0"/>
        <pt x="477" y="787" on="1"/>
        <pt x="473" y="787" on="1"/>
        <pt x="435" y="787" on="0"/>
        <pt x="435" y="809" on="1"/>
        <pt x="440" y="860" on="1"/>
        <pt x="442" y="882" on="0"/>
      </contour>
      <contour>
        <pt x="338" y="882" on="1"/>
        <pt x="342" y="882" on="1"/>
        <pt x="380" y="882" on="0"/>
        <pt x="380" y="860" on="1"/>
        <pt x="375" y="809" on="1"/>
        <pt x="372" y="787" on="0"/>
        <pt x="333" y="787" on="1"/>
        <pt x="329" y="787" on="1"/>
        <pt x="291" y="787" on="0"/>
        <pt x="291" y="809" on="1"/>
        <pt x="296" y="860" on="1"/>
        <pt x="299" y="882" on="0"/>
      </contour>
    </TTGlyph>
    <TTGlyph name="Ugrave" xMin="64" yMin="-6" xMax="660" yMax="932">
      <contour>
        <pt x="157" y="702" on="1"/>
        <pt x="165" y="702" on="1"/>
        <pt x="202" y="702" on="0"/>
        <pt x="202" y="680" on="1"/>
        <pt x="153" y="216" on="0"/>
        <pt x="153" y="206" on="1"/>
        <pt x="153" y="144" on="0"/>
        <pt x="241" y="70" on="0"/>
        <pt x="403" y="70" on="0"/>
        <pt x="517" y="155" on="0"/>
        <pt x="524" y="221" on="1"/>
        <pt x="572" y="680" on="1"/>
        <pt x="574" y="702" on="0"/>
        <pt x="615" y="702" on="1"/>
        <pt x="623" y="702" on="1"/>
        <pt x="660" y="702" on="0"/>
        <pt x="660" y="680" on="1"/>
        <pt x="612" y="224" on="1"/>
        <pt x="601" y="115" on="0"/>
        <pt x="446" y="-6" on="0"/>
        <pt x="193" y="-6" on="0"/>
        <pt x="64" y="98" on="0"/>
        <pt x="64" y="193" on="1"/>
        <pt x="64" y="203" on="0"/>
        <pt x="114" y="680" on="1"/>
        <pt x="116" y="702" on="0"/>
      </contour>
      <contour>
        <pt x="474" y="794" on="1"/>
        <pt x="474" y="785" on="0"/>
        <pt x="415" y="785" on="0"/>
        <pt x="400" y="803" on="1"/>
        <pt x="312" y="903" on="0"/>
        <pt x="306" y="916" on="0"/>
        <pt x="306" y="920" on="1"/>
        <pt x="307" y="932" on="0"/>
        <pt x="401" y="932" on="0"/>
        <pt x="416" y="906" on="1"/>
        <pt x="474" y="807" on="0"/>
      </contour>
    </TTGlyph>
    <TTGlyph name="V" xMin="55" yMin="-2" xMax="631" yMax="702">
      <contour>
        <pt x="583" y="702" on="1"/>
        <pt x="589" y="702" on="1"/>
        <pt x="631" y="702" on="0"/>
        <pt x="631" y="686" on="1"/>
        <pt x="631" y="681" on="0"/>
        <pt x="626" y="671" on="1"/>
        <pt x="328" y="14" on="1"/>
        <pt x="321" y="-2" on="0"/>
        <pt x="287" y="-2" on="1"/>
        <pt x="256" y="-2" on="1"/>
        <pt x="221" y="-2" on="0"/>
        <pt x="217" y="14" on="1"/>
        <pt x="55" y="679" on="0"/>
        <pt x="55" y="681" on="1"/>
        <pt x="55" y="702" on="0"/>
        <pt x="100" y="702" on="1"/>
        <pt x="109" y="702" on="1"/>
        <pt x="144" y="702" on="0"/>
        <pt x="148" y="686" on="1"/>
        <pt x="277" y="152" on="1"/>
        <pt x="282" y="100" on="1"/>
        <pt x="301" y="153" on="1"/>
        <pt x="542" y="686" on="1"/>
        <pt x="549" y="702" on="0"/>
      </contour>
    </TTGlyph>
    <TTGlyph name="W" xMin="49" yMin="-2" xMax="902" yMax="702">
      <contour>
        <pt x="614" y="-2" on="1"/>
        <pt x="573" y="-2" on="1"/>
        <pt x="537" y="-2" on="0"/>
        <pt x="534" y="14" on="1"/>
        <pt x="468" y="421" on="1"/>
        <pt x="461" y="551" on="1"/>
        <pt x="426" y="421" on="1"/>
        <pt x="275" y="14" on="1"/>
        <pt x="268" y="-2" on="0"/>
        <pt x="234" y="-2" on="1"/>
        <pt x="193" y="-2" on="1"/>
        <pt x="157" y="-2" on="0"/>
        <pt x="154" y="14" on="1"/>
        <pt x="49" y="682" on="1"/>
        <pt x="49" y="702" on="0"/>
        <pt x="94" y="702" on="1"/>
        <pt x="103" y="702" on="1"/>
        <pt x="139" y="702" on="0"/>
        <pt x="142" y="686" on="1"/>
        <pt x="218" y="194" on="1"/>
        <pt x="226" y="140" on="0"/>
        <pt x="226" y="101" on="1"/>
        <pt x="433" y="685" on="1"/>
        <pt x="438" y="702" on="0"/>
        <pt x="473" y="702" on="1"/>
        <pt x="489" y="702" on="1"/>
        <pt x="524" y="702" on="0"/>
        <pt x="527" y="685" on="1"/>
        <pt x="599" y="193" on="1"/>
        <pt x="606" y="101" on="1"/>
        <pt x="813" y="686" on="1"/>
        <pt x="818" y="702" on="0"/>
        <pt x="854" y="702" on="1"/>
        <pt x="860" y="702" on="1"/>
        <pt x="902" y="702" on="0"/>
        <pt x="902" y="686" on="1"/>
        <pt x="902" y="682" on="0"/>
        <pt x="655" y="14" on="1"/>
        <pt x="650" y="-2" on="0"/>
      </contour>
    </TTGlyph>
    <TTGlyph name="X" xMin="-17" yMin="-2" xMax="600" yMax="702">
      <contour>
        <pt x="35" y="-2" on="1"/>
        <pt x="27" y="-2" on="1"/>
        <pt x="-17" y="-2" on="0"/>
        <pt x="-17" y="14" on="1"/>
        <pt x="-17" y="21" on="0"/>
        <pt x="-7" y="33" on="1"/>
        <pt x="251" y="365" on="1"/>
        <pt x="83" y="667" on="1"/>
        <pt x="77" y="676" on="0"/>
        <pt x="77" y="683" on="1"/>
        <pt x="77" y="702" on="0"/>
        <pt x="124" y="702" on="1"/>
        <pt x="138" y="702" on="1"/>
        <pt x="171" y="702" on="0"/>
        <pt x="180" y="687" on="1"/>
        <pt x="315" y="446" on="1"/>
        <pt x="505" y="688" on="1"/>
        <pt x="515" y="702" on="0"/>
        <pt x="549" y="702" on="1"/>
        <pt x="555" y="702" on="1"/>
        <pt x="600" y="702" on="0"/>
        <pt x="600" y="686" on="1"/>
        <pt x="600" y="681" on="0"/>
        <pt x="590" y="667" on="1"/>
        <pt x="359" y="370" on="1"/>
        <pt x="548" y="33" on="1"/>
        <pt x="554" y="21" on="0"/>
        <pt x="554" y="17" on="1"/>
        <pt x="554" y="-2" on="0"/>
        <pt x="507" y="-2" on="1"/>
        <pt x="491" y="-2" on="1"/>
        <pt x="458" y="-2" on="0"/>
        <pt x="449" y="13" on="1"/>
        <pt x="294" y="288" on="1"/>
        <pt x="79" y="12" on="1"/>
        <pt x="69" y="-2" on="0"/>
      </contour>
    </TTGlyph>
    <TTGlyph name="Y" xMin="53" yMin="-2" xMax="576" yMax="702">
      <contour>
        <pt x="246" y="-2" on="1"/>
        <pt x="238" y="-2" on="1"/>
        <pt x="200" y="-2" on="0"/>
        <pt x="200" y="20" on="1"/>
        <pt x="235" y="359" on="1"/>
        <pt x="59" y="667" on="1"/>
        <pt x="53" y="676" on="0"/>
        <pt x="53" y="683" on="1"/>
        <pt x="53" y="702" on="0"/>
        <pt x="100" y="702" on="1"/>
        <pt x="111" y="702" on="1"/>
        <pt x="144" y="702" on="0"/>
        <pt x="153" y="687" on="1"/>
        <pt x="291" y="441" on="1"/>
        <pt x="485" y="688" on="1"/>
        <pt x="495" y="702" on="0"/>
        <pt x="576" y="702" on="0"/>
        <pt x="576" y="686" on="1"/>
        <pt x="576" y="681" on="0"/>
        <pt x="566" y="667" on="1"/>
        <pt x="323" y="356" on="1"/>
        <pt x="288" y="20" on="1"/>
        <pt x="285" y="-2" on="0"/>
      </contour>
    </TTGlyph>
    <TTGlyph name="Yacute" xMin="53" yMin="-2" xMax="576" yMax="932">
      <contour>
        <pt x="246" y="-2" on="1"/>
        <pt x="238" y="-2" on="1"/>
        <pt x="200" y="-2" on="0"/>
        <pt x="200" y="20" on="1"/>
        <pt x="235" y="359" on="1"/>
        <pt x="59" y="667" on="1"/>
        <pt x="53" y="676" on="0"/>
        <pt x="53" y="683" on="1"/>
        <pt x="53" y="702" on="0"/>
        <pt x="100" y="702" on="1"/>
        <pt x="111" y="702" on="1"/>
        <pt x="144" y="702" on="0"/>
        <pt x="153" y="687" on="1"/>
        <pt x="291" y="441" on="1"/>
        <pt x="485" y="688" on="1"/>
        <pt x="495" y="702" on="0"/>
        <pt x="576" y="702" on="0"/>
        <pt x="576" y="686" on="1"/>
        <pt x="576" y="681" on="0"/>
        <pt x="566" y="667" on="1"/>
        <pt x="323" y="356" on="1"/>
        <pt x="288" y="20" on="1"/>
        <pt x="285" y="-2" on="0"/>
      </contour>
      <contour>
        <pt x="358" y="932" on="0"/>
        <pt x="452" y="932" on="0"/>
        <pt x="452" y="909" on="0"/>
        <pt x="345" y="802" on="1"/>
        <pt x="328" y="785" on="0"/>
        <pt x="271" y="785" on="0"/>
        <pt x="271" y="794" on="1"/>
        <pt x="271" y="806" on="0"/>
        <pt x="340" y="906" on="1"/>
      </contour>
    </TTGlyph>
    <TTGlyph name="Ydieresis" xMin="53" yMin="-2" xMax="576" yMax="882">
      <contour>
        <pt x="246" y="-2" on="1"/>
        <pt x="238" y="-2" on="1"/>
        <pt x="200" y="-2" on="0"/>
        <pt x="200" y="20" on="1"/>
        <pt x="235" y="359" on="1"/>
        <pt x="59" y="667" on="1"/>
        <pt x="53" y="676" on="0"/>
        <pt x="53" y="683" on="1"/>
        <pt x="53" y="702" on="0"/>
        <pt x="100" y="702" on="1"/>
        <pt x="111" y="702" on="1"/>
        <pt x="144" y="702" on="0"/>
        <pt x="153" y="687" on="1"/>
        <pt x="291" y="441" on="1"/>
        <pt x="485" y="688" on="1"/>
        <pt x="495" y="702" on="0"/>
        <pt x="576" y="702" on="0"/>
        <pt x="576" y="686" on="1"/>
        <pt x="576" y="681" on="0"/>
        <pt x="566" y="667" on="1"/>
        <pt x="323" y="356" on="1"/>
        <pt x="288" y="20" on="1"/>
        <pt x="285" y="-2" on="0"/>
      </contour>
      <contour>
        <pt x="408" y="882" on="1"/>
        <pt x="412" y="882" on="1"/>
        <pt x="450" y="882" on="0"/>
        <pt x="450" y="860" on="1"/>
        <pt x="445" y="809" on="1"/>
        <pt x="442" y="787" on="0"/>
        <pt x="403" y="787" on="1"/>
        <pt x="399" y="787" on="1"/>
        <pt x="361" y="787" on="0"/>
        <pt x="361" y="809" on="1"/>
        <pt x="366" y="860" on="1"/>
        <pt x="368" y="882" on="0"/>
      </contour>
      <contour>
        <pt x="264" y="882" on="1"/>
        <pt x="268" y="882" on="1"/>
        <pt x="306" y="882" on="0"/>
        <pt x="306" y="860" on="1"/>
        <pt x="301" y="809" on="1"/>
        <pt x="298" y="787" on="0"/>
        <pt x="259" y="787" on="1"/>
        <pt x="255" y="787" on="1"/>
        <pt x="217" y="787" on="0"/>
        <pt x="217" y="809" on="1"/>
        <pt x="222" y="860" on="1"/>
        <pt x="225" y="882" on="0"/>
      </contour>
    </TTGlyph>
    <TTGlyph name="Z" xMin="6" yMin="0" xMax="602" yMax="700">
      <contour>
        <pt x="513" y="0" on="1"/>
        <pt x="25" y="0" on="1"/>
        <pt x="18" y="0" on="0"/>
        <pt x="6" y="33" on="0"/>
        <pt x="6" y="60" on="0"/>
        <pt x="11" y="65" on="1"/>
        <pt x="479" y="624" on="1"/>
        <pt x="118" y="624" on="1"/>
        <pt x="101" y="624" on="0"/>
        <pt x="101" y="646" on="1"/>
        <pt x="101" y="700" on="0"/>
        <pt x="126" y="700" on="1"/>
        <pt x="585" y="700" on="1"/>
        <pt x="590" y="700" on="0"/>
        <pt x="602" y="667" on="0"/>
        <pt x="602" y="640" on="0"/>
        <pt x="597" y="635" on="1"/>
        <pt x="129" y="76" on="1"/>
        <pt x="521" y="76" on="1"/>
        <pt x="538" y="76" on="0"/>
        <pt x="538" y="54" on="1"/>
        <pt x="538" y="0" on="0"/>
      </contour>
    </TTGlyph>
    <TTGlyph name="Zcaron" xMin="6" yMin="0" xMax="602" yMax="905">
      <contour>
        <pt x="513" y="0" on="1"/>
        <pt x="25" y="0" on="1"/>
        <pt x="18" y="0" on="0"/>
        <pt x="6" y="33" on="0"/>
        <pt x="6" y="60" on="0"/>
        <pt x="11" y="65" on="1"/>
        <pt x="479" y="624" on="1"/>
        <pt x="118" y="624" on="1"/>
        <pt x="101" y="624" on="0"/>
        <pt x="101" y="646" on="1"/>
        <pt x="101" y="700" on="0"/>
        <pt x="126" y="700" on="1"/>
        <pt x="585" y="700" on="1"/>
        <pt x="590" y="700" on="0"/>
        <pt x="602" y="667" on="0"/>
        <pt x="602" y="640" on="0"/>
        <pt x="597" y="635" on="1"/>
        <pt x="129" y="76" on="1"/>
        <pt x="521" y="76" on="1"/>
        <pt x="538" y="76" on="0"/>
        <pt x="538" y="54" on="1"/>
        <pt x="538" y="0" on="0"/>
      </contour>
      <contour>
        <pt x="262" y="873" on="1"/>
        <pt x="257" y="882" on="0"/>
        <pt x="259" y="905" on="0"/>
        <pt x="304" y="905" on="0"/>
        <pt x="317" y="892" on="1"/>
        <pt x="370" y="818" on="1"/>
        <pt x="441" y="892" on="1"/>
        <pt x="457" y="905" on="0"/>
        <pt x="499" y="905" on="0"/>
        <pt x="499" y="891" on="1"/>
        <pt x="499" y="883" on="0"/>
        <pt x="492" y="873" on="1"/>
        <pt x="425" y="785" on="1"/>
        <pt x="409" y="763" on="0"/>
        <pt x="377" y="763" on="1"/>
        <pt x="352" y="763" on="1"/>
        <pt x="320" y="763" on="0"/>
        <pt x="308" y="785" on="1"/>
      </contour>
    </TTGlyph>
    <TTGlyph name="a" xMin="40" yMin="-6" xMax="517" yMax="529">
      <contour>
        <pt x="484" y="66" on="1"/>
        <pt x="511" y="71" on="1"/>
        <pt x="517" y="71" on="0"/>
        <pt x="517" y="49" on="0"/>
        <pt x="510" y="10" on="0"/>
        <pt x="471" y="-6" on="0"/>
        <pt x="453" y="-6" on="1"/>
        <pt x="363" y="-6" on="0"/>
        <pt x="363" y="92" on="1"/>
        <pt x="363" y="102" on="1"/>
        <pt x="306" y="-6" on="0"/>
        <pt x="207" y="-6" on="1"/>
        <pt x="150" y="-6" on="0"/>
        <pt x="100" y="36" on="1"/>
        <pt x="73" y="59" on="0"/>
        <pt x="40" y="148" on="0"/>
        <pt x="40" y="210" on="1"/>
        <pt x="40" y="351" on="0"/>
        <pt x="174" y="529" on="0"/>
        <pt x="285" y="529" on="1"/>
        <pt x="355" y="529" on="0"/>
        <pt x="412" y="475" on="1"/>
        <pt x="418" y="494" on="0"/>
        <pt x="422" y="502" on="1"/>
        <pt x="434" y="525" on="0"/>
        <pt x="457" y="525" on="1"/>
        <pt x="463" y="525" on="1"/>
        <pt x="488" y="525" on="0"/>
        <pt x="488" y="504" on="1"/>
        <pt x="448" y="134" on="0"/>
        <pt x="448" y="92" on="0"/>
        <pt x="454" y="74" on="0"/>
        <pt x="460" y="71" on="1"/>
        <pt x="471" y="66" on="0"/>
      </contour>
      <contour>
        <pt x="293" y="456" on="1"/>
        <pt x="127" y="456" on="0"/>
        <pt x="127" y="216" on="1"/>
        <pt x="127" y="67" on="0"/>
        <pt x="226" y="67" on="1"/>
        <pt x="266" y="67" on="0"/>
        <pt x="348" y="146" on="0"/>
        <pt x="376" y="236" on="1"/>
        <pt x="389" y="367" on="1"/>
        <pt x="391" y="385" on="0"/>
        <pt x="397" y="417" on="1"/>
        <pt x="348" y="456" on="0"/>
      </contour>
    </TTGlyph>
    <TTGlyph name="aacute" xMin="40" yMin="-6" xMax="517" yMax="752">
      <contour>
        <pt x="484" y="66" on="1"/>
        <pt x="511" y="71" on="1"/>
        <pt x="517" y="71" on="0"/>
        <pt x="517" y="49" on="0"/>
        <pt x="510" y="10" on="0"/>
        <pt x="471" y="-6" on="0"/>
        <pt x="453" y="-6" on="1"/>
        <pt x="363" y="-6" on="0"/>
        <pt x="363" y="92" on="1"/>
        <pt x="363" y="102" on="1"/>
        <pt x="306" y="-6" on="0"/>
        <pt x="207" y="-6" on="1"/>
        <pt x="150" y="-6" on="0"/>
        <pt x="100" y="36" on="1"/>
        <pt x="73" y="59" on="0"/>
        <pt x="40" y="148" on="0"/>
        <pt x="40" y="210" on="1"/>
        <pt x="40" y="351" on="0"/>
        <pt x="174" y="529" on="0"/>
        <pt x="285" y="529" on="1"/>
        <pt x="355" y="529" on="0"/>
        <pt x="412" y="475" on="1"/>
        <pt x="418" y="494" on="0"/>
        <pt x="422" y="502" on="1"/>
        <pt x="434" y="525" on="0"/>
        <pt x="457" y="525" on="1"/>
        <pt x="463" y="525" on="1"/>
        <pt x="488" y="525" on="0"/>
        <pt x="488" y="504" on="1"/>
        <pt x="448" y="134" on="0"/>
        <pt x="448" y="92" on="0"/>
        <pt x="454" y="74" on="0"/>
        <pt x="460" y="71" on="1"/>
        <pt x="471" y="66" on="0"/>
      </contour>
      <contour>
        <pt x="293" y="456" on="1"/>
        <pt x="127" y="456" on="0"/>
        <pt x="127" y="216" on="1"/>
        <pt x="127" y="67" on="0"/>
        <pt x="226" y="67" on="1"/>
        <pt x="266" y="67" on="0"/>
        <pt x="348" y="146" on="0"/>
        <pt x="376" y="236" on="1"/>
        <pt x="389" y="367" on="1"/>
        <pt x="391" y="385" on="0"/>
        <pt x="397" y="417" on="1"/>
        <pt x="348" y="456" on="0"/>
      </contour>
      <contour>
        <pt x="323" y="752" on="0"/>
        <pt x="417" y="752" on="0"/>
        <pt x="417" y="729" on="0"/>
        <pt x="310" y="622" on="1"/>
        <pt x="293" y="605" on="0"/>
        <pt x="236" y="605" on="0"/>
        <pt x="236" y="614" on="1"/>
        <pt x="236" y="626" on="0"/>
        <pt x="305" y="726" on="1"/>
      </contour>
    </TTGlyph>
    <TTGlyph name="acircumflex" xMin="40" yMin="-6" xMax="517" yMax="726">
      <contour>
        <pt x="484" y="66" on="1"/>
        <pt x="511" y="71" on="1"/>
        <pt x="517" y="71" on="0"/>
        <pt x="517" y="49" on="0"/>
        <pt x="510" y="10" on="0"/>
        <pt x="471" y="-6" on="0"/>
        <pt x="453" y="-6" on="1"/>
        <pt x="363" y="-6" on="0"/>
        <pt x="363" y="92" on="1"/>
        <pt x="363" y="102" on="1"/>
        <pt x="306" y="-6" on="0"/>
        <pt x="207" y="-6" on="1"/>
        <pt x="150" y="-6" on="0"/>
        <pt x="100" y="36" on="1"/>
        <pt x="73" y="59" on="0"/>
        <pt x="40" y="148" on="0"/>
        <pt x="40" y="210" on="1"/>
        <pt x="40" y="351" on="0"/>
        <pt x="174" y="529" on="0"/>
        <pt x="285" y="529" on="1"/>
        <pt x="355" y="529" on="0"/>
        <pt x="412" y="475" on="1"/>
        <pt x="418" y="494" on="0"/>
        <pt x="422" y="502" on="1"/>
        <pt x="434" y="525" on="0"/>
        <pt x="457" y="525" on="1"/>
        <pt x="463" y="525" on="1"/>
        <pt x="488" y="525" on="0"/>
        <pt x="488" y="504" on="1"/>
        <pt x="448" y="134" on="0"/>
        <pt x="448" y="92" on="0"/>
        <pt x="454" y="74" on="0"/>
        <pt x="460" y="71" on="1"/>
        <pt x="471" y="66" on="0"/>
      </contour>
      <contour>
        <pt x="293" y="456" on="1"/>
        <pt x="127" y="456" on="0"/>
        <pt x="127" y="216" on="1"/>
        <pt x="127" y="67" on="0"/>
        <pt x="226" y="67" on="1"/>
        <pt x="266" y="67" on="0"/>
        <pt x="348" y="146" on="0"/>
        <pt x="376" y="236" on="1"/>
        <pt x="389" y="367" on="1"/>
        <pt x="391" y="385" on="0"/>
        <pt x="397" y="417" on="1"/>
        <pt x="348" y="456" on="0"/>
      </contour>
      <contour>
        <pt x="293" y="726" on="1"/>
        <pt x="318" y="726" on="1"/>
        <pt x="350" y="726" on="0"/>
        <pt x="362" y="704" on="1"/>
        <pt x="409" y="616" on="1"/>
        <pt x="414" y="608" on="0"/>
        <pt x="412" y="584" on="0"/>
        <pt x="367" y="584" on="0"/>
        <pt x="354" y="597" on="1"/>
        <pt x="299" y="671" on="1"/>
        <pt x="230" y="597" on="1"/>
        <pt x="214" y="584" on="0"/>
        <pt x="172" y="584" on="0"/>
        <pt x="172" y="596" on="1"/>
        <pt x="172" y="605" on="0"/>
        <pt x="179" y="616" on="1"/>
        <pt x="245" y="704" on="1"/>
        <pt x="261" y="726" on="0"/>
      </contour>
    </TTGlyph>
    <TTGlyph name="acute" xMin="67" yMin="605" xMax="248" yMax="752">
      <contour>
        <pt x="154" y="752" on="0"/>
        <pt x="248" y="752" on="0"/>
        <pt x="248" y="729" on="0"/>
        <pt x="141" y="622" on="1"/>
        <pt x="124" y="605" on="0"/>
        <pt x="67" y="605" on="0"/>
        <pt x="67" y="614" on="1"/>
        <pt x="67" y="626" on="0"/>
        <pt x="136" y="726" on="1"/>
      </contour>
    </TTGlyph>
    <TTGlyph name="adieresis" xMin="40" yMin="-6" xMax="517" yMax="702">
      <contour>
        <pt x="484" y="66" on="1"/>
        <pt x="511" y="71" on="1"/>
        <pt x="517" y="71" on="0"/>
        <pt x="517" y="49" on="0"/>
        <pt x="510" y="10" on="0"/>
        <pt x="471" y="-6" on="0"/>
        <pt x="453" y="-6" on="1"/>
        <pt x="363" y="-6" on="0"/>
        <pt x="363" y="92" on="1"/>
        <pt x="363" y="102" on="1"/>
        <pt x="306" y="-6" on="0"/>
        <pt x="207" y="-6" on="1"/>
        <pt x="150" y="-6" on="0"/>
        <pt x="100" y="36" on="1"/>
        <pt x="73" y="59" on="0"/>
        <pt x="40" y="148" on="0"/>
        <pt x="40" y="210" on="1"/>
        <pt x="40" y="351" on="0"/>
        <pt x="174" y="529" on="0"/>
        <pt x="285" y="529" on="1"/>
        <pt x="355" y="529" on="0"/>
        <pt x="412" y="475" on="1"/>
        <pt x="418" y="494" on="0"/>
        <pt x="422" y="502" on="1"/>
        <pt x="434" y="525" on="0"/>
        <pt x="457" y="525" on="1"/>
        <pt x="463" y="525" on="1"/>
        <pt x="488" y="525" on="0"/>
        <pt x="488" y="504" on="1"/>
        <pt x="448" y="134" on="0"/>
        <pt x="448" y="92" on="0"/>
        <pt x="454" y="74" on="0"/>
        <pt x="460" y="71" on="1"/>
        <pt x="471" y="66" on="0"/>
      </contour>
      <contour>
        <pt x="293" y="456" on="1"/>
        <pt x="127" y="456" on="0"/>
        <pt x="127" y="216" on="1"/>
        <pt x="127" y="67" on="0"/>
        <pt x="226" y="67" on="1"/>
        <pt x="266" y="67" on="0"/>
        <pt x="348" y="146" on="0"/>
        <pt x="376" y="236" on="1"/>
        <pt x="389" y="367" on="1"/>
        <pt x="391" y="385" on="0"/>
        <pt x="397" y="417" on="1"/>
        <pt x="348" y="456" on="0"/>
      </contour>
      <contour>
        <pt x="373" y="702" on="1"/>
        <pt x="377" y="702" on="1"/>
        <pt x="415" y="702" on="0"/>
        <pt x="415" y="680" on="1"/>
        <pt x="410" y="629" on="1"/>
        <pt x="407" y="607" on="0"/>
        <pt x="368" y="607" on="1"/>
        <pt x="364" y="607" on="1"/>
        <pt x="326" y="607" on="0"/>
        <pt x="326" y="629" on="1"/>
        <pt x="331" y="680" on="1"/>
        <pt x="333" y="702" on="0"/>
      </contour>
      <contour>
        <pt x="229" y="702" on="1"/>
        <pt x="233" y="702" on="1"/>
        <pt x="271" y="702" on="0"/>
        <pt x="271" y="680" on="1"/>
        <pt x="266" y="629" on="1"/>
        <pt x="263" y="607" on="0"/>
        <pt x="224" y="607" on="1"/>
        <pt x="220" y="607" on="1"/>
        <pt x="182" y="607" on="0"/>
        <pt x="182" y="629" on="1"/>
        <pt x="187" y="680" on="1"/>
        <pt x="190" y="702" on="0"/>
      </contour>
    </TTGlyph>
    <TTGlyph name="ae" xMin="29" yMin="-6" xMax="774" yMax="529">
      <contour>
        <pt x="694" y="102" on="1"/>
        <pt x="715" y="115" on="0"/>
        <pt x="719" y="115" on="1"/>
        <pt x="726" y="115" on="0"/>
        <pt x="726" y="84" on="0"/>
        <pt x="721" y="58" on="1"/>
        <pt x="715" y="27" on="0"/>
        <pt x="603" y="-6" on="0"/>
        <pt x="557" y="-6" on="1"/>
        <pt x="431" y="-6" on="0"/>
        <pt x="375" y="58" on="1"/>
        <pt x="340" y="30" on="0"/>
        <pt x="235" y="-6" on="0"/>
        <pt x="114" y="-6" on="0"/>
        <pt x="29" y="59" on="0"/>
        <pt x="29" y="176" on="0"/>
        <pt x="82" y="247" on="0"/>
        <pt x="131" y="264" on="1"/>
        <pt x="212" y="292" on="0"/>
        <pt x="339" y="296" on="1"/>
        <pt x="351" y="362" on="0"/>
        <pt x="383" y="414" on="1"/>
        <pt x="362" y="457" on="0"/>
        <pt x="285" y="457" on="1"/>
        <pt x="213" y="457" on="0"/>
        <pt x="148" y="426" on="1"/>
        <pt x="127" y="415" on="0"/>
        <pt x="125" y="415" on="1"/>
        <pt x="115" y="415" on="0"/>
        <pt x="95" y="453" on="0"/>
        <pt x="95" y="464" on="1"/>
        <pt x="95" y="485" on="0"/>
        <pt x="218" y="529" on="0"/>
        <pt x="290" y="529" on="1"/>
        <pt x="394" y="529" on="0"/>
        <pt x="440" y="478" on="1"/>
        <pt x="507" y="529" on="0"/>
        <pt x="692" y="529" on="0"/>
        <pt x="774" y="446" on="0"/>
        <pt x="774" y="349" on="0"/>
        <pt x="729" y="280" on="0"/>
        <pt x="690" y="262" on="1"/>
        <pt x="614" y="226" on="0"/>
        <pt x="504" y="226" on="1"/>
        <pt x="418" y="226" on="1"/>
        <pt x="418" y="210" on="1"/>
        <pt x="418" y="131" on="0"/>
        <pt x="493" y="66" on="0"/>
        <pt x="635" y="66" on="0"/>
      </contour>
      <contour>
        <pt x="597" y="457" on="1"/>
        <pt x="454" y="457" on="0"/>
        <pt x="425" y="298" on="1"/>
        <pt x="494" y="298" on="1"/>
        <pt x="537" y="298" on="0"/>
        <pt x="587" y="308" on="1"/>
        <pt x="687" y="328" on="0"/>
        <pt x="687" y="388" on="1"/>
        <pt x="687" y="420" on="0"/>
        <pt x="639" y="457" on="0"/>
      </contour>
      <contour>
        <pt x="331" y="201" on="1"/>
        <pt x="331" y="226" on="1"/>
        <pt x="120" y="226" on="0"/>
        <pt x="120" y="132" on="1"/>
        <pt x="120" y="67" on="0"/>
        <pt x="270" y="67" on="0"/>
        <pt x="343" y="117" on="1"/>
        <pt x="331" y="153" on="0"/>
      </contour>
    </TTGlyph>
    <TTGlyph name="agrave" xMin="40" yMin="-6" xMax="517" yMax="752">
      <contour>
        <pt x="484" y="66" on="1"/>
        <pt x="511" y="71" on="1"/>
        <pt x="517" y="71" on="0"/>
        <pt x="517" y="49" on="0"/>
        <pt x="510" y="10" on="0"/>
        <pt x="471" y="-6" on="0"/>
        <pt x="453" y="-6" on="1"/>
        <pt x="363" y="-6" on="0"/>
        <pt x="363" y="92" on="1"/>
        <pt x="363" y="102" on="1"/>
        <pt x="306" y="-6" on="0"/>
        <pt x="207" y="-6" on="1"/>
        <pt x="150" y="-6" on="0"/>
        <pt x="100" y="36" on="1"/>
        <pt x="73" y="59" on="0"/>
        <pt x="40" y="148" on="0"/>
        <pt x="40" y="210" on="1"/>
        <pt x="40" y="351" on="0"/>
        <pt x="174" y="529" on="0"/>
        <pt x="285" y="529" on="1"/>
        <pt x="355" y="529" on="0"/>
        <pt x="412" y="475" on="1"/>
        <pt x="418" y="494" on="0"/>
        <pt x="422" y="502" on="1"/>
        <pt x="434" y="525" on="0"/>
        <pt x="457" y="525" on="1"/>
        <pt x="463" y="525" on="1"/>
        <pt x="488" y="525" on="0"/>
        <pt x="488" y="504" on="1"/>
        <pt x="448" y="134" on="0"/>
        <pt x="448" y="92" on="0"/>
        <pt x="454" y="74" on="0"/>
        <pt x="460" y="71" on="1"/>
        <pt x="471" y="66" on="0"/>
      </contour>
      <contour>
        <pt x="293" y="456" on="1"/>
        <pt x="127" y="456" on="0"/>
        <pt x="127" y="216" on="1"/>
        <pt x="127" y="67" on="0"/>
        <pt x="226" y="67" on="1"/>
        <pt x="266" y="67" on="0"/>
        <pt x="348" y="146" on="0"/>
        <pt x="376" y="236" on="1"/>
        <pt x="389" y="367" on="1"/>
        <pt x="391" y="385" on="0"/>
        <pt x="397" y="417" on="1"/>
        <pt x="348" y="456" on="0"/>
      </contour>
      <contour>
        <pt x="365" y="614" on="1"/>
        <pt x="365" y="605" on="0"/>
        <pt x="306" y="605" on="0"/>
        <pt x="291" y="623" on="1"/>
        <pt x="203" y="723" on="0"/>
        <pt x="197" y="736" on="0"/>
        <pt x="197" y="740" on="1"/>
        <pt x="198" y="752" on="0"/>
        <pt x="292" y="752" on="0"/>
        <pt x="307" y="726" on="1"/>
        <pt x="365" y="627" on="0"/>
      </contour>
    </TTGlyph>
    <TTGlyph name="ampersand" xMin="32" yMin="-6" xMax="599" yMax="706">
      <contour>
        <pt x="467" y="535" on="1"/>
        <pt x="471" y="535" on="1"/>
        <pt x="509" y="535" on="0"/>
        <pt x="509" y="513" on="1"/>
        <pt x="498" y="408" on="1"/>
        <pt x="583" y="408" on="1"/>
        <pt x="599" y="408" on="0"/>
        <pt x="599" y="389" on="1"/>
        <pt x="599" y="369" on="0"/>
        <pt x="571" y="336" on="0"/>
        <pt x="554" y="336" on="1"/>
        <pt x="490" y="336" on="1"/>
        <pt x="469" y="143" on="0"/>
        <pt x="469" y="123" on="1"/>
        <pt x="469" y="66" on="0"/>
        <pt x="517" y="66" on="1"/>
        <pt x="536" y="66" on="0"/>
        <pt x="549" y="70" on="1"/>
        <pt x="562" y="73" on="1"/>
        <pt x="569" y="73" on="0"/>
        <pt x="569" y="64" on="1"/>
        <pt x="569" y="-6" on="0"/>
        <pt x="427" y="-6" on="0"/>
        <pt x="400" y="36" on="1"/>
        <pt x="326" y="-6" on="0"/>
        <pt x="235" y="-6" on="1"/>
        <pt x="122" y="-6" on="0"/>
        <pt x="64" y="70" on="1"/>
        <pt x="32" y="112" on="0"/>
        <pt x="32" y="259" on="0"/>
        <pt x="122" y="372" on="0"/>
        <pt x="179" y="387" on="1"/>
        <pt x="180" y="391" on="1"/>
        <pt x="140" y="407" on="0"/>
        <pt x="91" y="474" on="0"/>
        <pt x="91" y="520" on="1"/>
        <pt x="91" y="610" on="0"/>
        <pt x="217" y="706" on="0"/>
        <pt x="391" y="706" on="0"/>
        <pt x="391" y="679" on="1"/>
        <pt x="391" y="667" on="0"/>
        <pt x="372" y="628" on="0"/>
        <pt x="364" y="628" on="1"/>
        <pt x="363" y="628" on="0"/>
        <pt x="327" y="634" on="0"/>
        <pt x="266" y="634" on="0"/>
        <pt x="209" y="608" on="0"/>
        <pt x="196" y="588" on="1"/>
        <pt x="174" y="551" on="0"/>
        <pt x="174" y="475" on="0"/>
        <pt x="235" y="408" on="0"/>
        <pt x="297" y="408" on="1"/>
        <pt x="414" y="408" on="1"/>
        <pt x="426" y="513" on="1"/>
        <pt x="429" y="535" on="0"/>
      </contour>
      <contour>
        <pt x="285" y="336" on="1"/>
        <pt x="120" y="336" on="0"/>
        <pt x="120" y="184" on="1"/>
        <pt x="120" y="121" on="0"/>
        <pt x="199" y="66" on="0"/>
        <pt x="320" y="66" on="0"/>
        <pt x="384" y="103" on="1"/>
        <pt x="406" y="336" on="1"/>
      </contour>
    </TTGlyph>
    <TTGlyph name="approxequal" xMin="70" yMin="99" xMax="476" yMax="363">
      <contour>
        <pt x="87" y="311" on="1"/>
        <pt x="87" y="328" on="0"/>
        <pt x="167" y="363" on="0"/>
        <pt x="254" y="363" on="0"/>
        <pt x="362" y="337" on="0"/>
        <pt x="400" y="337" on="0"/>
        <pt x="442" y="348" on="0"/>
        <pt x="458" y="348" on="0"/>
        <pt x="476" y="330" on="0"/>
        <pt x="476" y="316" on="1"/>
        <pt x="476" y="298" on="0"/>
        <pt x="396" y="263" on="0"/>
        <pt x="308" y="263" on="0"/>
        <pt x="201" y="289" on="0"/>
        <pt x="163" y="289" on="0"/>
        <pt x="121" y="278" on="0"/>
        <pt x="116" y="278" on="1"/>
        <pt x="101" y="278" on="0"/>
        <pt x="87" y="304" on="0"/>
      </contour>
      <contour>
        <pt x="70" y="147" on="1"/>
        <pt x="70" y="164" on="0"/>
        <pt x="150" y="199" on="0"/>
        <pt x="237" y="199" on="0"/>
        <pt x="345" y="173" on="0"/>
        <pt x="383" y="173" on="0"/>
        <pt x="425" y="184" on="0"/>
        <pt x="441" y="184" on="0"/>
        <pt x="459" y="166" on="0"/>
        <pt x="459" y="152" on="1"/>
        <pt x="459" y="134" on="0"/>
        <pt x="379" y="99" on="0"/>
        <pt x="291" y="99" on="0"/>
        <pt x="184" y="125" on="0"/>
        <pt x="146" y="125" on="0"/>
        <pt x="104" y="114" on="0"/>
        <pt x="99" y="114" on="1"/>
        <pt x="84" y="114" on="0"/>
        <pt x="70" y="140" on="0"/>
      </contour>
    </TTGlyph>
    <TTGlyph name="aring" xMin="40" yMin="-6" xMax="517" yMax="733">
      <contour>
        <pt x="484" y="66" on="1"/>
        <pt x="511" y="71" on="1"/>
        <pt x="517" y="71" on="0"/>
        <pt x="517" y="49" on="0"/>
        <pt x="510" y="10" on="0"/>
        <pt x="471" y="-6" on="0"/>
        <pt x="453" y="-6" on="1"/>
        <pt x="363" y="-6" on="0"/>
        <pt x="363" y="92" on="1"/>
        <pt x="363" y="102" on="1"/>
        <pt x="306" y="-6" on="0"/>
        <pt x="207" y="-6" on="1"/>
        <pt x="150" y="-6" on="0"/>
        <pt x="100" y="36" on="1"/>
        <pt x="73" y="59" on="0"/>
        <pt x="40" y="148" on="0"/>
        <pt x="40" y="210" on="1"/>
        <pt x="40" y="351" on="0"/>
        <pt x="174" y="529" on="0"/>
        <pt x="285" y="529" on="1"/>
        <pt x="355" y="529" on="0"/>
        <pt x="412" y="475" on="1"/>
        <pt x="418" y="494" on="0"/>
        <pt x="422" y="502" on="1"/>
        <pt x="434" y="525" on="0"/>
        <pt x="457" y="525" on="1"/>
        <pt x="463" y="525" on="1"/>
        <pt x="488" y="525" on="0"/>
        <pt x="488" y="504" on="1"/>
        <pt x="448" y="134" on="0"/>
        <pt x="448" y="92" on="0"/>
        <pt x="454" y="74" on="0"/>
        <pt x="460" y="71" on="1"/>
        <pt x="471" y="66" on="0"/>
      </contour>
      <contour>
        <pt x="293" y="456" on="1"/>
        <pt x="127" y="456" on="0"/>
        <pt x="127" y="216" on="1"/>
        <pt x="127" y="67" on="0"/>
        <pt x="226" y="67" on="1"/>
        <pt x="266" y="67" on="0"/>
        <pt x="348" y="146" on="0"/>
        <pt x="376" y="236" on="1"/>
        <pt x="389" y="367" on="1"/>
        <pt x="391" y="385" on="0"/>
        <pt x="397" y="417" on="1"/>
        <pt x="348" y="456" on="0"/>
      </contour>
      <contour>
        <pt x="383" y="619" on="0"/>
        <pt x="328" y="564" on="0"/>
        <pt x="257" y="564" on="0"/>
        <pt x="214" y="607" on="0"/>
        <pt x="214" y="678" on="0"/>
        <pt x="270" y="733" on="0"/>
        <pt x="340" y="733" on="0"/>
        <pt x="383" y="689" on="0"/>
      </contour>
      <contour>
        <pt x="249" y="624" on="0"/>
        <pt x="273" y="599" on="0"/>
        <pt x="316" y="599" on="0"/>
        <pt x="348" y="631" on="0"/>
        <pt x="348" y="673" on="0"/>
        <pt x="323" y="698" on="0"/>
        <pt x="282" y="698" on="0"/>
        <pt x="249" y="666" on="0"/>
      </contour>
    </TTGlyph>
    <TTGlyph name="arrowdown" xMin="3" yMin="0" xMax="537" yMax="712">
      <contour>
        <pt x="13" y="364" on="0"/>
        <pt x="3" y="364" on="0"/>
        <pt x="3" y="383" on="1"/>
        <pt x="9" y="438" on="1"/>
        <pt x="12" y="458" on="0"/>
        <pt x="27" y="472" on="1"/>
        <pt x="283" y="705" on="1"/>
        <pt x="291" y="712" on="0"/>
        <pt x="300" y="712" on="1"/>
        <pt x="304" y="712" on="1"/>
        <pt x="313" y="712" on="0"/>
        <pt x="319" y="705" on="1"/>
        <pt x="528" y="471" on="1"/>
        <pt x="537" y="461" on="0"/>
        <pt x="537" y="437" on="1"/>
        <pt x="531" y="382" on="1"/>
        <pt x="529" y="363" on="0"/>
        <pt x="523" y="363" on="1"/>
        <pt x="520" y="363" on="0"/>
        <pt x="510" y="373" on="1"/>
        <pt x="324" y="586" on="1"/>
        <pt x="264" y="22" on="1"/>
        <pt x="262" y="0" on="0"/>
        <pt x="232" y="0" on="1"/>
        <pt x="222" y="0" on="1"/>
        <pt x="194" y="0" on="0"/>
        <pt x="194" y="22" on="1"/>
        <pt x="254" y="586" on="1"/>
        <pt x="23" y="374" on="1"/>
      </contour>
    </TTGlyph>
    <TTGlyph name="arrowleft" xMin="0" yMin="1" xMax="751" yMax="530">
      <contour>
        <pt x="732" y="301" on="1"/>
        <pt x="751" y="301" on="0"/>
        <pt x="751" y="231" on="0"/>
        <pt x="725" y="231" on="1"/>
        <pt x="122" y="231" on="1"/>
        <pt x="313" y="22" on="1"/>
        <pt x="321" y="12" on="0"/>
        <pt x="321" y="9" on="1"/>
        <pt x="321" y="1" on="0"/>
        <pt x="302" y="1" on="1"/>
        <pt x="247" y="1" on="1"/>
        <pt x="227" y="1" on="0"/>
        <pt x="214" y="15" on="1"/>
        <pt x="5" y="248" on="1"/>
        <pt x="0" y="253" on="0"/>
        <pt x="0" y="264" on="1"/>
        <pt x="0" y="268" on="1"/>
        <pt x="0" y="276" on="0"/>
        <pt x="8" y="284" on="1"/>
        <pt x="266" y="516" on="1"/>
        <pt x="281" y="530" on="0"/>
        <pt x="301" y="530" on="1"/>
        <pt x="356" y="530" on="1"/>
        <pt x="375" y="530" on="0"/>
        <pt x="375" y="523" on="1"/>
        <pt x="373" y="518" on="0"/>
        <pt x="363" y="509" on="1"/>
        <pt x="129" y="301" on="1"/>
      </contour>
    </TTGlyph>
    <TTGlyph name="arrowright" xMin="-1" yMin="1" xMax="750" yMax="530">
      <contour>
        <pt x="18" y="230" on="1"/>
        <pt x="-1" y="230" on="0"/>
        <pt x="-1" y="300" on="0"/>
        <pt x="25" y="300" on="1"/>
        <pt x="628" y="300" on="1"/>
        <pt x="437" y="509" on="1"/>
        <pt x="429" y="519" on="0"/>
        <pt x="429" y="522" on="1"/>
        <pt x="429" y="530" on="0"/>
        <pt x="448" y="530" on="1"/>
        <pt x="503" y="530" on="1"/>
        <pt x="523" y="530" on="0"/>
        <pt x="536" y="516" on="1"/>
        <pt x="745" y="283" on="1"/>
        <pt x="750" y="278" on="0"/>
        <pt x="750" y="267" on="1"/>
        <pt x="750" y="263" on="1"/>
        <pt x="750" y="255" on="0"/>
        <pt x="742" y="247" on="1"/>
        <pt x="484" y="15" on="1"/>
        <pt x="469" y="1" on="0"/>
        <pt x="449" y="1" on="1"/>
        <pt x="394" y="1" on="1"/>
        <pt x="375" y="1" on="0"/>
        <pt x="375" y="8" on="1"/>
        <pt x="377" y="13" on="0"/>
        <pt x="387" y="22" on="1"/>
        <pt x="621" y="230" on="1"/>
      </contour>
    </TTGlyph>
    <TTGlyph name="arrowup" xMin="-9" yMin="0" xMax="525" yMax="712">
      <contour>
        <pt x="515" y="348" on="0"/>
        <pt x="525" y="348" on="0"/>
        <pt x="525" y="329" on="1"/>
        <pt x="519" y="274" on="1"/>
        <pt x="516" y="254" on="0"/>
        <pt x="501" y="240" on="1"/>
        <pt x="245" y="7" on="1"/>
        <pt x="237" y="0" on="0"/>
        <pt x="228" y="0" on="1"/>
        <pt x="224" y="0" on="1"/>
        <pt x="215" y="0" on="0"/>
        <pt x="209" y="7" on="1"/>
        <pt x="0" y="241" on="1"/>
        <pt x="-9" y="251" on="0"/>
        <pt x="-9" y="275" on="1"/>
        <pt x="-3" y="330" on="1"/>
        <pt x="-1" y="349" on="0"/>
        <pt x="5" y="349" on="1"/>
        <pt x="8" y="349" on="0"/>
        <pt x="18" y="339" on="1"/>
        <pt x="204" y="126" on="1"/>
        <pt x="264" y="690" on="1"/>
        <pt x="266" y="712" on="0"/>
        <pt x="296" y="712" on="1"/>
        <pt x="306" y="712" on="1"/>
        <pt x="334" y="712" on="0"/>
        <pt x="334" y="690" on="1"/>
        <pt x="274" y="126" on="1"/>
        <pt x="505" y="338" on="1"/>
      </contour>
    </TTGlyph>
    <TTGlyph name="asciicircum" xMin="36" yMin="320" xMax="380" yMax="684">
      <contour>
        <pt x="234" y="684" on="1"/>
        <pt x="254" y="684" on="1"/>
        <pt x="278" y="684" on="0"/>
        <pt x="286" y="664" on="1"/>
        <pt x="378" y="355" on="1"/>
        <pt x="380" y="350" on="0"/>
        <pt x="380" y="341" on="1"/>
        <pt x="377" y="320" on="0"/>
        <pt x="350" y="320" on="1"/>
        <pt x="346" y="320" on="1"/>
        <pt x="321" y="320" on="0"/>
        <pt x="314" y="343" on="1"/>
        <pt x="235" y="604" on="1"/>
        <pt x="101" y="343" on="1"/>
        <pt x="88" y="320" on="0"/>
        <pt x="64" y="320" on="1"/>
        <pt x="60" y="320" on="1"/>
        <pt x="36" y="320" on="0"/>
        <pt x="36" y="337" on="1"/>
        <pt x="36" y="346" on="0"/>
        <pt x="40" y="355" on="1"/>
        <pt x="198" y="664" on="1"/>
        <pt x="209" y="684" on="0"/>
      </contour>
    </TTGlyph>
    <TTGlyph name="asciitilde" xMin="79" yMin="215" xMax="468" yMax="315">
      <contour>
        <pt x="79" y="263" on="1"/>
        <pt x="79" y="280" on="0"/>
        <pt x="159" y="315" on="0"/>
        <pt x="246" y="315" on="0"/>
        <pt x="354" y="289" on="0"/>
        <pt x="392" y="289" on="0"/>
        <pt x="434" y="300" on="0"/>
        <pt x="450" y="300" on="0"/>
        <pt x="468" y="282" on="0"/>
        <pt x="468" y="268" on="1"/>
        <pt x="468" y="250" on="0"/>
        <pt x="388" y="215" on="0"/>
        <pt x="300" y="215" on="0"/>
        <pt x="193" y="241" on="0"/>
        <pt x="155" y="241" on="0"/>
        <pt x="113" y="230" on="0"/>
        <pt x="108" y="230" on="1"/>
        <pt x="93" y="230" on="0"/>
        <pt x="79" y="256" on="0"/>
      </contour>
    </TTGlyph>
    <TTGlyph name="asterisk" xMin="38" yMin="414" xMax="330" yMax="709">
      <contour>
        <pt x="57" y="424" on="0"/>
        <pt x="57" y="440" on="0"/>
        <pt x="63" y="447" on="1"/>
        <pt x="145" y="546" on="1"/>
        <pt x="50" y="578" on="1"/>
        <pt x="38" y="582" on="0"/>
        <pt x="38" y="602" on="0"/>
        <pt x="51" y="617" on="0"/>
        <pt x="64" y="617" on="0"/>
        <pt x="67" y="616" on="1"/>
        <pt x="163" y="584" on="1"/>
        <pt x="174" y="689" on="1"/>
        <pt x="175" y="709" on="0"/>
        <pt x="196" y="709" on="1"/>
        <pt x="214" y="709" on="0"/>
        <pt x="214" y="689" on="1"/>
        <pt x="203" y="584" on="1"/>
        <pt x="305" y="616" on="1"/>
        <pt x="308" y="617" on="0"/>
        <pt x="320" y="617" on="0"/>
        <pt x="330" y="606" on="0"/>
        <pt x="330" y="582" on="0"/>
        <pt x="314" y="578" on="1"/>
        <pt x="212" y="546" on="1"/>
        <pt x="273" y="447" on="1"/>
        <pt x="277" y="439" on="0"/>
        <pt x="277" y="429" on="0"/>
        <pt x="260" y="414" on="0"/>
        <pt x="244" y="414" on="0"/>
        <pt x="239" y="423" on="1"/>
        <pt x="177" y="524" on="1"/>
        <pt x="93" y="423" on="1"/>
        <pt x="84" y="414" on="0"/>
        <pt x="70" y="414" on="0"/>
        <pt x="65" y="419" on="1"/>
      </contour>
    </TTGlyph>
    <TTGlyph name="at" xMin="84" yMin="-126" xMax="867" yMax="705">
      <contour>
        <pt x="410" y="-82" on="1"/>
        <pt x="482" y="-82" on="0"/>
        <pt x="540" y="-58" on="1"/>
        <pt x="560" y="-49" on="0"/>
        <pt x="564" y="-49" on="1"/>
        <pt x="571" y="-49" on="0"/>
        <pt x="564" y="-78" on="1"/>
        <pt x="558" y="-101" on="0"/>
        <pt x="466" y="-126" on="0"/>
        <pt x="410" y="-126" on="1"/>
        <pt x="265" y="-126" on="0"/>
        <pt x="84" y="75" on="0"/>
        <pt x="84" y="237" on="1"/>
        <pt x="84" y="434" on="0"/>
        <pt x="344" y="705" on="0"/>
        <pt x="534" y="705" on="1"/>
        <pt x="685" y="705" on="0"/>
        <pt x="867" y="527" on="0"/>
        <pt x="867" y="242" on="0"/>
        <pt x="749" y="54" on="0"/>
        <pt x="657" y="54" on="1"/>
        <pt x="612" y="54" on="0"/>
        <pt x="560" y="102" on="0"/>
        <pt x="558" y="137" on="1"/>
        <pt x="558" y="144" on="1"/>
        <pt x="509" y="54" on="0"/>
        <pt x="423" y="54" on="1"/>
        <pt x="375" y="54" on="0"/>
        <pt x="330" y="90" on="1"/>
        <pt x="306" y="108" on="0"/>
        <pt x="278" y="184" on="0"/>
        <pt x="278" y="236" on="1"/>
        <pt x="278" y="355" on="0"/>
        <pt x="394" y="505" on="0"/>
        <pt x="489" y="505" on="1"/>
        <pt x="553" y="505" on="0"/>
        <pt x="600" y="458" on="1"/>
        <pt x="609" y="486" on="0"/>
        <pt x="614" y="493" on="1"/>
        <pt x="620" y="502" on="0"/>
        <pt x="635" y="502" on="1"/>
        <pt x="641" y="502" on="1"/>
        <pt x="663" y="502" on="0"/>
        <pt x="663" y="481" on="1"/>
        <pt x="630" y="173" on="0"/>
        <pt x="630" y="149" on="1"/>
        <pt x="630" y="107" on="0"/>
        <pt x="670" y="107" on="1"/>
        <pt x="726" y="107" on="0"/>
        <pt x="813" y="272" on="0"/>
        <pt x="813" y="380" on="1"/>
        <pt x="813" y="507" on="0"/>
        <pt x="659" y="661" on="0"/>
        <pt x="534" y="661" on="1"/>
        <pt x="367" y="661" on="0"/>
        <pt x="138" y="415" on="0"/>
        <pt x="138" y="237" on="1"/>
        <pt x="138" y="95" on="0"/>
        <pt x="288" y="-82" on="0"/>
      </contour>
      <contour>
        <pt x="439" y="115" on="1"/>
        <pt x="473" y="115" on="0"/>
        <pt x="543" y="181" on="0"/>
        <pt x="568" y="256" on="1"/>
        <pt x="581" y="390" on="0"/>
        <pt x="587" y="409" on="1"/>
        <pt x="546" y="443" on="0"/>
        <pt x="495" y="443" on="1"/>
        <pt x="351" y="443" on="0"/>
        <pt x="351" y="241" on="1"/>
        <pt x="351" y="115" on="0"/>
      </contour>
    </TTGlyph>
    <TTGlyph name="atilde" xMin="40" yMin="-6" xMax="517" yMax="708">
      <contour>
        <pt x="484" y="66" on="1"/>
        <pt x="511" y="71" on="1"/>
        <pt x="517" y="71" on="0"/>
        <pt x="517" y="49" on="0"/>
        <pt x="510" y="10" on="0"/>
        <pt x="471" y="-6" on="0"/>
        <pt x="453" y="-6" on="1"/>
        <pt x="363" y="-6" on="0"/>
        <pt x="363" y="92" on="1"/>
        <pt x="363" y="102" on="1"/>
        <pt x="306" y="-6" on="0"/>
        <pt x="207" y="-6" on="1"/>
        <pt x="150" y="-6" on="0"/>
        <pt x="100" y="36" on="1"/>
        <pt x="73" y="59" on="0"/>
        <pt x="40" y="148" on="0"/>
        <pt x="40" y="210" on="1"/>
        <pt x="40" y="351" on="0"/>
        <pt x="174" y="529" on="0"/>
        <pt x="285" y="529" on="1"/>
        <pt x="355" y="529" on="0"/>
        <pt x="412" y="475" on="1"/>
        <pt x="418" y="494" on="0"/>
        <pt x="422" y="502" on="1"/>
        <pt x="434" y="525" on="0"/>
        <pt x="457" y="525" on="1"/>
        <pt x="463" y="525" on="1"/>
        <pt x="488" y="525" on="0"/>
        <pt x="488" y="504" on="1"/>
        <pt x="448" y="134" on="0"/>
        <pt x="448" y="92" on="0"/>
        <pt x="454" y="74" on="0"/>
        <pt x="460" y="71" on="1"/>
        <pt x="471" y="66" on="0"/>
      </contour>
      <contour>
        <pt x="293" y="456" on="1"/>
        <pt x="127" y="456" on="0"/>
        <pt x="127" y="216" on="1"/>
        <pt x="127" y="67" on="0"/>
        <pt x="226" y="67" on="1"/>
        <pt x="266" y="67" on="0"/>
        <pt x="348" y="146" on="0"/>
        <pt x="376" y="236" on="1"/>
        <pt x="389" y="367" on="1"/>
        <pt x="391" y="385" on="0"/>
        <pt x="397" y="417" on="1"/>
        <pt x="348" y="456" on="0"/>
      </contour>
      <contour>
        <pt x="458" y="653" on="0"/>
        <pt x="395" y="615" on="0"/>
        <pt x="324" y="615" on="0"/>
        <pt x="239" y="635" on="0"/>
        <pt x="209" y="635" on="0"/>
        <pt x="178" y="622" on="0"/>
        <pt x="158" y="622" on="0"/>
        <pt x="140" y="643" on="0"/>
        <pt x="140" y="652" on="1"/>
        <pt x="140" y="671" on="0"/>
        <pt x="208" y="708" on="0"/>
        <pt x="276" y="708" on="0"/>
        <pt x="357" y="688" on="0"/>
        <pt x="389" y="688" on="0"/>
        <pt x="420" y="701" on="0"/>
        <pt x="439" y="701" on="0"/>
        <pt x="458" y="679" on="0"/>
        <pt x="458" y="671" on="1"/>
      </contour>
    </TTGlyph>
    <TTGlyph name="b" xMin="38" yMin="-6" xMax="511" yMax="752">
      <contour>
        <pt x="155" y="752" on="1"/>
        <pt x="159" y="752" on="1"/>
        <pt x="197" y="752" on="0"/>
        <pt x="197" y="730" on="1"/>
        <pt x="165" y="425" on="1"/>
        <pt x="224" y="529" on="0"/>
        <pt x="324" y="529" on="1"/>
        <pt x="387" y="529" on="0"/>
        <pt x="444" y="488" on="1"/>
        <pt x="474" y="467" on="0"/>
        <pt x="511" y="378" on="0"/>
        <pt x="511" y="316" on="1"/>
        <pt x="511" y="175" on="0"/>
        <pt x="365" y="-6" on="0"/>
        <pt x="246" y="-6" on="1"/>
        <pt x="169" y="-6" on="0"/>
        <pt x="113" y="48" on="1"/>
        <pt x="99" y="-2" on="0"/>
        <pt x="71" y="-2" on="1"/>
        <pt x="63" y="-2" on="1"/>
        <pt x="38" y="-2" on="0"/>
        <pt x="38" y="20" on="1"/>
        <pt x="113" y="730" on="1"/>
        <pt x="116" y="752" on="0"/>
      </contour>
      <contour>
        <pt x="129" y="106" on="1"/>
        <pt x="175" y="67" on="0"/>
        <pt x="291" y="67" on="0"/>
        <pt x="368" y="108" on="0"/>
        <pt x="388" y="144" on="1"/>
        <pt x="424" y="211" on="0"/>
        <pt x="424" y="310" on="1"/>
        <pt x="424" y="456" on="0"/>
        <pt x="305" y="456" on="1"/>
        <pt x="264" y="456" on="0"/>
        <pt x="180" y="379" on="0"/>
        <pt x="151" y="290" on="1"/>
        <pt x="137" y="156" on="1"/>
        <pt x="134" y="134" on="0"/>
      </contour>
    </TTGlyph>
    <TTGlyph name="backslash" xMin="35" yMin="-22" xMax="326" yMax="703">
      <contour>
        <pt x="35" y="690" on="1"/>
        <pt x="35" y="703" on="0"/>
        <pt x="51" y="703" on="1"/>
        <pt x="76" y="703" on="1"/>
        <pt x="96" y="703" on="0"/>
        <pt x="102" y="682" on="1"/>
        <pt x="325" y="-1" on="1"/>
        <pt x="326" y="-4" on="0"/>
        <pt x="326" y="-9" on="1"/>
        <pt x="326" y="-22" on="0"/>
        <pt x="311" y="-22" on="1"/>
        <pt x="286" y="-22" on="1"/>
        <pt x="266" y="-22" on="0"/>
        <pt x="260" y="-1" on="1"/>
        <pt x="37" y="682" on="1"/>
        <pt x="35" y="688" on="0"/>
      </contour>
    </TTGlyph>
    <TTGlyph name="bar" xMin="96" yMin="-140" xMax="154" yMax="770">
      <contour>
        <pt x="96" y="-118" on="1"/>
        <pt x="96" y="748" on="1"/>
        <pt x="96" y="770" on="0"/>
        <pt x="120" y="770" on="1"/>
        <pt x="130" y="770" on="1"/>
        <pt x="154" y="770" on="0"/>
        <pt x="154" y="748" on="1"/>
        <pt x="154" y="-118" on="1"/>
        <pt x="154" y="-140" on="0"/>
        <pt x="130" y="-140" on="1"/>
        <pt x="120" y="-140" on="1"/>
        <pt x="96" y="-140" on="0"/>
      </contour>
    </TTGlyph>
    <TTGlyph name="braceleft" xMin="19" yMin="-138" xMax="289" yMax="768">
      <contour>
        <pt x="265" y="706" on="1"/>
        <pt x="243" y="706" on="1"/>
        <pt x="223" y="706" on="0"/>
        <pt x="205" y="676" on="0"/>
        <pt x="202" y="645" on="1"/>
        <pt x="184" y="469" on="1"/>
        <pt x="174" y="371" on="0"/>
        <pt x="89" y="314" on="1"/>
        <pt x="118" y="299" on="0"/>
        <pt x="152" y="224" on="0"/>
        <pt x="152" y="166" on="0"/>
        <pt x="131" y="-11" on="0"/>
        <pt x="131" y="-38" on="1"/>
        <pt x="131" y="-76" on="0"/>
        <pt x="160" y="-76" on="1"/>
        <pt x="182" y="-76" on="1"/>
        <pt x="200" y="-76" on="0"/>
        <pt x="200" y="-96" on="1"/>
        <pt x="200" y="-138" on="0"/>
        <pt x="176" y="-138" on="1"/>
        <pt x="126" y="-138" on="1"/>
        <pt x="101" y="-138" on="0"/>
        <pt x="59" y="-96" on="0"/>
        <pt x="59" y="-46" on="1"/>
        <pt x="59" y="-22" on="0"/>
        <pt x="81" y="178" on="0"/>
        <pt x="81" y="191" on="1"/>
        <pt x="81" y="256" on="0"/>
        <pt x="40" y="274" on="1"/>
        <pt x="19" y="283" on="0"/>
        <pt x="19" y="303" on="1"/>
        <pt x="20" y="322" on="1"/>
        <pt x="21" y="345" on="0"/>
        <pt x="49" y="356" on="1"/>
        <pt x="81" y="370" on="0"/>
        <pt x="107" y="429" on="0"/>
        <pt x="113" y="485" on="1"/>
        <pt x="131" y="652" on="1"/>
        <pt x="138" y="716" on="0"/>
        <pt x="190" y="768" on="0"/>
        <pt x="221" y="768" on="1"/>
        <pt x="271" y="768" on="1"/>
        <pt x="289" y="768" on="0"/>
        <pt x="289" y="748" on="1"/>
        <pt x="289" y="706" on="0"/>
      </contour>
    </TTGlyph>
    <TTGlyph name="braceright" xMin="-17" yMin="-138" xMax="253" yMax="768">
      <contour>
        <pt x="7" y="-76" on="1"/>
        <pt x="29" y="-76" on="1"/>
        <pt x="49" y="-76" on="0"/>
        <pt x="67" y="-46" on="0"/>
        <pt x="70" y="-15" on="1"/>
        <pt x="88" y="161" on="1"/>
        <pt x="98" y="259" on="0"/>
        <pt x="183" y="316" on="1"/>
        <pt x="154" y="331" on="0"/>
        <pt x="120" y="406" on="0"/>
        <pt x="120" y="464" on="0"/>
        <pt x="141" y="641" on="0"/>
        <pt x="141" y="668" on="1"/>
        <pt x="141" y="706" on="0"/>
        <pt x="112" y="706" on="1"/>
        <pt x="90" y="706" on="1"/>
        <pt x="72" y="706" on="0"/>
        <pt x="72" y="726" on="1"/>
        <pt x="72" y="768" on="0"/>
        <pt x="96" y="768" on="1"/>
        <pt x="146" y="768" on="1"/>
        <pt x="171" y="768" on="0"/>
        <pt x="213" y="726" on="0"/>
        <pt x="213" y="676" on="1"/>
        <pt x="213" y="652" on="0"/>
        <pt x="191" y="452" on="0"/>
        <pt x="191" y="439" on="1"/>
        <pt x="191" y="374" on="0"/>
        <pt x="232" y="356" on="1"/>
        <pt x="253" y="347" on="0"/>
        <pt x="253" y="327" on="1"/>
        <pt x="252" y="308" on="1"/>
        <pt x="251" y="285" on="0"/>
        <pt x="223" y="274" on="1"/>
        <pt x="191" y="260" on="0"/>
        <pt x="165" y="201" on="0"/>
        <pt x="159" y="145" on="1"/>
        <pt x="141" y="-22" on="1"/>
        <pt x="134" y="-86" on="0"/>
        <pt x="82" y="-138" on="0"/>
        <pt x="51" y="-138" on="1"/>
        <pt x="1" y="-138" on="1"/>
        <pt x="-17" y="-138" on="0"/>
        <pt x="-17" y="-118" on="1"/>
        <pt x="-17" y="-76" on="0"/>
      </contour>
    </TTGlyph>
    <TTGlyph name="bracketleft" xMin="45" yMin="-138" xMax="306" yMax="768">
      <contour>
        <pt x="282" y="706" on="1"/>
        <pt x="204" y="706" on="1"/>
        <pt x="122" y="-76" on="1"/>
        <pt x="199" y="-76" on="1"/>
        <pt x="217" y="-76" on="0"/>
        <pt x="217" y="-96" on="1"/>
        <pt x="217" y="-138" on="0"/>
        <pt x="193" y="-138" on="1"/>
        <pt x="72" y="-138" on="1"/>
        <pt x="56" y="-138" on="0"/>
        <pt x="45" y="-124" on="0"/>
        <pt x="45" y="-108" on="1"/>
        <pt x="134" y="738" on="1"/>
        <pt x="137" y="768" on="0"/>
        <pt x="167" y="768" on="1"/>
        <pt x="288" y="768" on="1"/>
        <pt x="306" y="768" on="0"/>
        <pt x="306" y="748" on="1"/>
        <pt x="306" y="706" on="0"/>
      </contour>
    </TTGlyph>
    <TTGlyph name="bracketright" xMin="-17" yMin="-138" xMax="244" yMax="768">
      <contour>
        <pt x="7" y="-76" on="1"/>
        <pt x="85" y="-76" on="1"/>
        <pt x="167" y="706" on="1"/>
        <pt x="90" y="706" on="1"/>
        <pt x="72" y="706" on="0"/>
        <pt x="72" y="726" on="1"/>
        <pt x="72" y="768" on="0"/>
        <pt x="96" y="768" on="1"/>
        <pt x="217" y="768" on="1"/>
        <pt x="233" y="768" on="0"/>
        <pt x="244" y="754" on="0"/>
        <pt x="244" y="738" on="1"/>
        <pt x="155" y="-108" on="1"/>
        <pt x="152" y="-138" on="0"/>
        <pt x="122" y="-138" on="1"/>
        <pt x="1" y="-138" on="1"/>
        <pt x="-17" y="-138" on="0"/>
        <pt x="-17" y="-118" on="1"/>
        <pt x="-17" y="-76" on="0"/>
      </contour>
    </TTGlyph>
    <TTGlyph name="breve" xMin="17" yMin="585" xMax="307" yMax="715">
      <contour>
        <pt x="50" y="700" on="1"/>
        <pt x="63" y="651" on="0"/>
        <pt x="244" y="651" on="0"/>
        <pt x="269" y="690" on="1"/>
        <pt x="272" y="695" on="0"/>
        <pt x="278" y="711" on="0"/>
        <pt x="285" y="715" on="0"/>
        <pt x="293" y="715" on="1"/>
        <pt x="307" y="715" on="0"/>
        <pt x="307" y="703" on="1"/>
        <pt x="307" y="648" on="0"/>
        <pt x="208" y="585" on="0"/>
        <pt x="96" y="585" on="0"/>
        <pt x="17" y="639" on="0"/>
        <pt x="17" y="688" on="1"/>
        <pt x="17" y="715" on="0"/>
        <pt x="34" y="715" on="1"/>
        <pt x="45" y="715" on="0"/>
        <pt x="49" y="706" on="0"/>
      </contour>
    </TTGlyph>
    <TTGlyph name="brokenbar" xMin="50" yMin="-140" xMax="199" yMax="770">
      <contour>
        <pt x="167" y="770" on="1"/>
        <pt x="177" y="770" on="1"/>
        <pt x="199" y="770" on="0"/>
        <pt x="199" y="748" on="1"/>
        <pt x="165" y="425" on="1"/>
        <pt x="162" y="403" on="0"/>
        <pt x="139" y="403" on="1"/>
        <pt x="129" y="403" on="1"/>
        <pt x="107" y="403" on="0"/>
        <pt x="107" y="425" on="1"/>
        <pt x="141" y="748" on="1"/>
        <pt x="143" y="770" on="0"/>
      </contour>
      <contour>
        <pt x="110" y="226" on="1"/>
        <pt x="120" y="226" on="1"/>
        <pt x="142" y="226" on="0"/>
        <pt x="142" y="204" on="1"/>
        <pt x="108" y="-118" on="1"/>
        <pt x="105" y="-140" on="0"/>
        <pt x="82" y="-140" on="1"/>
        <pt x="72" y="-140" on="1"/>
        <pt x="50" y="-140" on="0"/>
        <pt x="50" y="-118" on="1"/>
        <pt x="84" y="204" on="1"/>
        <pt x="86" y="226" on="0"/>
      </contour>
    </TTGlyph>
    <TTGlyph name="bullet" xMin="40" yMin="201" xMax="293" yMax="452">
      <contour>
        <pt x="104" y="201" on="0"/>
        <pt x="40" y="265" on="0"/>
        <pt x="40" y="368" on="0"/>
        <pt x="120" y="452" on="0"/>
        <pt x="228" y="452" on="0"/>
        <pt x="293" y="388" on="0"/>
        <pt x="293" y="282" on="0"/>
        <pt x="212" y="201" on="0"/>
      </contour>
    </TTGlyph>
    <TTGlyph name="c" xMin="47" yMin="-6" xMax="451" yMax="529">
      <contour>
        <pt x="404" y="97" on="1"/>
        <pt x="410" y="97" on="0"/>
        <pt x="410" y="65" on="0"/>
        <pt x="400" y="14" on="0"/>
        <pt x="305" y="-6" on="0"/>
        <pt x="263" y="-6" on="1"/>
        <pt x="155" y="-6" on="0"/>
        <pt x="47" y="94" on="0"/>
        <pt x="47" y="295" on="0"/>
        <pt x="97" y="436" on="0"/>
        <pt x="219" y="529" on="0"/>
        <pt x="311" y="529" on="1"/>
        <pt x="374" y="529" on="0"/>
        <pt x="451" y="495" on="0"/>
        <pt x="451" y="477" on="1"/>
        <pt x="451" y="466" on="0"/>
        <pt x="424" y="427" on="0"/>
        <pt x="412" y="427" on="1"/>
        <pt x="411" y="427" on="0"/>
        <pt x="400" y="434" on="1"/>
        <pt x="365" y="457" on="0"/>
        <pt x="225" y="457" on="0"/>
        <pt x="134" y="338" on="0"/>
        <pt x="134" y="210" on="1"/>
        <pt x="134" y="135" on="0"/>
        <pt x="199" y="66" on="0"/>
        <pt x="270" y="66" on="1"/>
        <pt x="332" y="66" on="0"/>
        <pt x="385" y="90" on="1"/>
        <pt x="402" y="97" on="0"/>
      </contour>
    </TTGlyph>
    <TTGlyph name="caron" xMin="40" yMin="582" xMax="282" yMax="724">
      <contour>
        <pt x="45" y="692" on="1"/>
        <pt x="40" y="701" on="0"/>
        <pt x="42" y="724" on="0"/>
        <pt x="87" y="724" on="0"/>
        <pt x="100" y="711" on="1"/>
        <pt x="153" y="637" on="1"/>
        <pt x="224" y="711" on="1"/>
        <pt x="240" y="724" on="0"/>
        <pt x="282" y="724" on="0"/>
        <pt x="282" y="710" on="1"/>
        <pt x="282" y="702" on="0"/>
        <pt x="275" y="692" on="1"/>
        <pt x="208" y="604" on="1"/>
        <pt x="192" y="582" on="0"/>
        <pt x="160" y="582" on="1"/>
        <pt x="135" y="582" on="1"/>
        <pt x="103" y="582" on="0"/>
        <pt x="91" y="604" on="1"/>
      </contour>
    </TTGlyph>
    <TTGlyph name="ccedilla" xMin="47" yMin="-210" xMax="451" yMax="529">
      <contour>
        <pt x="234" y="-210" on="1"/>
        <pt x="175" y="-210" on="0"/>
        <pt x="148" y="-190" on="1"/>
        <pt x="137" y="-182" on="0"/>
        <pt x="137" y="-169" on="1"/>
        <pt x="137" y="-136" on="0"/>
        <pt x="149" y="-136" on="1"/>
        <pt x="159" y="-142" on="1"/>
        <pt x="191" y="-161" on="0"/>
        <pt x="227" y="-161" on="1"/>
        <pt x="287" y="-161" on="0"/>
        <pt x="287" y="-121" on="1"/>
        <pt x="287" y="-108" on="0"/>
        <pt x="268" y="-93" on="0"/>
        <pt x="257" y="-90" on="1"/>
        <pt x="227" y="-84" on="0"/>
        <pt x="227" y="-69" on="1"/>
        <pt x="227" y="-68" on="0"/>
        <pt x="231" y="-56" on="1"/>
        <pt x="251" y="-6" on="1"/>
        <pt x="149" y="-3" on="0"/>
        <pt x="47" y="97" on="0"/>
        <pt x="47" y="295" on="0"/>
        <pt x="97" y="436" on="0"/>
        <pt x="219" y="529" on="0"/>
        <pt x="311" y="529" on="1"/>
        <pt x="374" y="529" on="0"/>
        <pt x="451" y="495" on="0"/>
        <pt x="451" y="477" on="1"/>
        <pt x="451" y="466" on="0"/>
        <pt x="424" y="427" on="0"/>
        <pt x="412" y="427" on="1"/>
        <pt x="411" y="427" on="0"/>
        <pt x="400" y="434" on="1"/>
        <pt x="365" y="457" on="0"/>
        <pt x="225" y="457" on="0"/>
        <pt x="134" y="338" on="0"/>
        <pt x="134" y="210" on="1"/>
        <pt x="134" y="135" on="0"/>
        <pt x="199" y="66" on="0"/>
        <pt x="270" y="66" on="1"/>
        <pt x="332" y="66" on="0"/>
        <pt x="385" y="90" on="1"/>
        <pt x="402" y="97" on="0"/>
        <pt x="404" y="97" on="1"/>
        <pt x="410" y="97" on="0"/>
        <pt x="410" y="65" on="0"/>
        <pt x="405" y="40" on="1"/>
        <pt x="398" y="5" on="0"/>
        <pt x="295" y="-5" on="1"/>
        <pt x="277" y="-49" on="1"/>
        <pt x="281" y="-49" on="1"/>
        <pt x="296" y="-49" on="0"/>
        <pt x="326" y="-55" on="0"/>
        <pt x="359" y="-86" on="0"/>
        <pt x="359" y="-111" on="1"/>
        <pt x="359" y="-210" on="0"/>
      </contour>
    </TTGlyph>
    <TTGlyph name="cedilla" xMin="51" yMin="-210" xMax="273" yMax="0">
      <contour>
        <pt x="148" y="-210" on="1"/>
        <pt x="89" y="-210" on="0"/>
        <pt x="62" y="-190" on="1"/>
        <pt x="51" y="-182" on="0"/>
        <pt x="51" y="-169" on="1"/>
        <pt x="51" y="-136" on="0"/>
        <pt x="63" y="-136" on="1"/>
        <pt x="73" y="-142" on="1"/>
        <pt x="105" y="-161" on="0"/>
        <pt x="141" y="-161" on="1"/>
        <pt x="201" y="-161" on="0"/>
        <pt x="201" y="-121" on="1"/>
        <pt x="201" y="-108" on="0"/>
        <pt x="182" y="-93" on="0"/>
        <pt x="171" y="-90" on="1"/>
        <pt x="141" y="-84" on="0"/>
        <pt x="141" y="-69" on="1"/>
        <pt x="141" y="-68" on="0"/>
        <pt x="145" y="-56" on="1"/>
        <pt x="168" y="0" on="1"/>
        <pt x="211" y="0" on="1"/>
        <pt x="191" y="-49" on="1"/>
        <pt x="195" y="-49" on="1"/>
        <pt x="210" y="-49" on="0"/>
        <pt x="240" y="-55" on="0"/>
        <pt x="273" y="-86" on="0"/>
        <pt x="273" y="-111" on="1"/>
        <pt x="273" y="-210" on="0"/>
      </contour>
    </TTGlyph>
    <TTGlyph name="cent" xMin="51" yMin="-71" xMax="455" yMax="578">
      <contour>
        <pt x="390" y="90" on="1"/>
        <pt x="405" y="97" on="0"/>
        <pt x="414" y="97" on="0"/>
        <pt x="414" y="65" on="0"/>
        <pt x="409" y="40" on="1"/>
        <pt x="401" y="0" on="0"/>
        <pt x="281" y="-6" on="1"/>
        <pt x="276" y="-51" on="1"/>
        <pt x="273" y="-71" on="0"/>
        <pt x="254" y="-71" on="1"/>
        <pt x="243" y="-71" on="0"/>
        <pt x="236" y="-62" on="0"/>
        <pt x="236" y="-51" on="1"/>
        <pt x="241" y="-5" on="1"/>
        <pt x="146" y="0" on="0"/>
        <pt x="51" y="101" on="0"/>
        <pt x="51" y="292" on="0"/>
        <pt x="98" y="430" on="0"/>
        <pt x="212" y="524" on="0"/>
        <pt x="298" y="528" on="1"/>
        <pt x="301" y="558" on="1"/>
        <pt x="302" y="578" on="0"/>
        <pt x="323" y="578" on="1"/>
        <pt x="341" y="578" on="0"/>
        <pt x="341" y="558" on="1"/>
        <pt x="338" y="528" on="1"/>
        <pt x="391" y="525" on="0"/>
        <pt x="455" y="493" on="0"/>
        <pt x="455" y="477" on="1"/>
        <pt x="455" y="466" on="0"/>
        <pt x="428" y="427" on="0"/>
        <pt x="416" y="427" on="1"/>
        <pt x="414" y="427" on="0"/>
        <pt x="405" y="433" on="1"/>
        <pt x="377" y="451" on="0"/>
        <pt x="330" y="455" on="1"/>
        <pt x="288" y="66" on="1"/>
        <pt x="342" y="68" on="0"/>
      </contour>
      <contour>
        <pt x="138" y="210" on="1"/>
        <pt x="138" y="142" on="0"/>
        <pt x="191" y="72" on="0"/>
        <pt x="248" y="67" on="1"/>
        <pt x="290" y="456" on="1"/>
        <pt x="221" y="450" on="0"/>
        <pt x="138" y="331" on="0"/>
      </contour>
    </TTGlyph>
    <TTGlyph name="circumflex" xMin="30" yMin="584" xMax="272" yMax="726">
      <contour>
        <pt x="151" y="726" on="1"/>
        <pt x="176" y="726" on="1"/>
        <pt x="208" y="726" on="0"/>
        <pt x="220" y="704" on="1"/>
        <pt x="267" y="616" on="1"/>
        <pt x="272" y="608" on="0"/>
        <pt x="270" y="584" on="0"/>
        <pt x="225" y="584" on="0"/>
        <pt x="212" y="597" on="1"/>
        <pt x="157" y="671" on="1"/>
        <pt x="88" y="597" on="1"/>
        <pt x="72" y="584" on="0"/>
        <pt x="30" y="584" on="0"/>
        <pt x="30" y="596" on="1"/>
        <pt x="30" y="605" on="0"/>
        <pt x="37" y="616" on="1"/>
        <pt x="103" y="704" on="1"/>
        <pt x="119" y="726" on="0"/>
      </contour>
    </TTGlyph>
    <TTGlyph name="colon" xMin="25" yMin="-2" xMax="173" yMax="525">
      <contour>
        <pt x="118" y="525" on="1"/>
        <pt x="135" y="525" on="1"/>
        <pt x="173" y="525" on="0"/>
        <pt x="173" y="503" on="1"/>
        <pt x="166" y="437" on="1"/>
        <pt x="163" y="415" on="0"/>
        <pt x="124" y="415" on="1"/>
        <pt x="107" y="415" on="1"/>
        <pt x="69" y="415" on="0"/>
        <pt x="69" y="437" on="1"/>
        <pt x="76" y="503" on="1"/>
        <pt x="78" y="525" on="0"/>
      </contour>
      <contour>
        <pt x="74" y="108" on="1"/>
        <pt x="91" y="108" on="1"/>
        <pt x="129" y="108" on="0"/>
        <pt x="129" y="86" on="1"/>
        <pt x="122" y="20" on="1"/>
        <pt x="119" y="-2" on="0"/>
        <pt x="80" y="-2" on="1"/>
        <pt x="63" y="-2" on="1"/>
        <pt x="25" y="-2" on="0"/>
        <pt x="25" y="20" on="1"/>
        <pt x="32" y="86" on="1"/>
        <pt x="34" y="108" on="0"/>
      </contour>
    </TTGlyph>
    <TTGlyph name="comma" xMin="1" yMin="-116" xMax="152" yMax="108">
      <contour>
        <pt x="106" y="108" on="1"/>
        <pt x="115" y="108" on="1"/>
        <pt x="152" y="108" on="0"/>
        <pt x="152" y="80" on="1"/>
        <pt x="144" y="-1" on="0"/>
        <pt x="59" y="-116" on="0"/>
        <pt x="1" y="-116" on="0"/>
        <pt x="1" y="-102" on="1"/>
        <pt x="1" y="-97" on="0"/>
        <pt x="9" y="-84" on="1"/>
        <pt x="53" y="-16" on="0"/>
        <pt x="63" y="76" on="1"/>
        <pt x="66" y="108" on="0"/>
      </contour>
    </TTGlyph>
    <TTGlyph name="copyright" xMin="10" yMin="-7" xMax="729" yMax="708">
      <contour>
        <pt x="10" y="203" on="0"/>
        <pt x="10" y="501" on="0"/>
        <pt x="219" y="708" on="0"/>
        <pt x="519" y="708" on="0"/>
        <pt x="729" y="501" on="0"/>
        <pt x="729" y="203" on="0"/>
        <pt x="518" y="-7" on="0"/>
        <pt x="220" y="-7" on="0"/>
      </contour>
      <contour>
        <pt x="240" y="660" on="0"/>
        <pt x="58" y="481" on="0"/>
        <pt x="58" y="224" on="0"/>
        <pt x="241" y="41" on="0"/>
        <pt x="498" y="41" on="0"/>
        <pt x="681" y="224" on="0"/>
        <pt x="681" y="481" on="0"/>
        <pt x="498" y="660" on="0"/>
      </contour>
      <contour>
        <pt x="385" y="135" on="1"/>
        <pt x="287" y="135" on="0"/>
        <pt x="193" y="239" on="0"/>
        <pt x="193" y="347" on="1"/>
        <pt x="193" y="560" on="0"/>
        <pt x="387" y="560" on="1"/>
        <pt x="430" y="560" on="0"/>
        <pt x="501" y="536" on="0"/>
        <pt x="501" y="523" on="1"/>
        <pt x="501" y="515" on="0"/>
        <pt x="486" y="488" on="0"/>
        <pt x="480" y="488" on="1"/>
        <pt x="479" y="488" on="0"/>
        <pt x="468" y="495" on="1"/>
        <pt x="435" y="515" on="0"/>
        <pt x="388" y="515" on="1"/>
        <pt x="316" y="515" on="0"/>
        <pt x="247" y="434" on="0"/>
        <pt x="247" y="261" on="0"/>
        <pt x="315" y="180" on="0"/>
        <pt x="385" y="180" on="1"/>
        <pt x="434" y="180" on="0"/>
        <pt x="473" y="202" on="1"/>
        <pt x="486" y="210" on="0"/>
        <pt x="488" y="210" on="1"/>
        <pt x="494" y="210" on="0"/>
        <pt x="509" y="184" on="0"/>
        <pt x="509" y="178" on="1"/>
        <pt x="509" y="165" on="0"/>
        <pt x="434" y="135" on="0"/>
      </contour>
    </TTGlyph>
    <TTGlyph name="currency" xMin="69" yMin="143" xMax="456" yMax="500">
      <contour>
        <pt x="105" y="143" on="0"/>
        <pt x="83" y="143" on="0"/>
        <pt x="69" y="160" on="0"/>
        <pt x="69" y="180" on="0"/>
        <pt x="82" y="193" on="1"/>
        <pt x="108" y="217" on="1"/>
        <pt x="85" y="254" on="0"/>
        <pt x="85" y="300" on="1"/>
        <pt x="85" y="374" on="0"/>
        <pt x="131" y="427" on="1"/>
        <pt x="109" y="450" on="1"/>
        <pt x="100" y="461" on="0"/>
        <pt x="100" y="479" on="0"/>
        <pt x="118" y="499" on="0"/>
        <pt x="144" y="499" on="0"/>
        <pt x="151" y="489" on="1"/>
        <pt x="173" y="465" on="1"/>
        <pt x="224" y="500" on="0"/>
        <pt x="338" y="500" on="0"/>
        <pt x="382" y="466" on="1"/>
        <pt x="408" y="490" on="1"/>
        <pt x="420" y="500" on="0"/>
        <pt x="438" y="500" on="0"/>
        <pt x="456" y="483" on="0"/>
        <pt x="456" y="462" on="0"/>
        <pt x="443" y="450" on="1"/>
        <pt x="416" y="426" on="1"/>
        <pt x="442" y="385" on="0"/>
        <pt x="442" y="339" on="1"/>
        <pt x="442" y="270" on="0"/>
        <pt x="394" y="217" on="1"/>
        <pt x="416" y="193" on="1"/>
        <pt x="425" y="182" on="0"/>
        <pt x="425" y="172" on="1"/>
        <pt x="423" y="163" on="0"/>
        <pt x="403" y="143" on="0"/>
        <pt x="381" y="143" on="0"/>
        <pt x="373" y="154" on="1"/>
        <pt x="351" y="178" on="1"/>
        <pt x="301" y="145" on="0"/>
        <pt x="185" y="145" on="0"/>
        <pt x="143" y="178" on="1"/>
        <pt x="116" y="153" on="1"/>
      </contour>
      <contour>
        <pt x="146" y="265" on="0"/>
        <pt x="205" y="206" on="0"/>
        <pt x="301" y="206" on="0"/>
        <pt x="380" y="282" on="0"/>
        <pt x="380" y="378" on="0"/>
        <pt x="320" y="439" on="0"/>
        <pt x="223" y="439" on="0"/>
        <pt x="146" y="361" on="0"/>
      </contour>
    </TTGlyph>
    <TTGlyph name="d" xMin="41" yMin="-6" xMax="544" yMax="752">
      <contour>
        <pt x="511" y="66" on="1"/>
        <pt x="538" y="71" on="1"/>
        <pt x="544" y="71" on="0"/>
        <pt x="544" y="49" on="0"/>
        <pt x="537" y="10" on="0"/>
        <pt x="498" y="-6" on="0"/>
        <pt x="480" y="-6" on="1"/>
        <pt x="390" y="-6" on="0"/>
        <pt x="390" y="92" on="1"/>
        <pt x="390" y="102" on="1"/>
        <pt x="332" y="-6" on="0"/>
        <pt x="229" y="-6" on="1"/>
        <pt x="165" y="-6" on="0"/>
        <pt x="108" y="36" on="1"/>
        <pt x="78" y="59" on="0"/>
        <pt x="41" y="148" on="0"/>
        <pt x="41" y="210" on="1"/>
        <pt x="41" y="351" on="0"/>
        <pt x="179" y="529" on="0"/>
        <pt x="292" y="529" on="1"/>
        <pt x="374" y="529" on="0"/>
        <pt x="428" y="484" on="1"/>
        <pt x="455" y="730" on="1"/>
        <pt x="458" y="752" on="0"/>
        <pt x="497" y="752" on="1"/>
        <pt x="501" y="752" on="1"/>
        <pt x="539" y="752" on="0"/>
        <pt x="539" y="730" on="1"/>
        <pt x="475" y="137" on="0"/>
        <pt x="475" y="92" on="0"/>
        <pt x="481" y="74" on="0"/>
        <pt x="488" y="71" on="1"/>
        <pt x="498" y="66" on="0"/>
      </contour>
      <contour>
        <pt x="421" y="418" on="1"/>
        <pt x="373" y="456" on="0"/>
        <pt x="254" y="456" on="0"/>
        <pt x="183" y="416" on="0"/>
        <pt x="164" y="380" on="1"/>
        <pt x="129" y="312" on="0"/>
        <pt x="129" y="134" on="0"/>
        <pt x="189" y="67" on="0"/>
        <pt x="248" y="67" on="1"/>
        <pt x="289" y="67" on="0"/>
        <pt x="373" y="145" on="0"/>
        <pt x="402" y="234" on="1"/>
      </contour>
    </TTGlyph>
    <TTGlyph name="dagger" xMin="67" yMin="-140" xMax="506" yMax="702">
      <contour>
        <pt x="84" y="422" on="1"/>
        <pt x="67" y="422" on="0"/>
        <pt x="67" y="452" on="1"/>
        <pt x="67" y="502" on="0"/>
        <pt x="92" y="502" on="1"/>
        <pt x="250" y="502" on="1"/>
        <pt x="268" y="680" on="1"/>
        <pt x="270" y="702" on="0"/>
        <pt x="350" y="702" on="0"/>
        <pt x="350" y="680" on="1"/>
        <pt x="332" y="502" on="1"/>
        <pt x="489" y="502" on="1"/>
        <pt x="506" y="502" on="0"/>
        <pt x="506" y="472" on="1"/>
        <pt x="506" y="422" on="0"/>
        <pt x="481" y="422" on="1"/>
        <pt x="323" y="422" on="1"/>
        <pt x="267" y="-118" on="1"/>
        <pt x="264" y="-140" on="0"/>
        <pt x="185" y="-140" on="0"/>
        <pt x="185" y="-118" on="1"/>
        <pt x="241" y="422" on="1"/>
      </contour>
    </TTGlyph>
    <TTGlyph name="daggerdbl" xMin="29" yMin="-140" xMax="506" yMax="702">
      <contour>
        <pt x="443" y="60" on="1"/>
        <pt x="285" y="60" on="1"/>
        <pt x="267" y="-118" on="1"/>
        <pt x="264" y="-140" on="0"/>
        <pt x="185" y="-140" on="0"/>
        <pt x="185" y="-118" on="1"/>
        <pt x="203" y="60" on="1"/>
        <pt x="46" y="60" on="1"/>
        <pt x="29" y="60" on="0"/>
        <pt x="29" y="90" on="1"/>
        <pt x="29" y="140" on="0"/>
        <pt x="54" y="140" on="1"/>
        <pt x="212" y="140" on="1"/>
        <pt x="241" y="422" on="1"/>
        <pt x="84" y="422" on="1"/>
        <pt x="67" y="422" on="0"/>
        <pt x="67" y="452" on="1"/>
        <pt x="67" y="502" on="0"/>
        <pt x="92" y="502" on="1"/>
        <pt x="250" y="502" on="1"/>
        <pt x="268" y="680" on="1"/>
        <pt x="270" y="702" on="0"/>
        <pt x="350" y="702" on="0"/>
        <pt x="350" y="680" on="1"/>
        <pt x="332" y="502" on="1"/>
        <pt x="489" y="502" on="1"/>
        <pt x="506" y="502" on="0"/>
        <pt x="506" y="472" on="1"/>
        <pt x="506" y="422" on="0"/>
        <pt x="481" y="422" on="1"/>
        <pt x="323" y="422" on="1"/>
        <pt x="294" y="140" on="1"/>
        <pt x="451" y="140" on="1"/>
        <pt x="468" y="140" on="0"/>
        <pt x="468" y="110" on="1"/>
        <pt x="468" y="60" on="0"/>
      </contour>
    </TTGlyph>
    <TTGlyph name="degree" xMin="36" yMin="441" xMax="303" yMax="706">
      <contour>
        <pt x="103" y="441" on="0"/>
        <pt x="36" y="509" on="0"/>
        <pt x="36" y="622" on="0"/>
        <pt x="120" y="706" on="0"/>
        <pt x="234" y="706" on="0"/>
        <pt x="303" y="637" on="0"/>
        <pt x="303" y="525" on="0"/>
        <pt x="217" y="441" on="0"/>
      </contour>
      <contour>
        <pt x="253" y="615" on="0"/>
        <pt x="211" y="661" on="0"/>
        <pt x="140" y="661" on="0"/>
        <pt x="85" y="602" on="0"/>
        <pt x="85" y="531" on="0"/>
        <pt x="128" y="486" on="0"/>
        <pt x="198" y="486" on="0"/>
        <pt x="253" y="541" on="0"/>
      </contour>
    </TTGlyph>
    <TTGlyph name="dieresis" xMin="44" yMin="607" xMax="277" yMax="702">
      <contour>
        <pt x="235" y="702" on="1"/>
        <pt x="239" y="702" on="1"/>
        <pt x="277" y="702" on="0"/>
        <pt x="277" y="680" on="1"/>
        <pt x="272" y="629" on="1"/>
        <pt x="269" y="607" on="0"/>
        <pt x="230" y="607" on="1"/>
        <pt x="226" y="607" on="1"/>
        <pt x="188" y="607" on="0"/>
        <pt x="188" y="629" on="1"/>
        <pt x="193" y="680" on="1"/>
        <pt x="195" y="702" on="0"/>
      </contour>
      <contour>
        <pt x="91" y="702" on="1"/>
        <pt x="95" y="702" on="1"/>
        <pt x="133" y="702" on="0"/>
        <pt x="133" y="680" on="1"/>
        <pt x="128" y="629" on="1"/>
        <pt x="125" y="607" on="0"/>
        <pt x="86" y="607" on="1"/>
        <pt x="82" y="607" on="1"/>
        <pt x="44" y="607" on="0"/>
        <pt x="44" y="629" on="1"/>
        <pt x="49" y="680" on="1"/>
        <pt x="52" y="702" on="0"/>
      </contour>
    </TTGlyph>
    <TTGlyph name="divide" xMin="47" yMin="-2" xMax="512" yMax="463">
      <contour>
        <pt x="302" y="463" on="1"/>
        <pt x="306" y="463" on="1"/>
        <pt x="344" y="463" on="0"/>
        <pt x="344" y="441" on="1"/>
        <pt x="338" y="390" on="1"/>
        <pt x="335" y="368" on="0"/>
        <pt x="296" y="368" on="1"/>
        <pt x="292" y="368" on="1"/>
        <pt x="254" y="368" on="0"/>
        <pt x="254" y="390" on="1"/>
        <pt x="260" y="441" on="1"/>
        <pt x="262" y="463" on="0"/>
      </contour>
      <contour>
        <pt x="47" y="227" on="1"/>
        <pt x="47" y="264" on="0"/>
        <pt x="81" y="264" on="1"/>
        <pt x="485" y="264" on="1"/>
        <pt x="512" y="264" on="0"/>
        <pt x="512" y="234" on="1"/>
        <pt x="512" y="197" on="0"/>
        <pt x="478" y="197" on="1"/>
        <pt x="74" y="197" on="1"/>
        <pt x="47" y="197" on="0"/>
      </contour>
      <contour>
        <pt x="263" y="93" on="1"/>
        <pt x="267" y="93" on="1"/>
        <pt x="305" y="93" on="0"/>
        <pt x="305" y="71" on="1"/>
        <pt x="299" y="20" on="1"/>
        <pt x="296" y="-2" on="0"/>
        <pt x="257" y="-2" on="1"/>
        <pt x="253" y="-2" on="1"/>
        <pt x="215" y="-2" on="0"/>
        <pt x="215" y="20" on="1"/>
        <pt x="221" y="71" on="1"/>
        <pt x="223" y="93" on="0"/>
      </contour>
    </TTGlyph>
    <TTGlyph name="dollar" xMin="34" yMin="-68" xMax="462" yMax="755">
      <contour>
        <pt x="34" y="56" on="1"/>
        <pt x="34" y="121" on="0"/>
        <pt x="50" y="121" on="1"/>
        <pt x="51" y="121" on="0"/>
        <pt x="89" y="96" on="0"/>
        <pt x="161" y="71" on="0"/>
        <pt x="203" y="70" on="1"/>
        <pt x="230" y="324" on="1"/>
        <pt x="197" y="338" on="0"/>
        <pt x="166" y="351" on="0"/>
        <pt x="112" y="384" on="0"/>
        <pt x="99" y="400" on="1"/>
        <pt x="65" y="440" on="0"/>
        <pt x="65" y="498" on="1"/>
        <pt x="65" y="582" on="0"/>
        <pt x="177" y="694" on="0"/>
        <pt x="270" y="704" on="1"/>
        <pt x="274" y="735" on="1"/>
        <pt x="276" y="746" on="0"/>
        <pt x="284" y="755" on="0"/>
        <pt x="296" y="755" on="1"/>
        <pt x="314" y="755" on="0"/>
        <pt x="314" y="735" on="1"/>
        <pt x="311" y="706" on="1"/>
        <pt x="360" y="705" on="0"/>
        <pt x="462" y="670" on="0"/>
        <pt x="462" y="646" on="1"/>
        <pt x="462" y="636" on="0"/>
        <pt x="431" y="592" on="0"/>
        <pt x="419" y="592" on="0"/>
        <pt x="404" y="601" on="1"/>
        <pt x="358" y="628" on="0"/>
        <pt x="303" y="630" on="1"/>
        <pt x="278" y="403" on="1"/>
        <pt x="317" y="388" on="0"/>
        <pt x="363" y="365" on="0"/>
        <pt x="392" y="344" on="1"/>
        <pt x="448" y="301" on="0"/>
        <pt x="448" y="123" on="0"/>
        <pt x="331" y="4" on="0"/>
        <pt x="235" y="-4" on="1"/>
        <pt x="231" y="-48" on="1"/>
        <pt x="230" y="-68" on="0"/>
        <pt x="209" y="-68" on="1"/>
        <pt x="198" y="-68" on="0"/>
        <pt x="191" y="-59" on="0"/>
        <pt x="191" y="-48" on="1"/>
        <pt x="195" y="-6" on="1"/>
        <pt x="139" y="-4" on="0"/>
        <pt x="34" y="26" on="0"/>
      </contour>
      <contour>
        <pt x="214" y="618" on="0"/>
        <pt x="155" y="558" on="0"/>
        <pt x="155" y="476" on="0"/>
        <pt x="198" y="436" on="0"/>
        <pt x="240" y="418" on="1"/>
        <pt x="262" y="627" on="1"/>
      </contour>
      <contour>
        <pt x="293" y="82" on="0"/>
        <pt x="357" y="153" on="0"/>
        <pt x="357" y="241" on="0"/>
        <pt x="311" y="288" on="0"/>
        <pt x="268" y="308" on="1"/>
        <pt x="243" y="73" on="1"/>
      </contour>
    </TTGlyph>
    <TTGlyph name="dotaccent" xMin="117" yMin="607" xMax="206" yMax="702">
      <contour>
        <pt x="164" y="702" on="1"/>
        <pt x="168" y="702" on="1"/>
        <pt x="206" y="702" on="0"/>
        <pt x="206" y="680" on="1"/>
        <pt x="201" y="629" on="1"/>
        <pt x="198" y="607" on="0"/>
        <pt x="159" y="607" on="1"/>
        <pt x="155" y="607" on="1"/>
        <pt x="117" y="607" on="0"/>
        <pt x="117" y="629" on="1"/>
        <pt x="122" y="680" on="1"/>
        <pt x="125" y="702" on="0"/>
      </contour>
    </TTGlyph>
    <TTGlyph name="dotlessi" xMin="63" yMin="-6" xMax="216" yMax="525">
      <contour>
        <pt x="183" y="66" on="1"/>
        <pt x="210" y="71" on="1"/>
        <pt x="216" y="71" on="0"/>
        <pt x="216" y="49" on="0"/>
        <pt x="209" y="10" on="0"/>
        <pt x="170" y="-6" on="0"/>
        <pt x="152" y="-6" on="1"/>
        <pt x="63" y="-6" on="0"/>
        <pt x="63" y="89" on="1"/>
        <pt x="63" y="125" on="0"/>
        <pt x="103" y="503" on="0"/>
        <pt x="104" y="503" on="1"/>
        <pt x="107" y="525" on="0"/>
        <pt x="146" y="525" on="1"/>
        <pt x="150" y="525" on="1"/>
        <pt x="188" y="525" on="0"/>
        <pt x="188" y="503" on="1"/>
        <pt x="148" y="137" on="0"/>
        <pt x="148" y="88" on="0"/>
        <pt x="160" y="69" on="0"/>
        <pt x="172" y="66" on="0"/>
      </contour>
    </TTGlyph>
    <TTGlyph name="e" xMin="46" yMin="-6" xMax="489" yMax="529">
      <contour>
        <pt x="410" y="102" on="1"/>
        <pt x="430" y="115" on="0"/>
        <pt x="434" y="115" on="1"/>
        <pt x="441" y="115" on="0"/>
        <pt x="441" y="84" on="0"/>
        <pt x="436" y="58" on="1"/>
        <pt x="430" y="27" on="0"/>
        <pt x="318" y="-6" on="0"/>
        <pt x="272" y="-6" on="1"/>
        <pt x="46" y="-6" on="0"/>
        <pt x="46" y="201" on="1"/>
        <pt x="46" y="346" on="0"/>
        <pt x="182" y="529" on="0"/>
        <pt x="321" y="529" on="1"/>
        <pt x="406" y="529" on="0"/>
        <pt x="489" y="444" on="0"/>
        <pt x="489" y="346" on="0"/>
        <pt x="444" y="272" on="0"/>
        <pt x="404" y="252" on="1"/>
        <pt x="327" y="213" on="0"/>
        <pt x="219" y="213" on="1"/>
        <pt x="170" y="213" on="0"/>
        <pt x="133" y="220" on="1"/>
        <pt x="133" y="210" on="1"/>
        <pt x="133" y="131" on="0"/>
        <pt x="208" y="66" on="0"/>
        <pt x="350" y="66" on="0"/>
      </contour>
      <contour>
        <pt x="312" y="457" on="1"/>
        <pt x="162" y="457" on="0"/>
        <pt x="138" y="285" on="1"/>
        <pt x="209" y="285" on="1"/>
        <pt x="294" y="285" on="0"/>
        <pt x="344" y="307" on="1"/>
        <pt x="366" y="317" on="0"/>
        <pt x="402" y="359" on="0"/>
        <pt x="402" y="417" on="0"/>
        <pt x="353" y="457" on="0"/>
      </contour>
    </TTGlyph>
    <TTGlyph name="eacute" xMin="46" yMin="-6" xMax="489" yMax="752">
      <contour>
        <pt x="410" y="102" on="1"/>
        <pt x="430" y="115" on="0"/>
        <pt x="434" y="115" on="1"/>
        <pt x="441" y="115" on="0"/>
        <pt x="441" y="84" on="0"/>
        <pt x="436" y="58" on="1"/>
        <pt x="430" y="27" on="0"/>
        <pt x="318" y="-6" on="0"/>
        <pt x="272" y="-6" on="1"/>
        <pt x="46" y="-6" on="0"/>
        <pt x="46" y="201" on="1"/>
        <pt x="46" y="346" on="0"/>
        <pt x="182" y="529" on="0"/>
        <pt x="321" y="529" on="1"/>
        <pt x="406" y="529" on="0"/>
        <pt x="489" y="444" on="0"/>
        <pt x="489" y="346" on="0"/>
        <pt x="444" y="272" on="0"/>
        <pt x="404" y="252" on="1"/>
        <pt x="327" y="213" on="0"/>
        <pt x="219" y="213" on="1"/>
        <pt x="170" y="213" on="0"/>
        <pt x="133" y="220" on="1"/>
        <pt x="133" y="210" on="1"/>
        <pt x="133" y="131" on="0"/>
        <pt x="208" y="66" on="0"/>
        <pt x="350" y="66" on="0"/>
      </contour>
      <contour>
        <pt x="312" y="457" on="1"/>
        <pt x="162" y="457" on="0"/>
        <pt x="138" y="285" on="1"/>
        <pt x="209" y="285" on="1"/>
        <pt x="294" y="285" on="0"/>
        <pt x="344" y="307" on="1"/>
        <pt x="366" y="317" on="0"/>
        <pt x="402" y="359" on="0"/>
        <pt x="402" y="417" on="0"/>
        <pt x="353" y="457" on="0"/>
      </contour>
      <contour>
        <pt x="339" y="752" on="0"/>
        <pt x="433" y="752" on="0"/>
        <pt x="433" y="729" on="0"/>
        <pt x="326" y="622" on="1"/>
        <pt x="309" y="605" on="0"/>
        <pt x="252" y="605" on="0"/>
        <pt x="252" y="614" on="1"/>
        <pt x="252" y="626" on="0"/>
        <pt x="321" y="726" on="1"/>
      </contour>
    </TTGlyph>
    <TTGlyph name="ecircumflex" xMin="46" yMin="-6" xMax="489" yMax="726">
      <contour>
        <pt x="410" y="102" on="1"/>
        <pt x="430" y="115" on="0"/>
        <pt x="434" y="115" on="1"/>
        <pt x="441" y="115" on="0"/>
        <pt x="441" y="84" on="0"/>
        <pt x="436" y="58" on="1"/>
        <pt x="430" y="27" on="0"/>
        <pt x="318" y="-6" on="0"/>
        <pt x="272" y="-6" on="1"/>
        <pt x="46" y="-6" on="0"/>
        <pt x="46" y="201" on="1"/>
        <pt x="46" y="346" on="0"/>
        <pt x="182" y="529" on="0"/>
        <pt x="321" y="529" on="1"/>
        <pt x="406" y="529" on="0"/>
        <pt x="489" y="444" on="0"/>
        <pt x="489" y="346" on="0"/>
        <pt x="444" y="272" on="0"/>
        <pt x="404" y="252" on="1"/>
        <pt x="327" y="213" on="0"/>
        <pt x="219" y="213" on="1"/>
        <pt x="170" y="213" on="0"/>
        <pt x="133" y="220" on="1"/>
        <pt x="133" y="210" on="1"/>
        <pt x="133" y="131" on="0"/>
        <pt x="208" y="66" on="0"/>
        <pt x="350" y="66" on="0"/>
      </contour>
      <contour>
        <pt x="312" y="457" on="1"/>
        <pt x="162" y="457" on="0"/>
        <pt x="138" y="285" on="1"/>
        <pt x="209" y="285" on="1"/>
        <pt x="294" y="285" on="0"/>
        <pt x="344" y="307" on="1"/>
        <pt x="366" y="317" on="0"/>
        <pt x="402" y="359" on="0"/>
        <pt x="402" y="417" on="0"/>
        <pt x="353" y="457" on="0"/>
      </contour>
      <contour>
        <pt x="309" y="726" on="1"/>
        <pt x="334" y="726" on="1"/>
        <pt x="366" y="726" on="0"/>
        <pt x="378" y="704" on="1"/>
        <pt x="425" y="616" on="1"/>
        <pt x="430" y="608" on="0"/>
        <pt x="428" y="584" on="0"/>
        <pt x="383" y="584" on="0"/>
        <pt x="370" y="597" on="1"/>
        <pt x="315" y="671" on="1"/>
        <pt x="246" y="597" on="1"/>
        <pt x="230" y="584" on="0"/>
        <pt x="188" y="584" on="0"/>
        <pt x="188" y="596" on="1"/>
        <pt x="188" y="605" on="0"/>
        <pt x="195" y="616" on="1"/>
        <pt x="261" y="704" on="1"/>
        <pt x="277" y="726" on="0"/>
      </contour>
    </TTGlyph>
    <TTGlyph name="edieresis" xMin="46" yMin="-6" xMax="489" yMax="702">
      <contour>
        <pt x="410" y="102" on="1"/>
        <pt x="430" y="115" on="0"/>
        <pt x="434" y="115" on="1"/>
        <pt x="441" y="115" on="0"/>
        <pt x="441" y="84" on="0"/>
        <pt x="436" y="58" on="1"/>
        <pt x="430" y="27" on="0"/>
        <pt x="318" y="-6" on="0"/>
        <pt x="272" y="-6" on="1"/>
        <pt x="46" y="-6" on="0"/>
        <pt x="46" y="201" on="1"/>
        <pt x="46" y="346" on="0"/>
        <pt x="182" y="529" on="0"/>
        <pt x="321" y="529" on="1"/>
        <pt x="406" y="529" on="0"/>
        <pt x="489" y="444" on="0"/>
        <pt x="489" y="346" on="0"/>
        <pt x="444" y="272" on="0"/>
        <pt x="404" y="252" on="1"/>
        <pt x="327" y="213" on="0"/>
        <pt x="219" y="213" on="1"/>
        <pt x="170" y="213" on="0"/>
        <pt x="133" y="220" on="1"/>
        <pt x="133" y="210" on="1"/>
        <pt x="133" y="131" on="0"/>
        <pt x="208" y="66" on="0"/>
        <pt x="350" y="66" on="0"/>
      </contour>
      <contour>
        <pt x="312" y="457" on="1"/>
        <pt x="162" y="457" on="0"/>
        <pt x="138" y="285" on="1"/>
        <pt x="209" y="285" on="1"/>
        <pt x="294" y="285" on="0"/>
        <pt x="344" y="307" on="1"/>
        <pt x="366" y="317" on="0"/>
        <pt x="402" y="359" on="0"/>
        <pt x="402" y="417" on="0"/>
        <pt x="353" y="457" on="0"/>
      </contour>
      <contour>
        <pt x="389" y="702" on="1"/>
        <pt x="393" y="702" on="1"/>
        <pt x="431" y="702" on="0"/>
        <pt x="431" y="680" on="1"/>
        <pt x="426" y="629" on="1"/>
        <pt x="423" y="607" on="0"/>
        <pt x="384" y="607" on="1"/>
        <pt x="380" y="607" on="1"/>
        <pt x="342" y="607" on="0"/>
        <pt x="342" y="629" on="1"/>
        <pt x="347" y="680" on="1"/>
        <pt x="349" y="702" on="0"/>
      </contour>
      <contour>
        <pt x="245" y="702" on="1"/>
        <pt x="249" y="702" on="1"/>
        <pt x="287" y="702" on="0"/>
        <pt x="287" y="680" on="1"/>
        <pt x="282" y="629" on="1"/>
        <pt x="279" y="607" on="0"/>
        <pt x="240" y="607" on="1"/>
        <pt x="236" y="607" on="1"/>
        <pt x="198" y="607" on="0"/>
        <pt x="198" y="629" on="1"/>
        <pt x="203" y="680" on="1"/>
        <pt x="206" y="702" on="0"/>
      </contour>
    </TTGlyph>
    <TTGlyph name="egrave" xMin="46" yMin="-6" xMax="489" yMax="752">
      <contour>
        <pt x="410" y="102" on="1"/>
        <pt x="430" y="115" on="0"/>
        <pt x="434" y="115" on="1"/>
        <pt x="441" y="115" on="0"/>
        <pt x="441" y="84" on="0"/>
        <pt x="436" y="58" on="1"/>
        <pt x="430" y="27" on="0"/>
        <pt x="318" y="-6" on="0"/>
        <pt x="272" y="-6" on="1"/>
        <pt x="46" y="-6" on="0"/>
        <pt x="46" y="201" on="1"/>
        <pt x="46" y="346" on="0"/>
        <pt x="182" y="529" on="0"/>
        <pt x="321" y="529" on="1"/>
        <pt x="406" y="529" on="0"/>
        <pt x="489" y="444" on="0"/>
        <pt x="489" y="346" on="0"/>
        <pt x="444" y="272" on="0"/>
        <pt x="404" y="252" on="1"/>
        <pt x="327" y="213" on="0"/>
        <pt x="219" y="213" on="1"/>
        <pt x="170" y="213" on="0"/>
        <pt x="133" y="220" on="1"/>
        <pt x="133" y="210" on="1"/>
        <pt x="133" y="131" on="0"/>
        <pt x="208" y="66" on="0"/>
        <pt x="350" y="66" on="0"/>
      </contour>
      <contour>
        <pt x="312" y="457" on="1"/>
        <pt x="162" y="457" on="0"/>
        <pt x="138" y="285" on="1"/>
        <pt x="209" y="285" on="1"/>
        <pt x="294" y="285" on="0"/>
        <pt x="344" y="307" on="1"/>
        <pt x="366" y="317" on="0"/>
        <pt x="402" y="359" on="0"/>
        <pt x="402" y="417" on="0"/>
        <pt x="353" y="457" on="0"/>
      </contour>
      <contour>
        <pt x="381" y="614" on="1"/>
        <pt x="381" y="605" on="0"/>
        <pt x="322" y="605" on="0"/>
        <pt x="307" y="623" on="1"/>
        <pt x="219" y="723" on="0"/>
        <pt x="213" y="736" on="0"/>
        <pt x="213" y="740" on="1"/>
        <pt x="214" y="752" on="0"/>
        <pt x="308" y="752" on="0"/>
        <pt x="323" y="726" on="1"/>
        <pt x="381" y="627" on="0"/>
      </contour>
    </TTGlyph>
    <TTGlyph name="eight" xMin="33" yMin="-6" xMax="481" yMax="706">
      <contour>
        <pt x="141" y="-6" on="0"/>
        <pt x="33" y="84" on="0"/>
        <pt x="33" y="244" on="0"/>
        <pt x="100" y="355" on="0"/>
        <pt x="165" y="380" on="1"/>
        <pt x="97" y="424" on="0"/>
        <pt x="97" y="603" on="0"/>
        <pt x="218" y="706" on="0"/>
        <pt x="383" y="706" on="0"/>
        <pt x="481" y="627" on="0"/>
        <pt x="481" y="555" on="1"/>
        <pt x="481" y="431" on="0"/>
        <pt x="367" y="381" on="1"/>
        <pt x="416" y="358" on="0"/>
        <pt x="469" y="292" on="0"/>
        <pt x="469" y="231" on="1"/>
        <pt x="469" y="115" on="0"/>
        <pt x="330" y="-6" on="0"/>
      </contour>
      <contour>
        <pt x="397" y="547" on="1"/>
        <pt x="397" y="591" on="0"/>
        <pt x="342" y="634" on="0"/>
        <pt x="247" y="634" on="0"/>
        <pt x="181" y="575" on="0"/>
        <pt x="181" y="517" on="1"/>
        <pt x="181" y="468" on="0"/>
        <pt x="216" y="444" on="1"/>
        <pt x="243" y="427" on="0"/>
        <pt x="297" y="408" on="1"/>
        <pt x="397" y="464" on="0"/>
      </contour>
      <contour>
        <pt x="120" y="181" on="1"/>
        <pt x="120" y="126" on="0"/>
        <pt x="186" y="66" on="0"/>
        <pt x="296" y="66" on="0"/>
        <pt x="383" y="146" on="0"/>
        <pt x="383" y="219" on="1"/>
        <pt x="383" y="276" on="0"/>
        <pt x="332" y="306" on="1"/>
        <pt x="304" y="322" on="0"/>
        <pt x="239" y="346" on="0"/>
        <pt x="229" y="350" on="1"/>
        <pt x="120" y="290" on="0"/>
      </contour>
    </TTGlyph>
    <TTGlyph name="ellipsis" xMin="47" yMin="-2" xMax="568" yMax="108">
      <contour>
        <pt x="513" y="108" on="1"/>
        <pt x="530" y="108" on="1"/>
        <pt x="568" y="108" on="0"/>
        <pt x="568" y="86" on="1"/>
        <pt x="561" y="20" on="1"/>
        <pt x="558" y="-2" on="0"/>
        <pt x="519" y="-2" on="1"/>
        <pt x="502" y="-2" on="1"/>
        <pt x="464" y="-2" on="0"/>
        <pt x="464" y="20" on="1"/>
        <pt x="471" y="86" on="1"/>
        <pt x="473" y="108" on="0"/>
      </contour>
      <contour>
        <pt x="305" y="108" on="1"/>
        <pt x="322" y="108" on="1"/>
        <pt x="360" y="108" on="0"/>
        <pt x="360" y="86" on="1"/>
        <pt x="353" y="20" on="1"/>
        <pt x="350" y="-2" on="0"/>
        <pt x="311" y="-2" on="1"/>
        <pt x="294" y="-2" on="1"/>
        <pt x="256" y="-2" on="0"/>
        <pt x="256" y="20" on="1"/>
        <pt x="263" y="86" on="1"/>
        <pt x="265" y="108" on="0"/>
      </contour>
      <contour>
        <pt x="96" y="108" on="1"/>
        <pt x="113" y="108" on="1"/>
        <pt x="151" y="108" on="0"/>
        <pt x="151" y="86" on="1"/>
        <pt x="144" y="20" on="1"/>
        <pt x="141" y="-2" on="0"/>
        <pt x="102" y="-2" on="1"/>
        <pt x="85" y="-2" on="1"/>
        <pt x="47" y="-2" on="0"/>
        <pt x="47" y="20" on="1"/>
        <pt x="54" y="86" on="1"/>
        <pt x="56" y="108" on="0"/>
      </contour>
    </TTGlyph>
    <TTGlyph name="emdash" xMin="-1" yMin="230" xMax="999" yMax="302">
      <contour>
        <pt x="24" y="302" on="1"/>
        <pt x="982" y="302" on="1"/>
        <pt x="999" y="302" on="0"/>
        <pt x="999" y="275" on="1"/>
        <pt x="999" y="230" on="0"/>
        <pt x="974" y="230" on="1"/>
        <pt x="16" y="230" on="1"/>
        <pt x="-1" y="230" on="0"/>
        <pt x="-1" y="257" on="1"/>
        <pt x="-1" y="302" on="0"/>
      </contour>
    </TTGlyph>
    <TTGlyph name="endash" xMin="-1" yMin="230" xMax="501" yMax="302">
      <contour>
        <pt x="24" y="302" on="1"/>
        <pt x="484" y="302" on="1"/>
        <pt x="501" y="302" on="0"/>
        <pt x="501" y="275" on="1"/>
        <pt x="501" y="230" on="0"/>
        <pt x="476" y="230" on="1"/>
        <pt x="16" y="230" on="1"/>
        <pt x="-1" y="230" on="0"/>
        <pt x="-1" y="257" on="1"/>
        <pt x="-1" y="302" on="0"/>
      </contour>
    </TTGlyph>
    <TTGlyph name="equal" xMin="37" yMin="108" xMax="524" yMax="338">
      <contour>
        <pt x="79" y="338" on="1"/>
        <pt x="507" y="338" on="1"/>
        <pt x="524" y="338" on="0"/>
        <pt x="524" y="314" on="1"/>
        <pt x="524" y="271" on="0"/>
        <pt x="499" y="271" on="1"/>
        <pt x="71" y="271" on="1"/>
        <pt x="54" y="271" on="0"/>
        <pt x="54" y="338" on="0"/>
      </contour>
      <contour>
        <pt x="62" y="175" on="1"/>
        <pt x="490" y="175" on="1"/>
        <pt x="507" y="175" on="0"/>
        <pt x="507" y="151" on="1"/>
        <pt x="507" y="108" on="0"/>
        <pt x="482" y="108" on="1"/>
        <pt x="54" y="108" on="1"/>
        <pt x="37" y="108" on="0"/>
        <pt x="37" y="175" on="0"/>
      </contour>
    </TTGlyph>
    <TTGlyph name="eth" xMin="42" yMin="-6" xMax="507" yMax="713">
      <contour>
        <pt x="347" y="607" on="1"/>
        <pt x="260" y="595" on="1"/>
        <pt x="251" y="595" on="0"/>
        <pt x="237" y="614" on="0"/>
        <pt x="237" y="637" on="0"/>
        <pt x="254" y="640" on="1"/>
        <pt x="327" y="650" on="1"/>
        <pt x="317" y="668" on="0"/>
        <pt x="300" y="694" on="0"/>
        <pt x="300" y="699" on="1"/>
        <pt x="300" y="708" on="0"/>
        <pt x="312" y="709" on="1"/>
        <pt x="342" y="713" on="0"/>
        <pt x="366" y="713" on="0"/>
        <pt x="378" y="698" on="1"/>
        <pt x="398" y="670" on="0"/>
        <pt x="404" y="660" on="1"/>
        <pt x="481" y="671" on="0"/>
        <pt x="494" y="671" on="0"/>
        <pt x="504" y="650" on="0"/>
        <pt x="504" y="641" on="1"/>
        <pt x="504" y="627" on="0"/>
        <pt x="488" y="626" on="1"/>
        <pt x="427" y="618" on="1"/>
        <pt x="507" y="468" on="0"/>
        <pt x="507" y="160" on="0"/>
        <pt x="371" y="-6" on="0"/>
        <pt x="249" y="-6" on="1"/>
        <pt x="148" y="-6" on="0"/>
        <pt x="42" y="103" on="0"/>
        <pt x="42" y="207" on="1"/>
        <pt x="42" y="359" on="0"/>
        <pt x="184" y="529" on="0"/>
        <pt x="305" y="529" on="1"/>
        <pt x="348" y="529" on="0"/>
        <pt x="384" y="517" on="1"/>
        <pt x="367" y="563" on="0"/>
      </contour>
      <contour>
        <pt x="253" y="66" on="1"/>
        <pt x="420" y="66" on="0"/>
        <pt x="420" y="310" on="1"/>
        <pt x="420" y="457" on="0"/>
        <pt x="294" y="457" on="1"/>
        <pt x="214" y="457" on="0"/>
        <pt x="128" y="334" on="0"/>
        <pt x="128" y="211" on="1"/>
        <pt x="128" y="137" on="0"/>
        <pt x="189" y="66" on="0"/>
      </contour>
    </TTGlyph>
    <TTGlyph name="exclam" xMin="65" yMin="-2" xMax="245" yMax="702">
      <contour>
        <pt x="188" y="702" on="1"/>
        <pt x="208" y="702" on="1"/>
        <pt x="245" y="702" on="0"/>
        <pt x="245" y="680" on="1"/>
        <pt x="170" y="224" on="1"/>
        <pt x="167" y="202" on="0"/>
        <pt x="137" y="202" on="1"/>
        <pt x="126" y="202" on="1"/>
        <pt x="98" y="202" on="0"/>
        <pt x="98" y="224" on="1"/>
        <pt x="146" y="680" on="1"/>
        <pt x="149" y="702" on="0"/>
      </contour>
      <contour>
        <pt x="114" y="108" on="1"/>
        <pt x="131" y="108" on="1"/>
        <pt x="169" y="108" on="0"/>
        <pt x="169" y="86" on="1"/>
        <pt x="162" y="20" on="1"/>
        <pt x="159" y="-2" on="0"/>
        <pt x="120" y="-2" on="1"/>
        <pt x="103" y="-2" on="1"/>
        <pt x="65" y="-2" on="0"/>
        <pt x="65" y="20" on="1"/>
        <pt x="72" y="86" on="1"/>
        <pt x="74" y="108" on="0"/>
      </contour>
    </TTGlyph>
    <TTGlyph name="exclamdown" xMin="47" yMin="-179" xMax="227" yMax="525">
      <contour>
        <pt x="178" y="415" on="1"/>
        <pt x="161" y="415" on="1"/>
        <pt x="123" y="415" on="0"/>
        <pt x="123" y="437" on="1"/>
        <pt x="130" y="503" on="1"/>
        <pt x="132" y="525" on="0"/>
        <pt x="172" y="525" on="1"/>
        <pt x="189" y="525" on="1"/>
        <pt x="227" y="525" on="0"/>
        <pt x="227" y="503" on="1"/>
        <pt x="220" y="437" on="1"/>
        <pt x="217" y="415" on="0"/>
      </contour>
      <contour>
        <pt x="104" y="-179" on="1"/>
        <pt x="84" y="-179" on="1"/>
        <pt x="47" y="-179" on="0"/>
        <pt x="47" y="-157" on="1"/>
        <pt x="122" y="299" on="1"/>
        <pt x="125" y="321" on="0"/>
        <pt x="155" y="321" on="1"/>
        <pt x="166" y="321" on="1"/>
        <pt x="194" y="321" on="0"/>
        <pt x="194" y="299" on="1"/>
        <pt x="146" y="-157" on="1"/>
        <pt x="143" y="-179" on="0"/>
      </contour>
    </TTGlyph>
    <TTGlyph name="f" xMin="60" yMin="-2" xMax="349" yMax="756">
      <contour>
        <pt x="296" y="523" on="1"/>
        <pt x="312" y="523" on="0"/>
        <pt x="312" y="504" on="1"/>
        <pt x="312" y="484" on="0"/>
        <pt x="284" y="451" on="0"/>
        <pt x="267" y="451" on="1"/>
        <pt x="201" y="451" on="1"/>
        <pt x="156" y="20" on="1"/>
        <pt x="153" y="-2" on="0"/>
        <pt x="114" y="-2" on="1"/>
        <pt x="110" y="-2" on="1"/>
        <pt x="72" y="-2" on="0"/>
        <pt x="72" y="20" on="1"/>
        <pt x="117" y="451" on="1"/>
        <pt x="77" y="451" on="1"/>
        <pt x="60" y="451" on="0"/>
        <pt x="60" y="478" on="1"/>
        <pt x="60" y="523" on="0"/>
        <pt x="85" y="523" on="1"/>
        <pt x="125" y="523" on="1"/>
        <pt x="135" y="624" on="1"/>
        <pt x="148" y="756" on="0"/>
        <pt x="278" y="756" on="1"/>
        <pt x="349" y="756" on="0"/>
        <pt x="349" y="725" on="1"/>
        <pt x="349" y="715" on="0"/>
        <pt x="331" y="677" on="0"/>
        <pt x="323" y="677" on="1"/>
        <pt x="322" y="677" on="0"/>
        <pt x="317" y="678" on="1"/>
        <pt x="299" y="684" on="0"/>
        <pt x="252" y="684" on="0"/>
        <pt x="222" y="656" on="0"/>
        <pt x="218" y="614" on="1"/>
        <pt x="209" y="523" on="1"/>
      </contour>
    </TTGlyph>
    <TTGlyph name="fi" xMin="58" yMin="-6" xMax="514" yMax="756">
      <contour>
        <pt x="294" y="523" on="1"/>
        <pt x="310" y="523" on="0"/>
        <pt x="310" y="504" on="1"/>
        <pt x="310" y="484" on="0"/>
        <pt x="282" y="451" on="0"/>
        <pt x="265" y="451" on="1"/>
        <pt x="199" y="451" on="1"/>
        <pt x="154" y="20" on="1"/>
        <pt x="151" y="-2" on="0"/>
        <pt x="112" y="-2" on="1"/>
        <pt x="108" y="-2" on="1"/>
        <pt x="70" y="-2" on="0"/>
        <pt x="70" y="20" on="1"/>
        <pt x="115" y="451" on="1"/>
        <pt x="75" y="451" on="1"/>
        <pt x="58" y="451" on="0"/>
        <pt x="58" y="478" on="1"/>
        <pt x="58" y="523" on="0"/>
        <pt x="83" y="523" on="1"/>
        <pt x="123" y="523" on="1"/>
        <pt x="133" y="624" on="1"/>
        <pt x="146" y="756" on="0"/>
        <pt x="276" y="756" on="1"/>
        <pt x="347" y="756" on="0"/>
        <pt x="347" y="725" on="1"/>
        <pt x="347" y="715" on="0"/>
        <pt x="329" y="677" on="0"/>
        <pt x="321" y="677" on="1"/>
        <pt x="320" y="677" on="0"/>
        <pt x="315" y="678" on="1"/>
        <pt x="297" y="684" on="0"/>
        <pt x="250" y="684" on="0"/>
        <pt x="220" y="656" on="0"/>
        <pt x="216" y="614" on="1"/>
        <pt x="207" y="523" on="1"/>
      </contour>
      <contour>
        <pt x="464" y="752" on="1"/>
        <pt x="476" y="752" on="1"/>
        <pt x="514" y="752" on="0"/>
        <pt x="514" y="730" on="1"/>
        <pt x="508" y="671" on="1"/>
        <pt x="508" y="649" on="0"/>
        <pt x="470" y="649" on="1"/>
        <pt x="458" y="649" on="1"/>
        <pt x="416" y="649" on="0"/>
        <pt x="416" y="671" on="1"/>
        <pt x="422" y="730" on="1"/>
        <pt x="425" y="752" on="0"/>
      </contour>
      <contour>
        <pt x="481" y="66" on="1"/>
        <pt x="508" y="71" on="1"/>
        <pt x="514" y="71" on="0"/>
        <pt x="514" y="49" on="0"/>
        <pt x="507" y="10" on="0"/>
        <pt x="468" y="-6" on="0"/>
        <pt x="450" y="-6" on="1"/>
        <pt x="361" y="-6" on="0"/>
        <pt x="361" y="89" on="1"/>
        <pt x="361" y="125" on="0"/>
        <pt x="401" y="503" on="0"/>
        <pt x="402" y="503" on="1"/>
        <pt x="405" y="525" on="0"/>
        <pt x="444" y="525" on="1"/>
        <pt x="448" y="525" on="1"/>
        <pt x="486" y="525" on="0"/>
        <pt x="486" y="503" on="1"/>
        <pt x="446" y="137" on="0"/>
        <pt x="446" y="88" on="0"/>
        <pt x="458" y="69" on="0"/>
        <pt x="470" y="66" on="0"/>
      </contour>
    </TTGlyph>
    <TTGlyph name="five" xMin="42" yMin="-6" xMax="465" yMax="700">
      <contour>
        <pt x="270" y="66" on="0"/>
        <pt x="374" y="152" on="0"/>
        <pt x="374" y="232" on="1"/>
        <pt x="374" y="290" on="0"/>
        <pt x="289" y="350" on="0"/>
        <pt x="208" y="350" on="1"/>
        <pt x="123" y="350" on="1"/>
        <pt x="97" y="350" on="0"/>
        <pt x="97" y="372" on="1"/>
        <pt x="97" y="373" on="0"/>
        <pt x="118" y="501" on="0"/>
        <pt x="145" y="670" on="1"/>
        <pt x="149" y="700" on="0"/>
        <pt x="181" y="700" on="1"/>
        <pt x="448" y="700" on="1"/>
        <pt x="465" y="700" on="0"/>
        <pt x="465" y="673" on="1"/>
        <pt x="465" y="628" on="0"/>
        <pt x="440" y="628" on="1"/>
        <pt x="222" y="628" on="1"/>
        <pt x="187" y="422" on="1"/>
        <pt x="239" y="422" on="1"/>
        <pt x="323" y="422" on="0"/>
        <pt x="386" y="384" on="1"/>
        <pt x="420" y="364" on="0"/>
        <pt x="460" y="291" on="0"/>
        <pt x="460" y="171" on="0"/>
        <pt x="411" y="69" on="0"/>
        <pt x="370" y="43" on="1"/>
        <pt x="293" y="-6" on="0"/>
        <pt x="196" y="-6" on="1"/>
        <pt x="131" y="-6" on="0"/>
        <pt x="78" y="12" on="1"/>
        <pt x="42" y="24" on="0"/>
        <pt x="42" y="44" on="1"/>
        <pt x="42" y="103" on="0"/>
        <pt x="57" y="103" on="1"/>
        <pt x="58" y="103" on="0"/>
        <pt x="77" y="94" on="1"/>
        <pt x="132" y="66" on="0"/>
      </contour>
    </TTGlyph>
    <TTGlyph name="fl" xMin="58" yMin="-6" xMax="533" yMax="756">
      <contour>
        <pt x="294" y="523" on="1"/>
        <pt x="310" y="523" on="0"/>
        <pt x="310" y="504" on="1"/>
        <pt x="310" y="484" on="0"/>
        <pt x="282" y="451" on="0"/>
        <pt x="265" y="451" on="1"/>
        <pt x="199" y="451" on="1"/>
        <pt x="154" y="20" on="1"/>
        <pt x="151" y="-2" on="0"/>
        <pt x="112" y="-2" on="1"/>
        <pt x="108" y="-2" on="1"/>
        <pt x="70" y="-2" on="0"/>
        <pt x="70" y="20" on="1"/>
        <pt x="115" y="451" on="1"/>
        <pt x="75" y="451" on="1"/>
        <pt x="58" y="451" on="0"/>
        <pt x="58" y="478" on="1"/>
        <pt x="58" y="523" on="0"/>
        <pt x="83" y="523" on="1"/>
        <pt x="123" y="523" on="1"/>
        <pt x="133" y="624" on="1"/>
        <pt x="146" y="756" on="0"/>
        <pt x="276" y="756" on="1"/>
        <pt x="347" y="756" on="0"/>
        <pt x="347" y="725" on="1"/>
        <pt x="347" y="715" on="0"/>
        <pt x="329" y="677" on="0"/>
        <pt x="321" y="677" on="1"/>
        <pt x="320" y="677" on="0"/>
        <pt x="315" y="678" on="1"/>
        <pt x="297" y="684" on="0"/>
        <pt x="250" y="684" on="0"/>
        <pt x="220" y="656" on="0"/>
        <pt x="216" y="614" on="1"/>
        <pt x="207" y="523" on="1"/>
      </contour>
      <contour>
        <pt x="500" y="66" on="1"/>
        <pt x="527" y="71" on="1"/>
        <pt x="533" y="71" on="0"/>
        <pt x="533" y="49" on="0"/>
        <pt x="526" y="10" on="0"/>
        <pt x="487" y="-6" on="0"/>
        <pt x="469" y="-6" on="1"/>
        <pt x="379" y="-6" on="0"/>
        <pt x="379" y="92" on="1"/>
        <pt x="379" y="119" on="0"/>
        <pt x="428" y="580" on="1"/>
        <pt x="444" y="730" on="1"/>
        <pt x="447" y="752" on="0"/>
        <pt x="486" y="752" on="1"/>
        <pt x="490" y="752" on="1"/>
        <pt x="528" y="752" on="0"/>
        <pt x="528" y="730" on="1"/>
        <pt x="464" y="137" on="0"/>
        <pt x="464" y="92" on="0"/>
        <pt x="470" y="74" on="0"/>
        <pt x="476" y="71" on="1"/>
        <pt x="487" y="66" on="0"/>
      </contour>
    </TTGlyph>
    <TTGlyph name="florin" xMin="15" yMin="-208" xMax="346" yMax="756">
      <contour>
        <pt x="286" y="523" on="1"/>
        <pt x="301" y="523" on="0"/>
        <pt x="301" y="485" on="0"/>
        <pt x="271" y="451" on="0"/>
        <pt x="254" y="451" on="1"/>
        <pt x="188" y="451" on="1"/>
        <pt x="99" y="-186" on="1"/>
        <pt x="96" y="-208" on="0"/>
        <pt x="56" y="-208" on="1"/>
        <pt x="52" y="-208" on="1"/>
        <pt x="15" y="-208" on="0"/>
        <pt x="15" y="-186" on="1"/>
        <pt x="104" y="451" on="1"/>
        <pt x="64" y="451" on="1"/>
        <pt x="48" y="451" on="0"/>
        <pt x="48" y="478" on="1"/>
        <pt x="48" y="523" on="0"/>
        <pt x="75" y="523" on="1"/>
        <pt x="115" y="523" on="1"/>
        <pt x="128" y="624" on="1"/>
        <pt x="145" y="756" on="0"/>
        <pt x="276" y="756" on="1"/>
        <pt x="346" y="756" on="0"/>
        <pt x="346" y="726" on="1"/>
        <pt x="346" y="717" on="0"/>
        <pt x="326" y="677" on="0"/>
        <pt x="318" y="677" on="1"/>
        <pt x="317" y="677" on="0"/>
        <pt x="312" y="678" on="1"/>
        <pt x="294" y="684" on="0"/>
        <pt x="247" y="684" on="0"/>
        <pt x="217" y="656" on="0"/>
        <pt x="211" y="614" on="1"/>
        <pt x="199" y="523" on="1"/>
      </contour>
    </TTGlyph>
    <TTGlyph name="four" xMin="4" yMin="-2" xMax="502" yMax="702">
      <contour>
        <pt x="485" y="239" on="1"/>
        <pt x="502" y="239" on="0"/>
        <pt x="502" y="212" on="1"/>
        <pt x="502" y="167" on="0"/>
        <pt x="477" y="167" on="1"/>
        <pt x="409" y="167" on="1"/>
        <pt x="394" y="20" on="1"/>
        <pt x="391" y="-2" on="0"/>
        <pt x="362" y="-2" on="1"/>
        <pt x="339" y="-2" on="1"/>
        <pt x="311" y="-2" on="0"/>
        <pt x="311" y="20" on="1"/>
        <pt x="326" y="167" on="1"/>
        <pt x="22" y="167" on="1"/>
        <pt x="15" y="167" on="0"/>
        <pt x="4" y="197" on="0"/>
        <pt x="4" y="226" on="0"/>
        <pt x="7" y="229" on="1"/>
        <pt x="384" y="688" on="1"/>
        <pt x="396" y="702" on="0"/>
        <pt x="419" y="702" on="1"/>
        <pt x="435" y="702" on="1"/>
        <pt x="463" y="702" on="0"/>
        <pt x="463" y="680" on="1"/>
        <pt x="417" y="239" on="1"/>
      </contour>
      <contour>
        <pt x="105" y="239" on="1"/>
        <pt x="334" y="239" on="1"/>
        <pt x="367" y="557" on="1"/>
        <pt x="363" y="559" on="1"/>
      </contour>
    </TTGlyph>
    <TTGlyph name="fraction" xMin="-119" yMin="-2" xMax="393" yMax="701">
      <contour>
        <pt x="-81" y="-2" on="1"/>
        <pt x="-106" y="-2" on="1"/>
        <pt x="-119" y="-2" on="0"/>
        <pt x="-119" y="12" on="0"/>
        <pt x="-115" y="17" on="1"/>
        <pt x="324" y="682" on="1"/>
        <pt x="337" y="701" on="0"/>
        <pt x="355" y="701" on="1"/>
        <pt x="380" y="701" on="1"/>
        <pt x="393" y="701" on="0"/>
        <pt x="393" y="692" on="1"/>
        <pt x="393" y="687" on="0"/>
        <pt x="389" y="682" on="1"/>
        <pt x="-50" y="17" on="1"/>
        <pt x="-63" y="-2" on="0"/>
      </contour>
    </TTGlyph>
    <TTGlyph name="g" xMin="41" yMin="-212" xMax="500" yMax="529">
      <contour>
        <pt x="213" y="-212" on="1"/>
        <pt x="141" y="-212" on="0"/>
        <pt x="41" y="-166" on="0"/>
        <pt x="41" y="-141" on="1"/>
        <pt x="41" y="-86" on="0"/>
        <pt x="55" y="-86" on="1"/>
        <pt x="57" y="-86" on="0"/>
        <pt x="94" y="-113" on="0"/>
        <pt x="167" y="-140" on="0"/>
        <pt x="213" y="-140" on="1"/>
        <pt x="286" y="-140" on="0"/>
        <pt x="364" y="-24" on="0"/>
        <pt x="375" y="108" on="1"/>
        <pt x="317" y="0" on="0"/>
        <pt x="214" y="0" on="1"/>
        <pt x="155" y="0" on="0"/>
        <pt x="104" y="41" on="1"/>
        <pt x="76" y="63" on="0"/>
        <pt x="42" y="150" on="0"/>
        <pt x="42" y="210" on="1"/>
        <pt x="42" y="351" on="0"/>
        <pt x="179" y="529" on="0"/>
        <pt x="292" y="529" on="1"/>
        <pt x="365" y="529" on="0"/>
        <pt x="424" y="475" on="1"/>
        <pt x="430" y="494" on="0"/>
        <pt x="434" y="502" on="1"/>
        <pt x="446" y="525" on="0"/>
        <pt x="469" y="525" on="1"/>
        <pt x="475" y="525" on="1"/>
        <pt x="500" y="525" on="0"/>
        <pt x="500" y="504" on="1"/>
        <pt x="457" y="99" on="1"/>
        <pt x="439" y="-75" on="0"/>
        <pt x="324" y="-212" on="0"/>
      </contour>
      <contour>
        <pt x="300" y="456" on="1"/>
        <pt x="129" y="456" on="0"/>
        <pt x="129" y="216" on="1"/>
        <pt x="129" y="73" on="0"/>
        <pt x="233" y="73" on="1"/>
        <pt x="274" y="73" on="0"/>
        <pt x="359" y="153" on="0"/>
        <pt x="388" y="244" on="1"/>
        <pt x="401" y="367" on="1"/>
        <pt x="403" y="385" on="0"/>
        <pt x="409" y="417" on="1"/>
        <pt x="357" y="456" on="0"/>
      </contour>
    </TTGlyph>
    <TTGlyph name="germandbls" xMin="54" yMin="-2" xMax="505" yMax="706">
      <contour>
        <pt x="261" y="0" on="1"/>
        <pt x="227" y="0" on="1"/>
        <pt x="210" y="0" on="0"/>
        <pt x="210" y="27" on="1"/>
        <pt x="210" y="72" on="0"/>
        <pt x="235" y="72" on="1"/>
        <pt x="270" y="72" on="1"/>
        <pt x="328" y="72" on="0"/>
        <pt x="411" y="155" on="0"/>
        <pt x="411" y="278" on="0"/>
        <pt x="347" y="340" on="0"/>
        <pt x="298" y="340" on="1"/>
        <pt x="263" y="340" on="1"/>
        <pt x="246" y="340" on="0"/>
        <pt x="246" y="367" on="1"/>
        <pt x="246" y="412" on="0"/>
        <pt x="271" y="412" on="1"/>
        <pt x="283" y="412" on="1"/>
        <pt x="335" y="412" on="0"/>
        <pt x="415" y="491" on="0"/>
        <pt x="415" y="545" on="1"/>
        <pt x="415" y="634" on="0"/>
        <pt x="314" y="634" on="1"/>
        <pt x="263" y="634" on="0"/>
        <pt x="196" y="573" on="0"/>
        <pt x="191" y="521" on="1"/>
        <pt x="138" y="20" on="1"/>
        <pt x="135" y="-2" on="0"/>
        <pt x="96" y="-2" on="1"/>
        <pt x="92" y="-2" on="1"/>
        <pt x="54" y="-2" on="0"/>
        <pt x="54" y="20" on="1"/>
        <pt x="107" y="521" on="1"/>
        <pt x="115" y="603" on="0"/>
        <pt x="235" y="706" on="0"/>
        <pt x="324" y="706" on="1"/>
        <pt x="505" y="706" on="0"/>
        <pt x="505" y="561" on="1"/>
        <pt x="505" y="509" on="0"/>
        <pt x="441" y="407" on="0"/>
        <pt x="386" y="385" on="1"/>
        <pt x="440" y="373" on="0"/>
        <pt x="499" y="289" on="0"/>
        <pt x="499" y="230" on="1"/>
        <pt x="499" y="123" on="0"/>
        <pt x="360" y="0" on="0"/>
      </contour>
    </TTGlyph>
    <TTGlyph name="grave" xMin="70" yMin="605" xMax="238" yMax="752">
      <contour>
        <pt x="238" y="614" on="1"/>
        <pt x="238" y="605" on="0"/>
        <pt x="179" y="605" on="0"/>
        <pt x="164" y="623" on="1"/>
        <pt x="76" y="723" on="0"/>
        <pt x="70" y="736" on="0"/>
        <pt x="70" y="740" on="1"/>
        <pt x="71" y="752" on="0"/>
        <pt x="165" y="752" on="0"/>
        <pt x="180" y="726" on="1"/>
        <pt x="238" y="627" on="0"/>
      </contour>
    </TTGlyph>
    <TTGlyph name="greater" xMin="25" yMin="6" xMax="518" yMax="447">
      <contour>
        <pt x="518" y="239" on="1"/>
        <pt x="518" y="196" on="0"/>
        <pt x="488" y="183" on="1"/>
        <pt x="59" y="9" on="1"/>
        <pt x="50" y="6" on="0"/>
        <pt x="43" y="6" on="1"/>
        <pt x="25" y="6" on="0"/>
        <pt x="25" y="32" on="1"/>
        <pt x="25" y="71" on="0"/>
        <pt x="54" y="81" on="1"/>
        <pt x="425" y="226" on="1"/>
        <pt x="85" y="372" on="1"/>
        <pt x="65" y="381" on="0"/>
        <pt x="65" y="407" on="1"/>
        <pt x="65" y="447" on="0"/>
        <pt x="90" y="447" on="1"/>
        <pt x="98" y="447" on="0"/>
        <pt x="104" y="444" on="1"/>
        <pt x="497" y="270" on="1"/>
        <pt x="518" y="260" on="0"/>
      </contour>
    </TTGlyph>
    <TTGlyph name="greaterequal" xMin="20" yMin="0" xMax="524" yMax="552">
      <contour>
        <pt x="524" y="344" on="1"/>
        <pt x="524" y="301" on="0"/>
        <pt x="494" y="288" on="1"/>
        <pt x="65" y="114" on="1"/>
        <pt x="56" y="111" on="0"/>
        <pt x="49" y="111" on="1"/>
        <pt x="31" y="111" on="0"/>
        <pt x="31" y="137" on="1"/>
        <pt x="31" y="176" on="0"/>
        <pt x="60" y="186" on="1"/>
        <pt x="431" y="331" on="1"/>
        <pt x="91" y="477" on="1"/>
        <pt x="71" y="486" on="0"/>
        <pt x="71" y="512" on="1"/>
        <pt x="71" y="552" on="0"/>
        <pt x="96" y="552" on="1"/>
        <pt x="104" y="552" on="0"/>
        <pt x="110" y="549" on="1"/>
        <pt x="503" y="375" on="1"/>
        <pt x="524" y="365" on="0"/>
      </contour>
      <contour>
        <pt x="55" y="73" on="1"/>
        <pt x="468" y="73" on="1"/>
        <pt x="495" y="73" on="0"/>
        <pt x="495" y="43" on="1"/>
        <pt x="493" y="30" on="1"/>
        <pt x="488" y="0" on="0"/>
        <pt x="460" y="0" on="1"/>
        <pt x="47" y="0" on="1"/>
        <pt x="32" y="0" on="0"/>
        <pt x="20" y="14" on="0"/>
        <pt x="20" y="30" on="1"/>
        <pt x="22" y="43" on="1"/>
        <pt x="26" y="73" on="0"/>
      </contour>
    </TTGlyph>
</ttFont>
